<svg id="图层_1" data-name="图层 1" xmlns="http://www.w3.org/2000/svg" viewBox="0 0 204.03416 65.61286"><defs><style>.cls-1{fill:#fff;}.cls-2{fill:#fefeff;}.cls-3{fill:#fdfdfe;}.cls-4{fill:#fbfbfb;}.cls-5{fill:#fcfcfd;}.cls-6{fill:#eeeeed;}.cls-7{fill:#fafbfb;}.cls-8{fill:#b3b3b2;}.cls-9{fill:#dedede;}.cls-10{fill:#e5e4e4;}.cls-11{fill:#f4f4f4;}.cls-12{fill:#636363;}.cls-13{fill:#f5f5f5;}.cls-14{fill:#d1cfcf;}.cls-15{fill:#4b4a4a;}.cls-16{fill:#dbdada;}.cls-17{fill:#d1d0d0;}.cls-18{fill:#f2f3f3;}.cls-19{fill:#8e8c8c;}.cls-20{fill:#cfcecd;}.cls-21{fill:#d6d6d6;}.cls-22{fill:#4e4c4b;}.cls-23{fill:#3e3e3e;}.cls-24{fill:#dedddd;}.cls-25{fill:#6b6969;}.cls-26{fill:#dfdfde;}.cls-27{fill:#9d9b9b;}.cls-28{fill:#444242;}.cls-29{fill:#acabaa;}.cls-30{fill:#040000;}.cls-31{fill:#060303;}.cls-32{fill:#444343;}.cls-33{fill:#2f3030;}.cls-34{fill:#676767;}.cls-35{fill:#403f3f;}.cls-36{fill:#9d9b9a;}.cls-37{fill:#353636;}.cls-38{fill:#ddd;}.cls-39{fill:#626060;}.cls-40{fill:#d4d4d4;}.cls-41{fill:#9b9b9b;}.cls-42{fill:#6a6867;}.cls-43{fill:#222323;}.cls-44{fill:#0e0f0f;}.cls-45{fill:#dededd;}.cls-46{fill:#959494;}.cls-47{fill:#e3e3e2;}.cls-48{fill:#9c9b9b;}.cls-49{fill:#828282;}.cls-50{fill:#141514;}.cls-51{fill:#353534;}.cls-52{fill:#202121;}.cls-53{fill:#747474;}.cls-54{fill:#bfbfbf;}.cls-55{fill:#939292;}.cls-56{fill:#7a7979;}.cls-57{fill:#575555;}.cls-58{fill:#626161;}.cls-59{fill:#868585;}.cls-60{fill:#5c5a59;}.cls-61{fill:#555352;}.cls-62{fill:#666464;}.cls-63{fill:#393939;}.cls-64{fill:#504f4f;}.cls-65{fill:#262727;}.cls-66{fill:#d7d7d7;}.cls-67{fill:#cfcfcf;}.cls-68{fill:#b6b5b5;}.cls-69{fill:#898989;}.cls-70{fill:#9a9999;}.cls-71{fill:#fefefe;}.cls-72{fill:#fdfefe;}.cls-73{fill:#fbfbfc;}.cls-74{fill:#fbfcfc;}.cls-75{fill:#fdfdfd;}.cls-76{fill:#3f3e3e;}.cls-77{fill:#fafafa;}.cls-78{fill:#3c3c3c;}.cls-79{fill:#6f6f6e;}.cls-80{fill:#6d6d6d;}.cls-81{fill:#333;}.cls-82{fill:#fcfcfc;}.cls-83{fill:#f7f8f8;}.cls-84{fill:#272828;}.cls-85{fill:#f1f1f1;}.cls-86{fill:#f0efef;}.cls-87{fill:#f2f1f1;}.cls-88{fill:#dedcdb;}.cls-89{fill:#d5d3d2;}.cls-90{fill:#e3e2e2;}.cls-91{fill:#7c7b7b;}</style></defs><path class="cls-1" d="M319.9348,413.59908c.3453-.35465.75177-.64512,1.23055-.33886a1.74117,1.74117,0,0,1,.78282,1.68716,22.68225,22.68225,0,0,1-1.55816,6.37427c-1.77263,4.92624-4.13118,9.59748-6.33514,14.33542-.81318.31858-1.16152.12531-.91857-.60748a8.80729,8.80729,0,0,0,.29917-2.16813c1.14849-3.76945,2.52053-7.46221,3.8926-11.15592.53879-1.45045,1.00126-2.93053,1.41732-4.51224-.71584.45892-1.23411,1.08378-1.88209,1.54006-1.72227,1.39255-3.16554,3.07242-4.74938,4.60724a1.46923,1.46923,0,0,0-.56434,1.10254c.2217,2.77658.13964,5.57455.58843,8.33153a2.53477,2.53477,0,0,1,.75734,2.34329c.16552,1.20534.067,2.43091.28391,3.63221a44.42849,44.42849,0,0,0,1.97893,6.84572,6.56812,6.56812,0,0,0,1.4614,2.3685c.4051.375.87289.78058.47179,1.27673-.43573.539-1.03467.219-1.48605-.14861a4.84636,4.84636,0,0,1-.61867-.75564c-.53888.85092.51447,1.9878-.635,2.44931a1.80855,1.80855,0,0,1-2.35316-.72843c-.35657.06765-.43055.26857-.32551.42656a.75048.75048,0,0,1-.29942,1.17914,1.12718,1.12718,0,0,1-1.43051-.09423,6.4819,6.4819,0,0,1-2.09989-2.38328,5.85542,5.85542,0,0,1-.64115-3.80576c-.30242,1.22082.17665,2.64278.37442,4.07987.634.95166,1.189,1.88826-.1898,2.71041a1.70539,1.70539,0,0,1-2.18541-.023,5.08844,5.08844,0,0,1-2.2848-3.98487,81.15242,81.15242,0,0,1-8.68176,5.41126c-6.426,3.35742-13.154.97292-16.844-4.7908-3.11748-4.86948-4.1012-10.21355-3.89608-16.26637l.96764,1.48393c.44839-.92844-.04811-1.33933-.39866-1.76313-1.40367-1.697-2.67941-3.48447-3.9128-5.30772a17.611,17.611,0,0,1-2.75057-12.726c.23419-1.69547.18245-3.4612,1.02549-5.03717,1.06694.65617,2.40091.90019,3.13047,2.07937.331.535.85758.08379,1.28191.17922,1.55852,2.09005,1.90806,4.74379,3.25914,7.10691a41.8917,41.8917,0,0,1,5.554-6.95314c7.33492-7.62245,21.01806-5.60634,26.50022,2.94441,1.05634,1.64762,1.41318,3.06175,1.49086,6.22791,3.55444-.97615,5.32351-4.397,8.36657-6.04149.28512-.15407.55413-.33789.83062-.50789C319.252,414.09759,319.70439,414.04329,319.9348,413.59908Z" transform="translate(-186.61054 -393.12371)"/><path class="cls-2" d="M238.85914,421.06076c2.09328-.8061,3.29123.20981,2.48427,2.52237-.33486.95965-.61013,1.94007-.91351,2.91432,1.72312.39812,2.24235,1.1631,1.95163,3.07123a26.39484,26.39484,0,0,1-2.73511,8.03736c-.43945.85984-.4025,2.0823-1.723,2.277-.65693.1795-.89729-.38479-1.27359-.70929a.91645.91645,0,0,1-.22088-.73019,15.18694,15.18694,0,0,0,1.1724-1.95173,44.00593,44.00593,0,0,0,1.77924-5.30376c-.62309.71315-.66576,2.153-2.17818,2.086-.40712-.22216-.01672-.50747-.04835-.80053a4.89937,4.89937,0,0,1-.26091.61754.36775.36775,0,0,1-.371.0603c-1.5507-.89782-2.10344-2.55379-2.94256-3.96986-.4865-.821.19737-1.83455-.14923-2.73865a2.16249,2.16249,0,0,1,.17064-1.10053c-.30184.56483-.36292,1.24652-1.10746.98452a2.11281,2.11281,0,0,1-.876-2.264,8.36342,8.36342,0,0,0,.81544-1.59352c.09929-.83145-.63781-1.2801-.86972-1.95959.201.70824.92491,1.18948.84823,2.01851a11.97189,11.97189,0,0,1-1.55429,2.77573c-1.34828-1.32983-2.00887-3.12751-3.154-4.60549a17.5627,17.5627,0,0,0-10.4165-6.67718,1.87876,1.87876,0,0,0-1.8824.56313c-1.93274,1.83237-3.64736,3.75471-4.12107,6.52518-.27775,1.62442-.338,1.64736,1.27927,1.79305,5.35923.48279,9.0245,3.70018,9.84939,8.63762a22.26669,22.26669,0,0,1-.001,8.24063c-.12319.5972-.15623,1.20855-.30311,1.80174a21.80762,21.80762,0,0,1-2.01779,3.45255c-.22554.256-.65249,1.10883-1.09224.09163.23479-2.23116.3956-4.47332.72541-6.69036a19.68015,19.68015,0,0,0-.2383-6.42743,7.96569,7.96569,0,0,0-9.75542-6.34944c-.27337.05877-.55117.09692-.82691.14468a7.17541,7.17541,0,0,0-3.62648,1.22291,16.33243,16.33243,0,0,0-5.8721,5.03245,14.02562,14.02562,0,0,1-1.87812,2.05893c-2.21546,3.19359-2.22708,6.66738-1.37094,10.27623a3.75541,3.75541,0,0,1,.1875,2.4536.41086.41086,0,0,1-.37981.18087c-.46117-.16913-.55705-.58243-.68468-.99037-2.65889-8.49858,1.26357-15.02366,7.01174-19.65991a14.75575,14.75575,0,0,1,4.24988-2.45,1.89913,1.89913,0,0,0,1.33042-1.74945,13.92287,13.92287,0,0,1,2.65695-6.72116,6.86231,6.86231,0,0,1,1.37366-1.39688,2.64518,2.64518,0,0,0,1.399-1.79675,1.35562,1.35562,0,0,1,.79726-1.06979,6.383,6.383,0,0,1,3.34738-.20875c-1.4713-2.3696-.06388-5.243-1.59535-7.56848-.158-.23991.00171-.67561-.45338-.73353a3.33028,3.33028,0,0,1-.51825-2.49387,4.65918,4.65918,0,0,0-.11961-1.49568c-.28111-2.3574.237-2.84315,2.35493-2.21445.9368.53171.80949,1.5475,1.08545,2.37963a20.79461,20.79461,0,0,0,1.961,6.24542,3.59378,3.59378,0,0,1,.18558-.86183c.49668-1.69883.95393-3.412,1.54343-5.07915.296-.8371.13084-1.29319-.67453-1.61766-.55976-.22551-1.08425-.539-1.63934-.78214a4.92233,4.92233,0,0,0-1.87631-.49841,2.16144,2.16144,0,0,1-.58807-.14149,2.33388,2.33388,0,0,1-.51606-.32267c-.63-.62788-1.72627-.92746-1.52567-2.14533a1.61037,1.61037,0,0,1,2.01251-.33023,26.1393,26.1393,0,0,0,3.22217.85717c3.52011.88921,5.41,3.818,7.71449,6.208a15.32968,15.32968,0,0,1,2.94072,4.51786,5.52358,5.52358,0,0,1,1.43462,2.67766c.62923,1.71307,1.13769,3.468,1.70742,5.20256a14.15173,14.15173,0,0,1,.47451,6.1039,1.355,1.355,0,0,1,1.17354-.92346c.66292-.521,1.30493-1.50917,2.207-.97247.98914.58849.2604,1.66767.21633,2.53764a5.13176,5.13176,0,0,1-.54746,2.38123A1.77343,1.77343,0,0,1,238.85914,421.06076Z" transform="translate(-186.61054 -393.12371)"/><path class="cls-1" d="M386.24116,430.30312a21.23383,21.23383,0,0,1-3.84086,12.232c-2.87176,4.12189-6.99528,6.3931-11.70176,7.7485a3.56854,3.56854,0,0,0-2.10057,1.39343c-1.53452,2.12761-3.19343,4.16555-4.80053,6.241-.31844.41126-.64445.90882-1.21909.80445-.66259-.12034-.93182-.698-1.12018-1.30775a13.48007,13.48007,0,0,1-.10874-4.47205c.02055-.75243-.16891-.98618-.9154-.97462-5.80574.09-9.91069-3.19618-13.75061-6.98434-.22823-.22516-.51972-.52422-.53653-.80362-.13043-2.16977-1.72021-3.75945-2.22326-5.80362a22.72179,22.72179,0,0,1-.45216-7.71885,17.09349,17.09349,0,0,0-2.45534,4.976c-.201.5699-.27235,1.24409-1.11774,1.19305-1.00328-.06058-.84482-.96219-.87793-1.49157a6.61943,6.61943,0,0,1,.787-3.2398A25.97193,25.97193,0,0,1,344.1079,425.55a5.90352,5.90352,0,0,0,.98412-1.83934c2.75067-6.41325,6.87443-11.52542,13.41871-14.441,8.0388-3.58138,17.26673-1.26015,21.97052,5.76535,1.96626,2.93675,3.8194,5.87394,4.67567,9.3366a2.51455,2.51455,0,0,0,1.34058,1.51282c1.91948,1.20534,3.79732,2.43633,4.103,5.00756a7.09885,7.09885,0,0,1-1.95328,5.49024c-.26471.32366-.65218.60851-1.10977.35347-.39794-.2218-.3283-.64529-.24889-1.00383.22137-.9995.432-2.00484.72772-2.98349a2.96079,2.96079,0,0,0-.58587-2.85327C386.86268,429.53225,386.4811,429.71146,386.24116,430.30312Z" transform="translate(-186.61054 -393.12371)"/><path class="cls-3" d="M189.98572,445.24458a48.24252,48.24252,0,0,1,.6413-13.99316c.73675-3.33747,2.81533-6.0865,4.78845-8.81789a26.57621,26.57621,0,0,1,15.18144-10.43581c.4881.58126.54991.798.58252,2.04118a1.25424,1.25424,0,0,1-1.11779.40876,1.47907,1.47907,0,0,0-1.549-.18261,28.70493,28.70493,0,0,0-12.57692,10.9237c-.87214,1.40854-2.02255,2.74175-2.02579,4.5584-1.00028,2.34912-1.10881,4.86313-1.37,7.34915a2.63737,2.63737,0,0,0-.16584,1.10008c.348,2.05021-.73848,3.8873-.87237,5.874C191.45385,444.78093,191.17649,445.74551,189.98572,445.24458Z" transform="translate(-186.61054 -393.12371)"/><path class="cls-4" d="M189.98572,445.24458c1.49293-.10912,1.22907-1.36782,1.22988-2.19841a2.34951,2.34951,0,0,1,.47937-1.77974c.501-.55493.18726-1.25067.27185-1.8788.10365-.76966-.22745-1.58328.23432-2.317.55328.444.473,1.08255.48238,1.67381.028,1.7682.05274,3.53829-.00269,5.305a8.27015,8.27015,0,0,0,.82463,4.18655c.58459.97016,1.3477.65427,2.10906.28738.19338-.51316-.20183-1.13681.29786-1.58755q.14011-.00114.28025-.00126a.63407.63407,0,0,1,.50133.41977,4.9326,4.9326,0,0,0,1.72528,2.85924.84852.84852,0,0,1-.211.65579,13.82078,13.82078,0,0,1-4.07719.05258,16.77618,16.77618,0,0,1-6.85675-1.16665c-.22631-.08932-.5945.13465-.65633-.2988-.05454-.38235.201-.5973.46636-.8043a2.89068,2.89068,0,0,1,3.33993.301c.40888.41823.77788.8283,1.43769.56533.14542-.05795.44091-.0151.27647-.29352-.08185-.13858-.31331-.1889-.47709-.27914a3.29526,3.29526,0,0,0-1.22848-1.61958C189.71448,446.75455,190.06,445.95454,189.98572,445.24458Z" transform="translate(-186.61054 -393.12371)"/><path class="cls-5" d="M232.01361,449.98436c-4.03808.18289-8.075.40649-12.1202.32814a1.95154,1.95154,0,0,0-.456-.51313c-.86861-.7548-.74416-1.4024.36183-1.77837a7.74724,7.74724,0,0,1,2.75454-.34427,5.97009,5.97009,0,0,0,2.06756-.23205,59.2624,59.2624,0,0,1,6.34764-.07069c.67991.117,1.39791.20556.88346,1.209-.2283.44526.22525.38282.41185.52365C232.93,449.609,232.58288,449.8301,232.01361,449.98436Z" transform="translate(-186.61054 -393.12371)"/><path class="cls-3" d="M213.966,411.45239c-.48191.98044-.417,2.29351-1.69783,2.788a1.21141,1.21141,0,0,1-.8162-.74681,6.23229,6.23229,0,0,1-.02279-2.91465,83.1301,83.1301,0,0,0,2.70578-13.95312c.10731-.89242-.34612-1.89167.38864-2.69473a.50622.50622,0,0,1,.64557.35241,2.43108,2.43108,0,0,0,1.756,1.36681.48883.48883,0,0,1,.13246.226.63417.63417,0,0,1,.02838.88627c-1.90442-.45436-2.0417-.31883-1.9901,1.96489-.204,1.17374-.047,2.39932-.262,3.53447-.32507,1.71631-.968,3.35671-.68893,5.16737.09771.63395-.8117,1.18744-.30771,1.94C214.11313,410.04874,213.83505,410.7629,213.966,411.45239Z" transform="translate(-186.61054 -393.12371)"/><path class="cls-6" d="M232.01361,449.98436c.74168-.74431.322-.76212-.38187-.61552a3.83936,3.83936,0,0,1-.47446.04494c-.54284-.69043,1.41943-.9354.21065-1.6775.0327-.13717.06807-.30891.20048-.349,2.69633-.817,2.96243-3.112,3.11607-5.34622a29.68633,29.68633,0,0,0-2.96833-14.25485c-.26223-.58739-.67189-1.14637-.42108-1.8527.79681-.01461.79681-.01461,1.60628,1.37456.52331,1.66348,1.41895,3.17637,1.97554,4.8286a37.95775,37.95775,0,0,1,1.658,8.89183,7.79941,7.79941,0,0,1-.24813,3.46669c-.71213,1.70379-.69825,3.65017-1.73852,5.24674A7.6624,7.6624,0,0,1,232.01361,449.98436Z" transform="translate(-186.61054 -393.12371)"/><path class="cls-7" d="M207.47659,452.29237a9.06222,9.06222,0,0,1-6.02934-6.142c-.32576-1.03217-.50829-2.13422.49009-2.972.26894-.22567.55048-.60131.97382-.423a.87031.87031,0,0,1,.47958,1.05547c-.63344,1.99268.62659,3.3611,1.67578,4.65107a7.43507,7.43507,0,0,0,4.33744,2.39466c.44627.557.35793,1.0288-.31281,1.3287A2.169,2.169,0,0,1,207.47659,452.29237Z" transform="translate(-186.61054 -393.12371)"/><path class="cls-8" d="M197.36783,433.71585a10.51544,10.51544,0,0,0,1.76995-1.94329,18.362,18.362,0,0,1,7.75434-5.93547,2.33222,2.33222,0,0,1,2.01046-.0329,19.35885,19.35885,0,0,0-9.30682,7.34062c-.6508.39761-.75,1.1409-1.08819,1.73445l.059-.00952c-.93636.9575-.89553,2.38119-1.63774,3.43258a.7774.7774,0,0,1-.55933.25689c-.78478-.72265-.18157-1.48211.03525-2.15375C196.696,435.50325,197.0976,434.63168,197.36783,433.71585Z" transform="translate(-186.61054 -393.12371)"/><path class="cls-9" d="M234.54827,449.74189c.41385-1.72337.54662-3.52832,1.48177-5.1004a10.95018,10.95018,0,0,0,.22219-4.65617c.00955-.43126.10834-.80735.58449-.95169l1.08672.84939a15.94368,15.94368,0,0,1-2.3712,8.77282C235.30371,449.09256,235.08547,449.56725,234.54827,449.74189Z" transform="translate(-186.61054 -393.12371)"/><path class="cls-5" d="M218.99784,445.12674c1.0643.33428,1.181-.69519,1.41055-1.18891a10.85989,10.85989,0,0,1,1.41553-2.35761c.54888.479.42342,1.10234.30919,1.6857a12.011,12.011,0,0,1-.74373,3.38128c-.89175.59-1.65012,1.45864-2.8623,1.39807A7.99236,7.99236,0,0,1,218.99784,445.12674Z" transform="translate(-186.61054 -393.12371)"/><path class="cls-10" d="M212.82387,434.05889c-.10044.70666-.19148,1.3955-.29886,2.08178-.05209.3329-.16717.63376-.57023.68447a.94371.94371,0,0,1-.96514-.38678,3.53164,3.53164,0,0,1,.37491-3.86877.72911.72911,0,0,1,1.24669.28882A4.56976,4.56976,0,0,1,212.82387,434.05889Z" transform="translate(-186.61054 -393.12371)"/><path class="cls-11" d="M207.47659,452.29237c.60935-.523,2.15572.21058,1.92737-1.43576l1.45052-.56506c.341.36812.12357.70879-.07649,1.05014.15079-.2387.33482-.44111.465-.68044.37289-.46325.65567-1.14032,1.41422-.90586a.983.983,0,0,1,.78878,1.15961C211.62505,452.98709,209.19311,453.40048,207.47659,452.29237Z" transform="translate(-186.61054 -393.12371)"/><path class="cls-12" d="M235.74811,417.96994l-1.436,1.81368a25.67122,25.67122,0,0,0-.56341-6.96962,4.51707,4.51707,0,0,0-.1754-1.30861c-.06093-.30143-.12888-.65553.38677-.6184A32.17617,32.17617,0,0,1,235.74811,417.96994Z" transform="translate(-186.61054 -393.12371)"/><path class="cls-13" d="M198.17951,450.60832l-.00515-.5718c-.53483-1.66005-.82527-3.379-1.22661-5.07214a19.36075,19.36075,0,0,1-.81873-4.18349,2.04278,2.04278,0,0,1,.579-2.03c.29429-.05406.49478-.01086.37312.36274.16582,3.73967,1.3458,7.30173,1.92308,10.96934C198.97372,450.64139,198.57614,450.62411,198.17951,450.60832Z" transform="translate(-186.61054 -393.12371)"/><path class="cls-14" d="M204.18193,435.20944a1.01225,1.01225,0,0,1,.8744-1.34994c.75455-.1516.79838.58195.91795,1.118a4.30716,4.30716,0,0,0,.15093.67729c.25641.635.53645,1.36517-.33209,1.64109-.85885.27284-1.22558-.43645-1.4498-1.14662C204.24607,435.84118,204.0592,435.54592,204.18193,435.20944Z" transform="translate(-186.61054 -393.12371)"/><path class="cls-15" d="M233.96009,410.887c-.66473.57723.53715,1.359-.21136,1.927-.49291-1.47322-.9692-2.95224-1.484-4.41777-.41127-1.17083-.86938-2.32522-1.30671-3.48694.71811-.34355.775.33988.95075.68058A21.60617,21.60617,0,0,1,233.96009,410.887Z" transform="translate(-186.61054 -393.12371)"/><path class="cls-16" d="M272.83808,411.44518c-.6157.65169-1.14.92047-1.71251-.11491a1.95794,1.95794,0,0,0-1.97545-1.23c-.82868.11234-.27369-.78035-.72441-.91366.15849-.65036.78516-.7319,1.06449-.42441C270.47162,409.84258,272.31929,409.82405,272.83808,411.44518Z" transform="translate(-186.61054 -393.12371)"/><path class="cls-17" d="M218.52708,448.04527a14.71556,14.71556,0,0,1,2.52393-1.37946,2.43134,2.43134,0,0,0,1.85033.72271c.53041-.01238,1.11575-.077,1.50812.44089-1.36264.60075-2.86393-.009-4.24678.48922-.37775.13611-.90507.012-1.03643.52417-.17275.6736.44185.54427.79049.68131.71326.28041.12533.52939-.02337.78839C218.00184,450.42132,218.5023,449.09011,218.52708,448.04527Z" transform="translate(-186.61054 -393.12371)"/><path class="cls-18" d="M212.52621,448.60142a4.42921,4.42921,0,0,1,1.22577-1.662.95144.95144,0,0,1,1.37527-.05806c.44619.38858.35862.79677.11047,1.23908-.24725.44073-.48106.889-.72077,1.33394C213.8898,449.08511,212.948,449.44957,212.52621,448.60142Z" transform="translate(-186.61054 -393.12371)"/><path class="cls-19" d="M212.52621,448.60142a.37818.37818,0,0,0,.56946.18876c.77511-.40406,1.12858.057,1.42126.66422-.6057.30468-.43663,1.17687-1.071,1.46061-1.01215-1.29661-1.01215-1.29661-2.0269-.00477-.47969-.31026-.47969-.31026.00767-1.15141A3.64381,3.64381,0,0,1,212.52621,448.60142Z" transform="translate(-186.61054 -393.12371)"/><path class="cls-20" d="M313.17926,438.77017a7.55677,7.55677,0,0,1-.52455-3.66649c.35054-.7673-.0131-1.893,1.13537-2.25987a4.20652,4.20652,0,0,1-.34344,2.2322c-.39639.66261-.00028.80485.60822.58109C313.98517,436.75719,312.90387,437.57309,313.17926,438.77017Z" transform="translate(-186.61054 -393.12371)"/><path class="cls-21" d="M211.4292,410.57889a17.90313,17.90313,0,0,1,.28938,3.12359c-.04783.45521-.27877.43232-.58133.22241a2.82052,2.82052,0,0,1-.54032-1.92718C211.1458,411.68384,211.06534,411.00119,211.4292,410.57889Z" transform="translate(-186.61054 -393.12371)"/><path class="cls-22" d="M238.85914,421.06076l-1.827,1.89625a14.78971,14.78971,0,0,1,1.13927-3.42185C238.88453,419.82581,238.71775,420.51267,238.85914,421.06076Z" transform="translate(-186.61054 -393.12371)"/><path class="cls-23" d="M386.24116,430.30311l-.17851-1.43784a1.73054,1.73054,0,0,1,1.36774,1.02984l.18459,1.84615C387.04584,431.14547,386.64352,430.72429,386.24116,430.30311Z" transform="translate(-186.61054 -393.12371)"/><path class="cls-24" d="M197.08117,439.11367l-.2926-.34278a.36817.36817,0,0,1-.03634-.56019c.384-.92209.7739-1.84177,1.1486-2.76762.12717-.31424.26569-.58682.66506-.5735Q197.82419,436.99178,197.08117,439.11367Z" transform="translate(-186.61054 -393.12371)"/><path class="cls-25" d="M307.57641,449.48005a6.75259,6.75259,0,0,1-.44105-4.45381,20.78449,20.78449,0,0,0,.70778,4.1797Z" transform="translate(-186.61054 -393.12371)"/><path class="cls-26" d="M198.17951,450.60832l.82475-.5253c.41616.275.32231.38809-.09875.59248-1.567.76069-3.172.39657-4.77431.24644C195.46468,450.61306,196.86648,451.183,198.17951,450.60832Z" transform="translate(-186.61054 -393.12371)"/><path class="cls-27" d="M190.43283,447.3263c1.69267-.43241.87652,1.036,1.22843,1.61955C191.169,448.46876,190.15649,448.38583,190.43283,447.3263Z" transform="translate(-186.61054 -393.12371)"/><path class="cls-7" d="M211.42675,449.75883c.321.38591-.57592.76376-.00764,1.15136a4.01447,4.01447,0,0,1-1.62444,1.44368c.435-.82324,1.07-1.30326,1.05981-2.06232Z" transform="translate(-186.61054 -393.12371)"/><path class="cls-28" d="M216.9252,395.65026c-1.51716.4269-1.62907-1.107-2.40154-1.71924.08583-.28095.30762-.29266.54447-.27456C215.28065,394.69928,216.341,394.95329,216.9252,395.65026Z" transform="translate(-186.61054 -393.12371)"/><path class="cls-24" d="M198.50757,434.87926c.15469-.70854.09013-1.55449,1.08819-1.73445A6.68987,6.68987,0,0,1,198.50757,434.87926Z" transform="translate(-186.61054 -393.12371)"/><path class="cls-29" d="M319.9348,413.59908c-.24932.411.00228,1.702-1.09528.62279C319.07366,413.78424,319.5276,413.73272,319.9348,413.59908Z" transform="translate(-186.61054 -393.12371)"/><path class="cls-30" d="M307.2922,429.46786c1.54909.68142,1.89085.4927,2.00742-1.10853.35705-.911-.14283-1.91216.2962-2.81458l-.00656.01092c.76451.164.58767.80734.67662,1.31917a6.90167,6.90167,0,0,1-.11835,3.16657c-.03427,8.31081-4.46224,13.94836-11.12008,18.21373-2.56025,1.64023-5.07676,3.39771-8.02475,4.28755-4.48735,1.35448-9.00248-.63338-11.83689-5.14354a22.88843,22.88843,0,0,1-3.46214-11.8463c-.00729-.29655-.21349-.81287.1974-.85511,2.2036-.22656.78755-1.24493.47251-2.017-.123-.30148-.2805-.58889-.42229-.88271a15.13669,15.13669,0,0,0,.50478-3.55578c-.0312-.76724.46442-1.29273.66055-1.94861.25785-.0992.65687-.02336.76025-.29407.88805-2.32531,3.36208-2.796,4.99239-4.25146a11.60288,11.60288,0,0,1,2.6217-1.61982,1.961,1.961,0,0,0,.95314-.80885c1.01749-2.05123,2.933-3.10624,4.75513-4.226.94713-.582,1.6575-1.76436,2.83513-1.70334,1.20674.06254,1.51767,1.546,2.47914,2.12292.357.21422.6194.5708.98585.78765,2.90174,2.474,5.81244,4.9376,8.661,7.47344.38246.34048.86565.60446.64369,1.24614q-1.97268,2.09682-3.94308,4.19577a4.26572,4.26572,0,0,0-.61258.76119c-.32749.57309-.66032,1.2175.01332,1.74263.8542.66591,1.43254.03153,1.98878-.54661a2.67739,2.67739,0,0,0,1.67037-.92932C306.30428,429.88447,306.59268,429.29246,307.2922,429.46786Z" transform="translate(-186.61054 -393.12371)"/><path class="cls-31" d="M270.06287,411.12247c2.2653,2.36047,2.51008,5.571,3.82255,8.27742,1.5005,3.09419-.62579,5.89176-.22758,8.85207C269.37189,423.23437,268.32038,417.538,270.06287,411.12247Z" transform="translate(-186.61054 -393.12371)"/><path class="cls-31" d="M313.79008,432.84381q-.56763,1.12995-1.13532,2.25989c-.13995-.73127.012-1.58214-.83093-2.02524a27.7681,27.7681,0,0,1-.12807-7.92232c.34909-1.83588,1.92431-3.48617,3.519-4.78044a3.44247,3.44247,0,0,0,1.40435-1.87394q1.17052-.9804,2.34108-1.96081C317.905,422.23419,315.41358,427.39893,313.79008,432.84381Z" transform="translate(-186.61054 -393.12371)"/><path class="cls-32" d="M297.3334,416.504a4.27438,4.27438,0,0,1-2.11462-1.96682,1.278,1.278,0,0,0-2.13169-.44951c-1.78465,1.24333-3.52457,2.55086-5.28,3.83589-.149.10905-.35978.22154-.40393.37269-.63494,2.17366-2.73628,2.62643-4.32034,3.66229-1.43584.93894-2.59007,2.30392-4.29772,2.83822-.24414.07638-.2195.3839-.22422.61859-.01806.89594-.562,1.09658-1.32849,1.00174-.28846.08022-.40352-.04343-.38352-.32586,1.4043.14956.95632-.81.8472-1.49033-.04611-.2875-.43888-.4799.1209-.72484,2.425-1.06105,4.34938-2.88785,6.45045-4.42171,3.2434-2.36781,5.93862-5.433,9.44144-7.55418a22.105,22.105,0,0,0,4.26311,4.36111C297.92805,416.78623,297.62282,416.62434,297.3334,416.504Z" transform="translate(-186.61054 -393.12371)"/><path class="cls-33" d="M316.61909,418.50176c.81536.82361-.10517,1.40025-.4876,1.62453-1.91624,1.12381-2.63739,3.24748-4.1424,4.69645-.32778.31556-.15993.80693-.16136,1.21982-.00809,2.34527-.00394,4.69058-.00392,7.03589a41.915,41.915,0,0,1-.47631-6.283,3.43393,3.43393,0,0,0-.22612-1.74244,1.55068,1.55068,0,0,1,.30686-1.65384A54.05031,54.05031,0,0,1,316.61909,418.50176Z" transform="translate(-186.61054 -393.12371)"/><path class="cls-34" d="M297.3334,416.504c.22935-.03755.49243.01358.63854-.24271,2.92891,2.35117,5.796,4.77437,8.49719,7.38607.3674.35523.92714.74646.3349,1.37284-.77641-1.58225-2.41715-2.22729-3.63263-3.33282C301.24641,419.93652,299.28145,418.22956,297.3334,416.504Z" transform="translate(-186.61054 -393.12371)"/><path class="cls-35" d="M276.84883,426.09124q.191.1626.38279.32553a37.988,37.988,0,0,0-.74716,4.99952c-.02028.14868-.34817.25544-.53318.3817-.61217-1.4921.0599-2.96954.06106-4.45508a4.3707,4.3707,0,0,0,.019-1.63486C276.421,425.64928,276.6087,425.92586,276.84883,426.09124Z" transform="translate(-186.61054 -393.12371)"/><path class="cls-36" d="M310.14753,430.04141c-.159-1.49864.00367-3.03725-.55825-4.48577-.05857-.743.39046-1.15779,1.16485-1.86409C310.55424,426.066,311.23079,428.11357,310.14753,430.04141Z" transform="translate(-186.61054 -393.12371)"/><path class="cls-37" d="M307.2922,429.46786c-.60214.55291-1.19932,1.11138-1.80823,1.65674-.39.3493-.79881.64048-1.23353.04861a34.5296,34.5296,0,0,1,2.68713-3.01951Z" transform="translate(-186.61054 -393.12371)"/><path class="cls-38" d="M300.9287,448.2988c-1.05244,1.25042-2.58589,1.86416-3.764,2.93824a.42265.42265,0,0,1-.69978-.14008c-.16292-.27257.02347-.46461.25242-.53176C298.27932,450.10712,299.38571,448.80038,300.9287,448.2988Z" transform="translate(-186.61054 -393.12371)"/><path class="cls-39" d="M279.10607,420.33842l-1.71272,1.23276C277.5919,420.14723,277.92047,419.9127,279.10607,420.33842Z" transform="translate(-186.61054 -393.12371)"/><path class="cls-40" d="M289.32642,408.48873a6.02388,6.02388,0,0,1,2.62988-1.33608A4.04307,4.04307,0,0,1,289.32642,408.48873Z" transform="translate(-186.61054 -393.12371)"/><path class="cls-41" d="M277.12971,417.49971l1.78811-1.57889c-.37715.97511-1.0773,1.29192-1.5012,1.85344Z" transform="translate(-186.61054 -393.12371)"/><path class="cls-42" d="M285.67808,410.45929l-1.63156,1.36121-.21489-.273,1.64486-1.33951Z" transform="translate(-186.61054 -393.12371)"/><path class="cls-36" d="M309.59582,425.54475a6.49965,6.49965,0,0,1-.29619,2.81454C309.30332,427.41115,309.057,426.43669,309.59582,425.54475Z" transform="translate(-186.61054 -393.12371)"/><path class="cls-30" d="M224.40946,447.82941a15.96729,15.96729,0,0,0-2.35372.00107c-1.05437.14884-1.14675-.367-1.00475-1.16462a21.08367,21.08367,0,0,0,.77293-5.08564,47.405,47.405,0,0,0,.3941-8.94787,10.08951,10.08951,0,0,0-10.227-9.32852c-1.40809.03866-1.40429-.33192-1.25687-1.61792.40631-3.544,2.69147-5.79027,5.09826-7.93676.7152-.63785,1.85709-.07244,2.7944.18832,6.01679,1.67386,9.61465,5.98129,12.324,11.26435.22239.1417.39728.30976.33776.60792a36.79488,36.79488,0,0,1,3.67988,11.5317c.307,2.72522.59139,5.456-.63292,8.13226-.6395,1.3979-1.26531,2.43273-2.96765,2.26258A65.89946,65.89946,0,0,0,224.40946,447.82941Z" transform="translate(-186.61054 -393.12371)"/><path class="cls-30" d="M211.13725,413.92489a.5853.5853,0,0,0,.58127-.22242c.22934.13227.54736.174.54967.53789a11.86846,11.86846,0,0,0-4.0537,8.48009c-.08189.88706-.30464,1.11475-1.00123,1.39472a19.7472,19.7472,0,0,0-12.24042,13.98626,7.89228,7.89228,0,0,0-.18688,2.79249,39.64708,39.64708,0,0,0,1.12642,6.0419l.27908,1.94855a5.2911,5.2911,0,0,1-3.05863-.0545c.01854-.18583.11975-.41993.04349-.55041-1.7729-3.03322-.66664-6.35409-.96365-9.53179-.05183-.55452-.01007-1.11779-.01153-1.677.1965-2.59289.22337-5.21825,1.45889-7.61223a23.76068,23.76068,0,0,1,3.93181-6.7052,27.29946,27.29946,0,0,1,10.0644-7.87169,5.50909,5.50909,0,0,1,2.39573-.62047Z" transform="translate(-186.61054 -393.12371)"/><path class="cls-43" d="M213.966,411.45239c-.47215.015-.659-.19348-.53651-.66455.11393-.43814.21416-.87982.32043-1.31994-.30455-.95378.3504-1.70781.57808-2.53773a16.36258,16.36258,0,0,1,1.29164-4.25306l.189-.15938c.53853,1.5771,2.032,2.93433,1.09753,4.85212-.18723.38424-.32148.951.04661,1.16915,1.002.5938.54519,1.58074.79019,2.36965.17319.55768-.15143.76057-.55466.54546C216.09118,410.86877,215.03655,411.4665,213.966,411.45239Z" transform="translate(-186.61054 -393.12371)"/><path class="cls-44" d="M217.086,396.76252l-.02839-.88627.56652.08465c.96737.66939,1.69028,1.80437,3.04341,1.6306a1.97782,1.97782,0,0,1-1.25-.717c-.224-.283-.172-.5303.2875-.44438,3.02986,1.22962,3.02856,1.22922,2.10933,4.20746-.38228,1.23855-.7577,2.47921-1.13625,3.71891-1.22528-.54076-1.27539-1.73571-1.40759-2.78286-.16425-1.30114-.7191-2.45909-.92237-3.48571.11068.25548.33755.71-.41553.92675C217.37933,398.36575,217.8221,397.34279,217.086,396.76252Z" transform="translate(-186.61054 -393.12371)"/><path class="cls-26" d="M197.31826,444.96676c.24858,1.69612,1.1225,3.28675.8561,5.06975-.923-.08677-1.609-.31034-1.47334-1.5236.056-.50093-.32562-1.05075-.5083-1.57834-.25307-1.55866-.43039-3.13424-.77483-4.67244-.71159-3.17786.2253-5.943,1.94965-8.54642.32973,1.50354-.88929,2.63794-.97379,4.04958-.01563.2611-.21728.5078.06955.73179-.59546,2.42935-.01573,4.75189.661,7.0175C197.15624,445.35781,197.12858,445.12377,197.31826,444.96676Z" transform="translate(-186.61054 -393.12371)"/><path class="cls-45" d="M234.51814,432.00251l-1.91584-4.5595c.09435-.61679.05275-1.363,1.05929-1.11113.10056.25931.354.5805.27792.76829-.723,1.78408.76435,2.92659,1.2598,4.33774.263.7492,1.34313.935,1.66647,1.75414.99552.98145.84476,2.297,1.02591,3.51583a3.56588,3.56588,0,0,1-1.3609,1.77516c-.85856-1.05865-.65988-2.43406-1.07331-3.6317A13.89157,13.89157,0,0,0,234.51814,432.00251Z" transform="translate(-186.61054 -393.12371)"/><path class="cls-46" d="M228.00683,408.84762c-1.00821,1.77426-1.79065,3.70664-3.28735,5.13881l-.38709-.21131,3.49476-9.48482,1.07505,2.34916C228.84265,407.47228,228.14219,408.0455,228.00683,408.84762Z" transform="translate(-186.61054 -393.12371)"/><path class="cls-47" d="M215.61966,402.67711a25.06418,25.06418,0,0,1-1.8697,6.79075c-1.038-.20319-.50081-.80869-.27839-1.25313a2.73016,2.73016,0,0,0,.02661-2.96864c-.22438-.342-.25335-.95839.14921-1.14965.99732-.47384.83731-1.33241.86682-2.1317a5.87325,5.87325,0,0,1,.58171-3.23717c.5288,1.02689-.119,2.1519.26664,3.19985C215.45266,402.17228,215.37474,402.47854,215.61966,402.67711Z" transform="translate(-186.61054 -393.12371)"/><path class="cls-48" d="M221.90109,408.63163a19.54741,19.54741,0,0,1,.7471-3.74126c.14761.06212.15511.17987.17773.32223.00969.061.03451.008.03552-.11063a1.49281,1.49281,0,0,1,.44425-1.12365c.76791-.12838,1.11587.30417,1.29861.96114a12.8899,12.8899,0,0,1-.66737,3.11841c-.50071,1.343-.65073,2.83849-1.702,4.20308C221.752,410.90735,222.23,409.73108,221.90109,408.63163Z" transform="translate(-186.61054 -393.12371)"/><path class="cls-23" d="M217.93269,399.01463c.40863-.28633.109-.80234.49684-1.319a8.98392,8.98392,0,0,1,1.15216,3.30782,7.18774,7.18774,0,0,0,1.09648,3.353c-.2328.62747-.156,1.36821-.65712,1.90356C219.52456,403.76978,217.89156,401.63,217.93269,399.01463Z" transform="translate(-186.61054 -393.12371)"/><path class="cls-49" d="M229.73624,413.66409c-.59827.91976-1.51224,1.61639-1.78909,2.78093a1.37323,1.37323,0,0,1-.6393-2.148c.72143-1.29215,1.5598-2.519,2.34751-3.7743.12158-.19374.23941-.45255.51362-.28128.22284.13919.16316.40876.12569.63944A3.64819,3.64819,0,0,1,229.73624,413.66409Z" transform="translate(-186.61054 -393.12371)"/><path class="cls-50" d="M237.89169,436.70788c-.775-1.04573-.55293-2.38211-1.02589-3.51586l-.0005.00018q.035-.31581.22594-.06173c.70926.28431.84617-.34989,1.15-.716a10.62866,10.62866,0,0,1,1.5646-2.02789C239.63972,432.73939,238.61152,434.67716,237.89169,436.70788Z" transform="translate(-186.61054 -393.12371)"/><path class="cls-51" d="M238.32078,424.88307a19.1909,19.1909,0,0,1-2.06054,5.79013c-.87966-1.22053-1.00058-2.23652.09387-3.30723A23.72075,23.72075,0,0,0,238.32078,424.88307Z" transform="translate(-186.61054 -393.12371)"/><path class="cls-52" d="M223.853,408.03561a7.41809,7.41809,0,0,1,.58315-3.06362,5.91218,5.91218,0,0,1,.213-2.76311c.1382-.42714.2204-.95183.86712-.91919.87269.62284.84542,1.32962.407,2.25993-.68625,1.45631-1.21025,2.989-1.803,4.48931A.15293.15293,0,0,1,223.853,408.03561Z" transform="translate(-186.61054 -393.12371)"/><path class="cls-53" d="M225.51623,401.28969c-.77984.73671-.51269,1.78151-.777,2.67-.10032.33725.03451.74337-.30323,1.01223-.27667-.41371-.52492-.866-1.1304-.83533a4.19246,4.19246,0,0,1,.23222-2.3217c.065-.71756.23764-1.346,1.13677-1.37379A1.84923,1.84923,0,0,1,225.51623,401.28969Z" transform="translate(-186.61054 -393.12371)"/><path class="cls-54" d="M233.66159,426.33188c-.75608-.01284-.66777.77814-1.05948,1.11155-.38639-.5861-.54328-1.35634-1.31355-1.6337l-.33774-.6079c.11236-1.08454.87665-1.85519,1.33626-2.77254q.15357-.18872.30045.00525a.88851.88851,0,0,1-.03954.27471c-.58929,1.174-1.16647,2.34429.24144,3.49038.56262-.17044.21381-1.26805,1.134-1.31442C234.17681,425.37133,233.60947,425.82264,233.66159,426.33188Z" transform="translate(-186.61054 -393.12371)"/><path class="cls-55" d="M234.51814,432.00251c.56776.02962.49351.52156.61593.86472a51.14113,51.14113,0,0,1,1.39671,5.6158q.1529.27533.30585.55062-.16172.4317-.32359.86345c-.31409.33874.065.85546-.30335,1.18027A54.22663,54.22663,0,0,0,234.51814,432.00251Z" transform="translate(-186.61054 -393.12371)"/><path class="cls-56" d="M223.853,408.03561a.80372.80372,0,0,1,.26733.00337q-.70712,2.31581-1.41609,4.63115c-.07229.2348-.21521.44523-.49175.32848-.33033-.13947-.70981-.25627-.65571-.76551.12739-1.19916.23107-2.40083.34436-3.60148.5739.9573.00487,2.02554.35432,3.0963C223.31532,410.70133,223.09914,409.14557,223.853,408.03561Z" transform="translate(-186.61054 -393.12371)"/><path class="cls-23" d="M219.7051,396.43008c.20927,1.04859,1.51.73107,1.97627,1.63926-1.72014-.11806-3.348-.19574-4.0572-2.10843A3.58269,3.58269,0,0,1,219.7051,396.43008Z" transform="translate(-186.61054 -393.12371)"/><path class="cls-57" d="M232.58753,422.43453l-.30045-.00525c-.348-.55221-.67948-1.1158-1.05019-1.65233-.21925-.3173-.5075-.60979-.042-.92063.66447-.44369.46937.27841.633.49679a11.49851,11.49851,0,0,0,.80415,1.12743C232.99305,421.85605,232.85794,422.12927,232.58753,422.43453Z" transform="translate(-186.61054 -393.12371)"/><path class="cls-58" d="M223.82961,401.83537q-.26218,1.1504-.52417,2.301c-.14344.4694-.28708.93859-.47626,1.55654l-.181-.80255q.3264-1.805.65282-3.60991C223.824,401.13544,223.58592,401.71463,223.82961,401.83537Z" transform="translate(-186.61054 -393.12371)"/><path class="cls-59" d="M231.52516,415.15678c.2925,1.71238-1.075,1.88688-1.66109,2.62729C230.01288,416.72692,230.77861,416.11659,231.52516,415.15678Z" transform="translate(-186.61054 -393.12371)"/><path class="cls-60" d="M229.73624,413.66409l.55843-2.78323A1.99527,1.99527,0,0,1,229.73624,413.66409Z" transform="translate(-186.61054 -393.12371)"/><path class="cls-61" d="M223.82961,401.83537l-.5286-.5549a7.70034,7.70034,0,0,0,.25194-.7478c.2823-1.22362.69489-.71553,1.12168-.09153C224.21738,400.79958,223.74275,401.1475,223.82961,401.83537Z" transform="translate(-186.61054 -393.12371)"/><path class="cls-62" d="M228.00683,408.84762c-.17433-.92756.40724-1.54893.89537-2.20816C229.48134,407.731,228.3235,408.11894,228.00683,408.84762Z" transform="translate(-186.61054 -393.12371)"/><path class="cls-45" d="M237.09124,433.13047l-.09793.08589-.128-.02415a2.73978,2.73978,0,0,1,.70343-1.69764l.30165.15629Z" transform="translate(-186.61054 -393.12371)"/><path class="cls-30" d="M371.33124,412.26245c.44167.2896.76484.77134,1.34846.83079a1.08051,1.08051,0,0,1,1.30284.10779,18.9811,18.9811,0,0,1,6.57291,8.20228c.11714.28281.09172.29333-.25428.74977-2.33813-.959-4.74914-.69389-7.15186-.38818a1.26393,1.26393,0,0,0-1.23328,1.28069c.01319.74016.60717,1.1047,1.221,1.38055.20221.09087.48194.25544.615-.02791.4832-1.02938,1.36-.43091,2.0646-.53629,1.73527.935,3.59012,1.6199,5.30456,2.60924,1.31337.75789,2.46524,1.529,2.29573,3.2789a17.09808,17.09808,0,0,1-11.77668,17.75819,34.77461,34.77461,0,0,1-6.20667,1.71135c-3.19244.46277-6.3963.70576-9.53921-.36394a9.00144,9.00144,0,0,1-5.1406-3.046c0-.36563-.36565-.39157-.54735-.58841a3.032,3.032,0,0,1-.59767-1.68069,14.27758,14.27758,0,0,1-3.99607-8.42892,7.34228,7.34228,0,0,1-.00916-2.55667c.22272-1.62186.46076-3.24181.66335-4.86618a3.22929,3.22929,0,0,1,2.15647-2.69336,12.74483,12.74483,0,0,1,9.83462-.33841c.70539.275,1.38783.55691,1.70794-.38709.29995-.88458-.2555-1.40526-1.0297-1.70936a14.16131,14.16131,0,0,0-8.54987-.62324c-.67381.15565-1.34239.3339-2.15059.53607,3.32206-6.88,8.29907-11.38793,15.94391-12.49382.33044-.06293.88007-.2848.86407.1867-.01787.526-.66005.52256-1.09774.55026,1.11386.33359,2.30264-.62288,3.42587.13494a.332.332,0,0,1,.05535.25973c-.17292.49516-.62651,1.06993.19249,1.3709.87749.32248.72117-.59373,1.02478-.96155C369.76722,410.94527,370.53383,411.65945,371.33124,412.26245Z" transform="translate(-186.61054 -393.12371)"/><path class="cls-63" d="M380.30117,422.15308a11.74143,11.74143,0,0,0-2.92561-5.31153,17.12557,17.12557,0,0,0-3.44472-3.24769,2.5968,2.5968,0,0,0-1.2511-.50062c.67458-.25388.421-.92769.59407-1.56142,4.37692,2.73021,6.75741,6.80338,8.56491,11.39723Z" transform="translate(-186.61054 -393.12371)"/><path class="cls-64" d="M383.41687,429.75008c-.73786-3.17506-3.78614-3.4172-6.01446-4.672-.60747-.34208-1.3169-.46309-1.58581-1.21614,2.82016-.46609,4.986,1.04062,6.99193,2.60035C383.67405,427.1353,383.46826,428.59333,383.41687,429.75008Z" transform="translate(-186.61054 -393.12371)"/><path class="cls-65" d="M371.33124,412.26245c-.89427.00957-1.58991-.90167-2.55772-.55113a1.35316,1.35316,0,0,1-1.412-.60778c-.66459-.56023-1.31356.00729-1.97035.01752a4.08338,4.08338,0,0,1-2.12472-.22268c.45062-.57617,1.105-.46933,1.64548-.77071l-.73223-.14811c2.673-.80936,5.10352.22135,7.66249.96259C371.4708,411.36034,371.00256,411.68262,371.33124,412.26245Z" transform="translate(-186.61054 -393.12371)"/><path class="cls-66" d="M350.75371,445.80963c1.72413.99742,3.32241,2.207,5.14057,3.046-.32224.6219.6497.51479.53721,1.0865-2.20067-.80132-4.67882-1.00745-6.186-3.19222-.21987-.31868-.81865-.488-.51164-.97524C349.98771,445.37181,350.40107,445.903,350.75371,445.80963Z" transform="translate(-186.61054 -393.12371)"/><path class="cls-67" d="M345.60346,432.55494q.00461,1.27835.00916,2.55668c-.61954,1.13217.04475,2.16313.24063,3.23559.09619.52663.56951,1.002.16474,1.76422a14.20331,14.20331,0,0,1-.991-7.50018l.11534,2.0754C345.572,433.93134,345.05171,433.13513,345.60346,432.55494Z" transform="translate(-186.61054 -393.12371)"/><path class="cls-68" d="M349.60869,443.54053a1.92622,1.92622,0,0,1,.59766,1.68067c-.75753-.58827-1.53022-1.15854-2.26423-1.77481-.25017-.21-.68254-.50607-.23447-.88972.35544-.30435.5376.12137.79074.28918C348.86124,443.08639,348.93646,443.80079,349.60869,443.54053Z" transform="translate(-186.61054 -393.12371)"/><path class="cls-21" d="M210.052,414.26106c-7.56213,2.80507-12.82632,8.08611-16.39193,15.19735-.25575-1.79735,1.08514-2.94534,1.88275-4.24049a26.50978,26.50978,0,0,1,12.04464-10.77453,7.78849,7.78849,0,0,0,1.205-.71767C209.50474,413.24441,209.87975,413.50091,210.052,414.26106Z" transform="translate(-186.61054 -393.12371)"/><path class="cls-26" d="M193.13283,448.82987a14.15212,14.15212,0,0,0,3.05862.05451A2.99284,2.99284,0,0,1,193.13283,448.82987Z" transform="translate(-186.61054 -393.12371)"/><path class="cls-69" d="M236.20969,441.07737c.10051-.39363-.101-.86481.3034-1.18033-.03535,1.59444.27307,3.2238-.48324,4.74462Q236.12,442.85934,236.20969,441.07737Z" transform="translate(-186.61054 -393.12371)"/><path class="cls-70" d="M197.31826,444.96676v1.1947a8.67258,8.67258,0,0,1-.8548-7.66448l.28886-.2864q.018.28026.03618.56029C196.00839,440.91788,196.97148,442.916,197.31826,444.96676Z" transform="translate(-186.61054 -393.12371)"/><path class="cls-71" d="M290.11937,437.60065q1.15526.16944,2.3105.33889c.9605.14095,1.57246.53688,1.20644,1.648-.15829.952-.91918.984-1.61034.95271a8.0418,8.0418,0,0,1-3.62891-.90217c-1.685-1.12675-1.67915-1.23478-.76543-2.90341.52883-.96575.90643-2.01421,1.35209-3.02545a7.01842,7.01842,0,0,1,.62317-2.89945,6.50684,6.50684,0,0,0,.38483-3.54719c-.2124-.66909-.81973-.75769-1.37234-.92721a29.58538,29.58538,0,0,0-3.03213-.4876c-.54831-.17081-1.43282-.118-1.37149-.86828.06319-.77307.89743-.77427,1.567-.80584a14.49571,14.49571,0,0,1,4.56557.23082c1.97733.34822,2.82186,1.27062,3.12246,3.4065a18.68268,18.68268,0,0,1-1.326,5.22793C291.76192,434.68832,290.65492,436.01753,290.11937,437.60065Z" transform="translate(-186.61054 -393.12371)"/><path class="cls-72" d="M286.71281,445.00717c-.76161-.339-1.58222.00989-2.3452-.19114-.49214-.12966-1.17133-.1513-1.01869-.99366a1.06782,1.06782,0,0,1,1.2441-1.01075,15.47018,15.47018,0,0,0,7.46625-1.54443c.7667-.94115,1.67806-.44585,2.55851-.25738.82371.63152,1.00541,1.33972.22324,2.12931a1.22309,1.22309,0,0,0-.27715.883c-.17671.96112-.66866,1.26266-1.68389,1.07981-1.60017-.28818-3.20745.23231-4.82576.17237A3.18543,3.18543,0,0,1,286.71281,445.00717Z" transform="translate(-186.61054 -393.12371)"/><path class="cls-73" d="M293.73649,425.78807c1.17657-1.04977,4.56688-1.388,5.94333-.71085.965.47473.70021,1.11177.46885,1.8139-1.1782,1.08385-2.629.63684-3.98715.71162a3.33941,3.33941,0,0,1-2.01573-.41495C293.68411,426.84894,293.00387,426.505,293.73649,425.78807Z" transform="translate(-186.61054 -393.12371)"/><path class="cls-5" d="M292.09154,445.48073c.4621.23126.95714.43356.82308,1.11125a1.22039,1.22039,0,0,1-1.05046.97021,9.82617,9.82617,0,0,1-4.5745.00569c-.504-.11752-1.0627-.22355-1.17176-.81876-.1193-.65109.29344-1.03478.87291-1.25336C288.69012,445.17353,290.3893,444.809,292.09154,445.48073Z" transform="translate(-186.61054 -393.12371)"/><path class="cls-74" d="M294.854,433.38555c-1.13725-.17051-1.11616-1.16087-1.38086-1.94894-.38458-1.47152.72686-2.51169,1.13372-3.74861.17047-.51829.89018-.34029,1.39641-.29708,1.1242.86377,1.27474,1.72045.61379,3.49139l-.05535,1.06882A2.37445,2.37445,0,0,1,294.854,433.38555Z" transform="translate(-186.61054 -393.12371)"/><path class="cls-5" d="M288.39274,433.0544c-1.27729.40823-1.26358-.84443-1.66861-1.40988-.81216-1.13384.13991-3.62,1.39485-3.942a.97328.97328,0,0,1,1.34642.83644C289.63566,430.14251,289.64792,431.76481,288.39274,433.0544Z" transform="translate(-186.61054 -393.12371)"/><path class="cls-75" d="M289.86261,422.61419c.07181-.781.16871-1.56079.20778-2.34344.03318-.665.06364-1.371.7645-1.63489a1.47218,1.47218,0,0,1,1.77758.69,2.465,2.465,0,0,1,.32552,2.15212c-.51641,2.02707-.55529,2.06534-2.10545,2.07644A1.09,1.09,0,0,1,289.86261,422.61419Z" transform="translate(-186.61054 -393.12371)"/><path class="cls-43" d="M292.65256,421.58111l-.0401-2.25522a1.03609,1.03609,0,0,1,.85444,1.3678c-.536,1.74529-.03453,3.40891.26959,5.09439-.0071,1.71,1.333,1.25188,2.285,1.41825a.215.215,0,0,1,.06395.22513q-.03967.10854-.07629.10856c-.82944-.168-1.27591.05336-1.40354,1.00624-.1377,1.028-.98887,1.83026-1.13246,2.89033q-.1224.00442-.2449.00408a1.06993,1.06993,0,0,1-.19395-1.26433,5.18791,5.18791,0,0,0,.16773-2.41087,4.25993,4.25993,0,0,0-2.85366-3.361l.65657-.03075c1.5852-.19425,1.58065-.19407,1.515-1.88431C292.508,422.18347,292.4024,421.85315,292.65256,421.58111Z" transform="translate(-186.61054 -393.12371)"/><path class="cls-76" d="M288.39274,433.0544a12.7,12.7,0,0,0,.87013-3.44684,1.46575,1.46575,0,0,0-1.14387-1.905c.26819-.74723-.36081-.42758-.62518-.509-.5627-.17322-1.13558-.3134-1.72229-.472.20184-.60777.73889-.1826.97076-.50056-.33459-.27495-.85972.02152-1.155-.37328a7.25559,7.25559,0,0,1,3.36815.25355c.01833.2868-.33591.68811.31218.769a4.00589,4.00589,0,0,1,1.09864.07168,6.68741,6.68741,0,0,1-.31873,3.94206c-.28624.962-.70435,1.88488-1.06377,2.82519-.118-.07424.02555-.42877-.24173-.28955-.16172.08423-.26685.48068-.45614.34373C288.017,433.56886,288.37533,433.30241,288.39274,433.0544Z" transform="translate(-186.61054 -393.12371)"/><path class="cls-77" d="M296.58487,436.06675a1.40162,1.40162,0,0,1,1.006.51577c.51439.6608,1.06324,1.29871,1.52955,1.992.53126.7898.1597,1.57361-.70728,1.60444a3.48431,3.48431,0,0,1-2.92071-2.77378A1.19643,1.19643,0,0,1,296.58487,436.06675Z" transform="translate(-186.61054 -393.12371)"/><path class="cls-4" d="M285.50054,437.18406a3.24554,3.24554,0,0,1-1.51188,2.57139c-.53064.40619-1.05615.13242-1.52805-.2292-.55271-.42352-.19523-.81537.02777-1.216a18.17066,18.17066,0,0,1,.96133-1.69709,1.03955,1.03955,0,0,1,1.33147-.44623C285.20916,436.35936,285.64752,436.58534,285.50054,437.18406Z" transform="translate(-186.61054 -393.12371)"/><path class="cls-64" d="M294.61778,441.00981a5.94967,5.94967,0,0,0-2.55849.25737c-.74213-.426-1.598.17947-2.37214-.30858-.55616-.35064-1.19138-.551-1.29007-1.32054a10.51774,10.51774,0,0,1,2.89324.43832,2.46789,2.46789,0,0,0,2.34592-.48882c.41812-.01374.8842.199.61819.58137C293.81215,440.8047,294.59219,440.7041,294.61778,441.00981Z" transform="translate(-186.61054 -393.12371)"/><path class="cls-15" d="M296.00916,427.54l.01237-.33368a28.763,28.763,0,0,0,4.1271-.31519c.81858.38946.72934.76265-.0419,1.071a3.85554,3.85554,0,0,1-.94762.20684c-1.25063.15669-2.4814.28814-1.91084,2.12151.08791.28249-.22733.5943-.63119.59181C296.72489,429.71181,297.11772,428.48952,296.00916,427.54Z" transform="translate(-186.61054 -393.12371)"/><path class="cls-78" d="M292.09154,445.48073a25.85722,25.85722,0,0,1-5.10073.015l-.278-.48858c2.19115-.15139,4.373-.5712,6.58186-.111.634.13208.98709-.37451,1.26915-.874.09075,1.74963-.138,1.91237-1.84143,1.31039A.54414.54414,0,0,0,292.09154,445.48073Z" transform="translate(-186.61054 -393.12371)"/><path class="cls-15" d="M290.11937,437.60065c-.48055-.11764-.21268-.37162-.10877-.59592q.897-1.93642,1.79394-3.87291c.23834-.2269.45563-.51751.84745-.27951-.39634,1.31873-.79557,2.63662-1.18786,3.95657C291.26008,437.49539,290.50257,437.22706,290.11937,437.60065Z" transform="translate(-186.61054 -393.12371)"/><path class="cls-79" d="M292.652,432.85231l-.84745.27948a41.80007,41.80007,0,0,0,1.3975-5.36625c.66225.66062.43279,1.43927.2582,2.18944a3.44819,3.44819,0,0,0-.23206,1.48568Q292.94016,432.1465,292.652,432.85231Z" transform="translate(-186.61054 -393.12371)"/><path class="cls-80" d="M292.65256,421.58111c.04723.3615.07512.72683.14588,1.08367.132.66571.44207,1.386-.14163,1.93877-.57118.54088-1.08123-.25389-1.6521-.22981q-.15839-.27209-.31725-.54407c.17435-.24612.48141-.0448.70013-.204.169-.01753-.13-.22651-.029-.06806.08432.13224.06766.15235-.06466.11956-.25744-.06379-.6718.14724-.641-.38888C292.15587,423.69787,292.35347,422.58011,292.65256,421.58111Z" transform="translate(-186.61054 -393.12371)"/><path class="cls-43" d="M290.65295,423.28834c.14605.39849.53882.26408.97419.436l-.93974.10532c-.53769-.09625-1.07274-.21416-1.61409-.28142-.38491-.04782-.73684-.11022-.87273-.52935a.56932.56932,0,0,1,.261-.71289c.40129-.2313.69672.05.97167.28075.15795.13254.27008.2415.4294.02746Z" transform="translate(-186.61054 -393.12371)"/><path class="cls-81" d="M294.854,433.38555c.39491-.68545,1.19317-.89119,1.7077-1.43439.1864.77547-.69621,2.20952-1.41908,2.2515C294.18137,434.2585,295.24984,433.55515,294.854,433.38555Z" transform="translate(-186.61054 -393.12371)"/><path class="cls-75" d="M369.05356,437.04039c-2.44967,1.07182-5.73409.9824-7.11484-.53954-.8257-.91009-1.516-1.94509-1.09347-3.122a4.79561,4.79561,0,0,1,3.06174-2.702.8539.8539,0,0,1,.97492.39369.82617.82617,0,0,1,.00862,1.0269,6.0988,6.0988,0,0,1-1.40506,1.354c-.97679.91032-.84817,1.501.42632,1.98028a3.22854,3.22854,0,0,0,1.92994.16816,9.56765,9.56765,0,0,1,2.36917-.21228C368.65556,435.85513,369.1674,436.28843,369.05356,437.04039Z" transform="translate(-186.61054 -393.12371)"/><path class="cls-82" d="M361.43993,442.438c-.95962-.19972-2.37762-.24471-2.14987-1.51878.23511-1.315,1.55235-.61171,2.38442-.44426a32.35441,32.35441,0,0,0,6.95311.83718c.73932-.01259,1.79177-.20514,1.83759.96849.04461,1.14239-1.04683.79128-1.68573,1.01816-1.82954.87724-3.64783.11316-5.46092-.07469A2.47223,2.47223,0,0,1,361.43993,442.438Z" transform="translate(-186.61054 -393.12371)"/><path class="cls-83" d="M369.05356,437.04039a3.44018,3.44018,0,0,1-.84266-1.65277c1.30189-.64567.61641-1.61863.42812-2.52144-.1066-.51115-.76992-1.11179.20908-1.49154.85909-.33325,1.2864.07132,1.61766.81605.89955,2.02216.67278,3.82094-.63431,4.69515A.76892.76892,0,0,1,369.05356,437.04039Z" transform="translate(-186.61054 -393.12371)"/><path class="cls-77" d="M376.32226,430.44892a5.87821,5.87821,0,0,1-.68522,2.53993c-.26218.562-.64054,1.01626-1.29563.71816a1.10949,1.10949,0,0,1-.59077-1.514,5.32516,5.32516,0,0,0,.39766-2.612.93782.93782,0,0,1,.81352-1.10113.99787.99787,0,0,1,1.06813.73909A11.85565,11.85565,0,0,1,376.32226,430.44892Z" transform="translate(-186.61054 -393.12371)"/><path class="cls-7" d="M354.7246,432.486a2.85736,2.85736,0,0,1,1.96013-2.95564.97041.97041,0,0,1,1.26,1.30875c-.34611,1.14618-1.38578,1.77367-1.97995,2.73121-.16409.26442-.44217.261-.74905.15746C354.47717,433.47851,354.96111,432.811,354.7246,432.486Z" transform="translate(-186.61054 -393.12371)"/><path class="cls-84" d="M361.43993,442.438a37.87123,37.87123,0,0,0,7.33952.86079c.00586.47181-.12.78608-.691.82113a18.28692,18.28692,0,0,1-6.4395-.75942C361.06046,443.18346,360.87134,442.8898,361.43993,442.438Z" transform="translate(-186.61054 -393.12371)"/><path class="cls-11" d="M370.00193,420.16171a1.99582,1.99582,0,0,1-1.431-1.53685c-.08593-.52641.53258-.68875.88816-.64206a1.3586,1.3586,0,0,1,1.312,1.34885A.75645.75645,0,0,1,370.00193,420.16171Z" transform="translate(-186.61054 -393.12371)"/><path class="cls-85" d="M367.36148,411.10354a2.24665,2.24665,0,0,1,1.412.60778c.06795.56033.15972,1.24057-.54717,1.3568a1.5755,1.5755,0,0,1-1.56054-.9304C366.26474,411.41878,367.08351,411.42178,367.36148,411.10354Z" transform="translate(-186.61054 -393.12371)"/><path class="cls-86" d="M372.46556,416.05567c-.01318.606-.28718,1.02319-.80709.99973a1.45851,1.45851,0,0,1-1.3821-1.14476c-.13856-.61727.5512-.75251.92083-.75983C371.781,415.13925,372.3919,415.34633,372.46556,416.05567Z" transform="translate(-186.61054 -393.12371)"/><path class="cls-13" d="M365.61861,418.729c.61465.00825,1.10309.19193,1.19212.89547.07349.58055-.32236,1.02114-.76288.93291a1.436,1.436,0,0,1-1.25429-1.13989C364.72826,418.87986,365.13541,418.7165,365.61861,418.729Z" transform="translate(-186.61054 -393.12371)"/><path class="cls-87" d="M366.70722,417.14648c-.50721-.28032-1.173-.48989-1.216-1.16291-.03064-.47975.46884-.6323.91165-.61149.55817.02623.97882.25431,1.01861.88881A.8083.8083,0,0,1,366.70722,417.14648Z" transform="translate(-186.61054 -393.12371)"/><path class="cls-88" d="M362.814,418.60691c-.19405.36429-.23882.84812-.73754.74036-.44174-.09545-.96666-.23765-1.06113-.76215-.08874-.49278.42021-.58461.73861-.63135A1.05517,1.05517,0,0,1,362.814,418.60691Z" transform="translate(-186.61054 -393.12371)"/><path class="cls-89" d="M362.78474,411.43811c.76144-.07839,1.03051.25622,1.09934.67394.04649.28224-.08778.73258-.48659.65653-.4247-.081-.93347-.27885-1.00036-.795A.516.516,0,0,1,362.78474,411.43811Z" transform="translate(-186.61054 -393.12371)"/><path class="cls-90" d="M363.13664,415.40692c-.0669.43068-.33047.61252-.68529.48558-.31959-.11434-.75674-.21584-.71952-.70271a.61722.61722,0,0,1,.65052-.58866C362.8724,414.61347,363.05139,415.003,363.13664,415.40692Z" transform="translate(-186.61054 -393.12371)"/><path class="cls-91" d="M290.36622,426.94192c-.63883.87365-1.302.37262-1.82-.074-.70384-.60681.47993-.38964.40923-.76666C289.53574,426.197,290.12033,426.28553,290.36622,426.94192Z" transform="translate(-186.61054 -393.12371)"/></svg>