<svg id="图层_1" data-name="图层 1" xmlns="http://www.w3.org/2000/svg" viewBox="0 0 192.09242 79.18832"><defs><style>.cls-1{fill:#fff;}</style></defs><path class="cls-1" d="M222.9113,432.6785l-.74548-5.16792c-7.07772.26392-11.5723-3.4298-14.90317-8.80212-4.50218-7.26153-6.09867-14.83022-2.035-22.94979,3.74778-7.48839,12.58245-9.19941,18.67964-8.13707,2.88052.50188,5.59651,1.88293,8.45343,2.60182,3.59491.9046,3.65482,4.50586,5.42615,6.773,3.047,3.89983,4.16427,8.669,5.08966,13.43873,1.085,5.5926-2.16231,10.88262-8.348,13.42948a27.80733,27.80733,0,0,1-6.41117,1.96128c-2.47213.364-2.91216,1.55275-2.3848,3.6611.21183.84686.28414,1.72863.42513,2.62756,4.724,0,9.27918.02692,13.83377-.01466,1.58628-.01448,2.62387.4072,2.53111,2.59836l-15.45479.95191c0,5.825-.15142,11.27314.07467,16.70554.09019,2.16692,1.12582,4.28029,1.49376,6.45813.11721.69373-.5311,1.51679-.82912,2.28068-.51788-.5448-1.40826-1.03635-1.495-1.64279q-1.0842-7.584-1.90284-15.20548c-.86772-8.11244-.82874-8.109-9.01261-7.94029-2.51568.05185-5.0404.1701-7.5444.00555-.85887-.05644-1.66717-.88249-2.49857-1.35695.77994-.49109,1.53577-1.35885,2.34384-1.41057,4.39328-.2812,8.79973-.35368,13.2008-.52017A18.29918,18.29918,0,0,0,222.9113,432.6785Zm-3.03936-42.32728c-7.51869.88494-10.80845,3.22424-13.07414,9.71073-2.49681,7.14817,1.59363,18.61735,8.21351,22.19193a11.88614,11.88614,0,0,0,6.57889,1.50189,51.26578,51.26578,0,0,0,10.64935-2.731c3.79184-1.31739,7.2834-3.747,7.47037-7.96164a20.01809,20.01809,0,0,0-2.26033-10.33762,33.71312,33.71312,0,0,0-8.69108-9.88167C226.4825,391.11148,222.88035,391.12137,219.87194,390.35122Z" transform="translate(-202.89175 -381.90618)"/><path class="cls-1" d="M300.09545,403.89564l12.99976-17.28373c-1.70837.67534-2.81852,1.04667-3.86873,1.54444-1.78188.84456-3.48308,1.87667-5.30849,2.60306a2.57449,2.57449,0,0,1-2.3195-.26116,15.40838,15.40838,0,0,1-1.54067-3.47295l3.55319-.27689-.5945-1.61294c3.82168-1.06562,7.61494-2.48453,11.53465-3.106,3.3509-.53133,5.16034.64384,5.57087,3.74865.40621,3.07213,1.666,6.02172,2.33084,9.07311a18.04185,18.04185,0,0,1,.33545,5.26589c-.06113.73683-1.07494,1.39462-1.65576,2.08834-.56312-.70895-1.4557-1.34431-1.63326-2.13936-.84152-3.76818-1.48793-7.57994-2.20384-11.37617l-1.12022-.18807-12.32287,18.9244a37.96289,37.96289,0,0,0,3.1424,3.35153c3.09288,2.60055,2.87985,5.95032,2.344,9.41016a1.31771,1.31771,0,0,1-.28947.737c-3.63863,3.32464-7.18,6.76922-10.97852,9.90161-3.90643,3.2214-9.02927,2.55868-13.59261,3.69489a10.55494,10.55494,0,0,1-3.16291.56051c-1.26368-.0906-2.96055-.18883-3.67246-.99132-7.20453-8.12122-8.50028-15.53991.25108-26.299C282.88206,401.659,293.212,399.90133,300.09545,403.89564Zm-25.09952,18.635c.50537,4.99963.711,6.77244,6.30558,8.416,1.93792.56932,4.18661.185,6.28581.082,7.07329-.34691,11.71766-3.80733,15.25315-10.10826,3.98321-7.09887-1.0932-13.0487-6.36237-14.82792C283.75923,401.79776,275.27044,413.765,274.99593,422.53066Z" transform="translate(-202.89175 -381.90618)"/><path class="cls-1" d="M358.67084,434.30807c-6.29144-.80321-10.13974-3.89248-12.02969-9.53945a3.69122,3.69122,0,0,0-2.83081-1.72664,49.41338,49.41338,0,0,0-5.874.61276,5.08258,5.08258,0,0,1-3.13661-.76542c3.77885-1.98455,7.59141-3.29392,11.86115-2.12643a16.60007,16.60007,0,0,1,.47177-9.84669c1.14179-3.53394,3.29324-6.13142,7.00643-7.20262,1.20346-.34718,2.39288-1.14042,3.57007-1.10527,3.27083.09768,3.25238-1.86927,3.14006-4.20877-.1507-3.13873-.21472-6.28717-.13908-9.42718.01806-.74973.73625-1.4826,1.13244-2.22322.56125.647,1.57166,1.26867,1.60976,1.94512.22219,3.94459.27865,7.90233.25931,11.855-.00874,1.78408.32956,2.11306,2.31327,1.90246,3.45578-.3669,6.93557.42862,8.93271,3.702,1.84176,3.01875,3.23655,6.30727,4.96173,9.40255a2.637,2.637,0,0,0,1.95569,1.275,53.83354,53.83354,0,0,0,6.79085-1.3099c2.156-.53386,4.26219-1.20267,6.31832,1.35418-4.44957.96679-8.87731,2.06346-13.36275,2.81657-1.25.20987-2.04369.31342-2.67027,1.53438-3.35389,6.53547-8.13725,11.32281-15.7091,12.75649-.62355.11807-1.396,1.48658-1.43146,2.30311-.1208,2.77863.07168,5.57007.11321,8.35708a5.42518,5.42518,0,0,1-.18991,2.38938c-.33432.66043-1.18413,1.0599-1.808,1.57378-.41835-.6499-1.18036-1.29019-1.19882-1.95125C358.61449,442.624,358.67084,438.58828,358.67084,434.30807Zm-9.96814-15.18348c.17474,6.90447,2.81892,11.07416,8.197,12.11333,9.18551,1.77488,16.60037-4.28239,19.4934-12.40251a4.99615,4.99615,0,0,0-.01587-3.41934,88.754,88.754,0,0,0-4.54837-8.44545,3.27636,3.27636,0,0,0-2.14119-1.38523c-2.72479-.31283-5.5123-.16473-8.21144-.59581-4.31107-.68851-10.4216,2.21034-11.374,6.74976C349.5879,414.19105,349.16621,416.66221,348.7027,419.12459Z" transform="translate(-202.89175 -381.90618)"/></svg>