<svg id="图层_1" data-name="图层 1" xmlns="http://www.w3.org/2000/svg" viewBox="0 0 139.73877 59.6958"><defs><style>.cls-1{fill:#fff;}</style></defs><path class="cls-1" d="M254.72471,449.944a67.22585,67.22585,0,0,1-4.43994-6.8999,106.61358,106.61358,0,0,1-4.85987-10.37988h-5.16015V449.944H228.20469V402.24381h20.46a22.89741,22.89741,0,0,1,5.40039.78027,17.30966,17.30966,0,0,1,5.93994,3.12012,14.46385,14.46385,0,0,1,3.23975,19.02,16.79143,16.79143,0,0,1-6.41992,5.75976q2.52025,4.68018,5.46,9.06006,3.42041,5.10059,7.14013,9.96Zm-14.46-25.91992h6.12012a7.60382,7.60382,0,0,0,5.10009-1.74023,5.85141,5.85141,0,0,0,1.98-4.37989,5.64415,5.64415,0,0,0-2.10009-4.31982,8.106,8.106,0,0,0-4.91993-1.74024h-6.18017Z" transform="translate(-228.20469 -391.4484)"/><path class="cls-1" d="M295.82432,413.76383a17.08124,17.08124,0,0,1,6.24023,3.72021,17.66128,17.66128,0,0,1,3.96,6.23975,24.69881,24.69881,0,0,1,0,16.62011,17.06647,17.06647,0,0,1-3.96,6.18018,16.0535,16.0535,0,0,1-6.24023,3.71973,20.24144,20.24144,0,0,1-11.93994,0,16.56242,16.56242,0,0,1-6.29981-3.71973,17.041,17.041,0,0,1-3.96-6.18018,25.70383,25.70383,0,0,1,0-16.62011,15.72862,15.72862,0,0,1,10.25977-9.96,20.25176,20.25176,0,0,1,11.93994,0Zm-3.54,27.06a7.44087,7.44087,0,0,0,1.91992-2.10009,11.995,11.995,0,0,0,1.2002-3.35987,18.64036,18.64036,0,0,0,0-6.65966,12.0092,12.0092,0,0,0-1.2002-3.36036,7.46728,7.46728,0,0,0-1.91992-2.10009,4.87779,4.87779,0,0,0-2.3999-.77979,4.719,4.719,0,0,0-2.46.77979,7.08818,7.08818,0,0,0-1.98,2.10009,12.00889,12.00889,0,0,0-1.2002,3.36036,23.29048,23.29048,0,0,0-.23975,3.2998,23.69373,23.69373,0,0,0,.23975,3.35986,11.99469,11.99469,0,0,0,1.2002,3.35987,6.21944,6.21944,0,0,0,1.98,2.10009,4.33269,4.33269,0,0,0,2.46.72022A4.42545,4.42545,0,0,0,292.28428,440.82388Z" transform="translate(-228.20469 -391.4484)"/><path class="cls-1" d="M331.58408,450.424a36.93238,36.93238,0,0,1-7.25976.72022,15.62886,15.62886,0,0,1-5.46-1.08008,11.01508,11.01508,0,0,1-3.96-3.06006,13.03673,13.03673,0,0,1-2.22022-4.98,21.13354,21.13354,0,0,1-.48-5.04V401.0441h11.76025v33.17969a19.30367,19.30367,0,0,0,.23975,4.32031,3.3445,3.3445,0,0,0,1.2002,2.04,4.322,4.322,0,0,0,2.10009.8999,11.96138,11.96138,0,0,0,2.94.12012Z" transform="translate(-228.20469 -391.4484)"/><path class="cls-1" d="M345.56358,435.06412a7.19205,7.19205,0,0,0,2.58007,4.62012,9.0879,9.0879,0,0,0,2.75977,1.43994,11.21712,11.21712,0,0,0,3.48.41992,17.35058,17.35058,0,0,0,4.74023-.66016,24.00966,24.00966,0,0,0,4.61963-1.7998l2.58008,7.91992a21.65342,21.65342,0,0,1-6.71972,3.18018,28.10425,28.10425,0,0,1-7.26026.96,21.91955,21.91955,0,0,1-8.04-1.5,17.92349,17.92349,0,0,1-6.06006-4.26026,18.19178,18.19178,0,0,1-3.59961-6.77978,26.1661,26.1661,0,0,1-.84033-6.6001,25.4283,25.4283,0,0,1,1.32031-8.46,17.05738,17.05738,0,0,1,3.96-6.18018,16.23083,16.23083,0,0,1,6.35986-3.60009,24.5804,24.5804,0,0,1,6.18017-.89991,20.80281,20.80281,0,0,1,5.63965.89991,14.36224,14.36224,0,0,1,5.76026,3.54,17.1223,17.1223,0,0,1,3.66015,6.06006,26.5656,26.5656,0,0,1,1.25977,8.1001q0,1.86036-.12012,3.6001Zm11.27978-6.84033a6.70209,6.70209,0,0,0-1.56006-4.01953,5.43681,5.43681,0,0,0-3.8999-1.74024,6.061,6.061,0,0,0-4.02,1.74024,6.59969,6.59969,0,0,0-1.85986,4.01953Z" transform="translate(-228.20469 -391.4484)"/><rect class="cls-1" x="284.7914" y="388.07128" width="7.99943" height="25.94661" transform="translate(-428.91179 77.62977) rotate(-62.15508)"/></svg>