<svg id="图层_1" data-name="图层 1" xmlns="http://www.w3.org/2000/svg" viewBox="0 0 132 60"><defs><style>.cls-1{fill:#fff;}</style></defs><g id="编组"><path id="形状" class="cls-1" d="M232.07407,401.7037h19.007a32.22075,32.22075,0,0,1,6.99942.90184,17.0774,17.0774,0,0,1,6.577,3.48712,15.46094,15.46094,0,0,1,3.74107,5.47117,19.75568,19.75568,0,0,1,1.2068,6.49325,19.49652,19.49652,0,0,1-1.38782,7.27485,13.71344,13.71344,0,0,1-4.4048,5.53128,21.31056,21.31056,0,0,1-3.49971,1.98405A28.5704,28.5704,0,0,1,255.848,434.17a48.9813,48.9813,0,0,1-8.68893.7816h-3.017v14.54969h-12.068Zm17.19684,23.62823a13.21567,13.21567,0,0,0,3.31869-.42086,7.85126,7.85126,0,0,0,2.71529-1.50307,6.39294,6.39294,0,0,0,2.23257-4.99018,7.05857,7.05857,0,0,0-1.93087-4.93007,7.61277,7.61277,0,0,0-2.47393-1.56319,11.00263,11.00263,0,0,0-3.198-.60122H244.142v14.00859Z" transform="translate(-232.07407 -390.7037)"/><path id="形状-2" data-name="形状" class="cls-1" d="M282.63881,434.59082a7.20318,7.20318,0,0,0,2.59461,4.62945,9.16046,9.16046,0,0,0,2.77563,1.44294,11.33,11.33,0,0,0,3.49971.42086,17.53927,17.53927,0,0,0,4.76684-.66135,24.2325,24.2325,0,0,0,4.64616-1.80368l2.59461,7.9362a21.789,21.789,0,0,1-6.758,3.1865,28.31824,28.31824,0,0,1-7.30112.962,22.09628,22.09628,0,0,1-8.08553-1.50306,18.01417,18.01417,0,0,1-6.09431-4.26871,18.21255,18.21255,0,0,1-3.62039-6.79387,26.15729,26.15729,0,0,1-.84476-6.6135,25.42054,25.42054,0,0,1,1.32748-8.4773,17.095,17.095,0,0,1,3.98242-6.19264,16.33576,16.33576,0,0,1,6.396-3.60736,24.76478,24.76478,0,0,1,6.215-.90184,20.95256,20.95256,0,0,1,5.67194.90184,14.43879,14.43879,0,0,1,5.79263,3.54724,17.12038,17.12038,0,0,1,3.68072,6.07239,26.52519,26.52519,0,0,1,1.26714,8.11657q0,1.86381-.12069,3.60736Zm11.34388-6.854a6.69811,6.69811,0,0,0-1.56884-4.02822,5.4737,5.4737,0,0,0-3.92209-1.74356,6.10421,6.10421,0,0,0-4.04276,1.74356,6.60785,6.60785,0,0,0-1.87053,4.02822Z" transform="translate(-232.07407 -390.7037)"/><path id="路径" class="cls-1" d="M320.29083,450.04235a10.81319,10.81319,0,0,1-4.40481-2.76564,11.30377,11.30377,0,0,1-2.59461-4.44908,19.462,19.462,0,0,1-.78441-5.892V421.96505h-4.52549v-8.41717h5.24956v-7.3951H324.3336v7.3951h8.2062v8.41717h-8.2062v13.227a11.35247,11.35247,0,0,0,.24135,2.88589,4.50914,4.50914,0,0,0,.78442,1.8638,3.44078,3.44078,0,0,0,1.62917,1.08221,7.99444,7.99444,0,0,0,2.4136.36073,17.91386,17.91386,0,0,0,4.34446-.5411l1.32747,8.4773a46.585,46.585,0,0,1-10.19742,1.38282A19.48562,19.48562,0,0,1,320.29083,450.04235Z" transform="translate(-232.07407 -390.7037)"/><path id="路径-2" data-name="路径" class="cls-1" d="M350.78,416.26005a10.87351,10.87351,0,0,0,2.93647,1.27729,35.86077,35.86077,0,0,1,4.994,2.07811,11.64812,11.64812,0,0,1,3.20615,2.45319,9.38229,9.38229,0,0,1,2.15741,6.07216,12.76743,12.76743,0,0,1-.94886,4.582,10.32905,10.32905,0,0,1-2.78666,3.41622,13.1259,13.1259,0,0,1-4.46463,2.02742,23.5744,23.5744,0,0,1-4.46465.53727,24.53877,24.53877,0,0,1-12.3352-3.4669l2.67679-6.66011a22.35487,22.35487,0,0,0,4.46465,1.65236,15.676,15.676,0,0,0,3.62565.53726,6.44974,6.44974,0,0,0,3.09628-.53726,1.70677,1.70677,0,0,0,.94886-1.49016,1.98812,1.98812,0,0,0-.88893-1.49016,13.57284,13.57284,0,0,0-3.2561-1.49017,25.03582,25.03582,0,0,1-4.46464-1.81455,14.02166,14.02166,0,0,1-3.356-2.50387,8.76518,8.76518,0,0,1-2.36715-6.18366,11.83071,11.83071,0,0,1,.839-4.36912,10.24423,10.24423,0,0,1,2.62685-3.4669,11.41216,11.41216,0,0,1,4.46464-2.1288,23.41493,23.41493,0,0,1,4.67439-.588,24.5213,24.5213,0,0,1,10.55734,2.71676l-2.517,6.71079a18.11334,18.11334,0,0,0-6.51218-1.54084,7.14981,7.14981,0,0,0-2.72673.53727,1.72411,1.72411,0,0,0-.17978,3.13237Z" transform="translate(-232.07407 -390.7037)"/><polygon id="矩形" class="cls-1" points="43.492 7.548 47.479 0 71.956 12.93 67.968 20.479 43.492 7.548"/></g></svg>