<svg id="图层_1" data-name="图层 1" xmlns="http://www.w3.org/2000/svg" viewBox="0 0 347.98893 82.62271"><defs><style>.cls-1{fill:#fefefe;}.cls-2{fill:#fdfdfe;}.cls-3{fill:#fdfdfd;}.cls-4{fill:#fcfcfc;}.cls-5{fill:#fafbfb;}.cls-6{fill:#f5f5f5;}.cls-7{fill:#313232;}.cls-8{fill:#323332;}.cls-9{fill:#504f4f;}.cls-10{fill:#eeeded;}.cls-11{fill:#4b4a4a;}.cls-12{fill:#181918;}.cls-13{fill:#f2f2f2;}.cls-14{fill:#4f4e4d;}.cls-15{fill:#555453;}.cls-16{fill:#d5d5d4;}.cls-17{fill:#d9d8d8;}.cls-18{fill:#e3e1e1;}.cls-19{fill:#b9b8b8;}.cls-20{fill:#050202;}.cls-21{fill:#080808;}.cls-22{fill:#060303;}.cls-23{fill:#060404;}.cls-24{fill:#0b0c0b;}.cls-25{fill:#0c0c0c;}.cls-26{fill:#090909;}.cls-27{fill:#474545;}.cls-28{fill:#494848;}.cls-29{fill:#2a2a2a;}.cls-30{fill:#a09f9f;}.cls-31{fill:#515050;}.cls-32{fill:#454545;}.cls-33{fill:#4f4e4f;}.cls-34{fill:#4f4e4e;}.cls-35{fill:#c5c4c4;}.cls-36{fill:#91908f;}.cls-37{fill:#747271;}.cls-38{fill:#575555;}.cls-39{fill:#070606;}.cls-40{fill:#676564;}.cls-41{fill:#3b3a3a;}.cls-42{fill:#373838;}.cls-43{fill:#7c7a7a;}.cls-44{fill:#656463;}.cls-45{fill:#050101;}.cls-46{fill:#101212;}.cls-47{fill:#4d4b4b;}.cls-48{fill:#424141;}.cls-49{fill:#2b2c2c;}.cls-50{fill:#3d3b3a;}.cls-51{fill:#282828;}.cls-52{fill:#141515;}.cls-53{fill:#eae9e9;}.cls-54{fill:#fbfbfb;}.cls-55{fill:#ededed;}.cls-56{fill:#333;}</style></defs><path class="cls-1" d="M375.90167,415.24155c1.84323-.26252,3.26584-.68651,2.80378-3.19881a3.64907,3.64907,0,0,1,1.85166-3.42093c5.0777-3.31525,9.40385-7.58657,14.31415-11.10882.43185-.16689.57475.10407.67348.44247-1.66645,2.65908-4.46893,4.13533-6.60931,6.30632-.979.993-2.21991,1.72264-3.38421,2.89024,1.567.81268,3.01529,1.23,4.2814,2.02526,1.28425.80664,1.5289-.43924,1.884-1.17315a87.44966,87.44966,0,0,1,7.28127-12.69153,1.36735,1.36735,0,0,0,.24922-1.02866,6.97864,6.97864,0,0,1,1.02982-.85518c.49107-.27436.85472-.86425,1.54579-.70464-.30407.76568.66788,1.44206-.03827,2.34241-4.0813,5.20374-6.55834,11.35472-9.8991,16.99928a3.52667,3.52667,0,0,0-.52773,1.22863,5.42289,5.42289,0,0,1-3.37643,4.49839c-5.06524,1.725-5.84546,6.616-8.78317,10.462a22.97,22.97,0,0,0,8.94966-2.80422,116.36566,116.36566,0,0,0,29.65459-20.79884c2.08753-1.99192,3.61088-2.08584,6.09867-1.79976,9.4059,1.08165,18.42885-.76459,27.12248-4.33788a25.398,25.398,0,0,0,3.266-1.97992c.40552-.24475.94554-.41746,1.19573.052.13451.25241-.08411.82718-.31824,1.11395a10.39582,10.39582,0,0,1-1.74351,1.75138c-2.77618,2.09109-3.23757,5.00011-2.58737,8.07.27045,1.277-.19889,1.41909-1.04821,1.6476-3.15257.84821-4.92581,3.28639-6.653,5.77215a2.49218,2.49218,0,0,0-.0075,2.38366,25.06791,25.06791,0,0,0,1.47554,3.52638,1.48779,1.48779,0,0,1-.41,1.9863c-.63067.48193-1.0348-.35991-1.38505-.7726-3.19643-3.7663-15.335-4.55787-18.67395-.45954-.5707.70051-1.70233,1.14985-.81352,2.42675.34449.49491-.15979,1.09328-.727,1.09373-1.6587.00133-1.6925,1.24447-1.54991,2.23643.10549.73411-.00014,1.21284-.51621,1.52863-.53327.32634-.9894-.12386-1.368-.48269-2.54192-2.40914-5.66849-2.96216-9.00925-2.88193-3.13222.07523-4.54172,1.18083-5.2767,4.19056-.622,2.547-.66492,2.62891-3.034,1.38846-3.40749-1.78412-6.83949-1.54-10.32029-.39253a5.07826,5.07826,0,0,0-3.23721,2.97409c-.34458.88218-.96044,1.255-1.84991,1.80081,7.57977,3.25565,15.05223-.44935,22.97544-.04786-1.56478,1.66171-3.46511.8-4.5456,1.9769a1.96059,1.96059,0,0,1-1.41208.62362c-2.42172.05895-4.82569.73642-7.26621.22828a42.724,42.724,0,0,1-22.15073-5.73644c-3.51265-1.92371-8.12614-2.30055-12.27628-3.22966-.8993-.20133-1.26492.73823-1.67165,1.31222a4.58924,4.58924,0,0,1-3.93013,1.808,2.83943,2.83943,0,0,1-3.178-2.58692c-.14157-1.52768,1.43442-2.26657,2.59479-2.272,1.63057-.0076,1.90315-.74131,2.25429-2.03389.86516-3.18457,1.8853-3.84062,5.65483-4.02909-.106-.78351-.06155-1.60151-1.01384-1.92679-1.7993-.61457-2.3236-2.03637-2.275-3.7241.054-1.87529,1.77224-1.70292,3.44415-2.1908-2.96471-2.32675-5.68787-4.21235-8.95412-5.17277a4.43175,4.43175,0,0,1-1.62666-.65481c-1.007-.79247-.99427-1.41988.227-1.92781q1.97559-.82163,3.95145-1.64249c1.80768-1.761,4.48778-1.27784,6.90624-2.68661a5.44449,5.44449,0,0,1-2.87209.51858,1.28565,1.28565,0,0,1-.82615-.4903c-1.702-4.81587-1.89934-9.86286-2.29959-14.88013a7.53951,7.53951,0,0,1,.67237-3.5124,3.82668,3.82668,0,0,0,.23269-3.2964c1.57513.41807,2.07205,1.60986,2.5835,2.63284,2.33367,4.66786,5.51437,8.38445,10.61057,10.17721.82967.29186,1.717.89362,1.22591,2.04283-2.0646,4.83128-1.55025,9.87841-1.31678,14.90553a5.13445,5.13445,0,0,0-.16558,2.196C371.96246,415.57692,372.0144,415.61342,375.90167,415.24155Z" transform="translate(-123.96431 -379.91416)"/><path class="cls-1" d="M403.40666,437.456q.7275-.01953,1.455-.03908a12.91944,12.91944,0,0,0,3.07834.53763,22.7756,22.7756,0,0,1,8.03319,2.00928c6.4147,2.75518,13.01654,3.89313,19.939,1.792a81.36245,81.36245,0,0,0,14.893-6.15181c2.69624-1.442,4.80551-3.406,7.26062-5.004,1.237-.80515,2.11258-1.01246,3.3958-.01318a11.43141,11.43141,0,0,0,8.6467,2.46056c.65158-.07947,1.47319-.37435,1.77576.4841.29978.85067-.43323,1.22149-1.077,1.4485-3.93118,1.3862-6.966,4.69752-11.3036,5.22541-.82081.09989-1.65357.5693-2.00751-.63748-.1234-.42063-.44154-.33294-.72019-.28535-2.92168.49891-5.89613.24545-8.68089,1.97148-5.11982,3.17327-10.42528,6.00014-16.88987,5.24091a206.81779,206.81779,0,0,1-21.45683-3.22509c-3.10973-.70115-6.277-.87642-9.41664-1.30072a10.45837,10.45837,0,0,0-6.324,1.12365c-6.81786,3.48123-14.04348,3.49033-21.38295,2.36331a6.8332,6.8332,0,0,1-1.98131-.38857c-2.72228-1.355-4.2983.38086-5.96475,2.04574-1.17374,1.17264-.63535,1.94121.59507,2.31111a11.04613,11.04613,0,0,1,3.46663,1.58125c1.1588.85756,1.69519,1.90355.48612,3.21443a22.89867,22.89867,0,0,0-1.80392,2.32206c-.83053,1.1731-1.74209,2.07409-3.32036,1.21748a2.3641,2.3641,0,0,0,.3008,1.99991c.36679.84715-.21325,1.92241-.8254,1.6504-1.38531-.61554-2.00039.1516-2.846.83661-.41684.33768-1.18188.43187-1.46831.00429-.70995-1.0598-1.48089-.62527-2.33855-.37142a1.54844,1.54844,0,0,1-1.80685-.63608c-.3837-.71276.48711-.97863.91724-1.31478a28.46606,28.46606,0,0,1,6.51734-4.0093c.52009-.21692,1.293-.34385,1.28513-1.087-.007-.65717-.77972-.60479-1.20135-.86-1.28657-.77867-2.65136-1.43082-3.92016-2.23542a4.36334,4.36334,0,0,1-1.65756-2.61273c-.249-.822.26229-1.12109.88125-1.24237.47814-.09369,1.29269-.18516,1.08334.62866-.39862,1.54989.73808,1.79083,1.66537,2.18537,1.49689.63689,2.85487,1.70757,4.74133,1.62444-.14334-.92066-.96318-.87-1.45112-1.17894-2.19006-1.38657-2.46644-3.85152-.57754-5.54728.559-.50185,1.19725-.91458,1.76958-1.40282a4.88973,4.88973,0,0,1,5.10578-1.14664c7.6524,2.0056,15.37754,2.0933,22.77579-1.42681q2.50669-1.19271,5.01812-2.3754C399.6586,438.07882,401.56134,437.85307,403.40666,437.456Z" transform="translate(-123.96431 -379.91416)"/><path class="cls-1" d="M227.22787,459.38465c-3.85917-.1551-7.51059-.24862-9.69218-2.30878-2.853-2.69422-6.178-5.776-5.78127-10.4104.22431-2.62027-.73064-3.24369-3.20849-3.63156-7.444-1.16529-10.77331-5.15191-10.54037-11.88418a10.23716,10.23716,0,0,1,2.287-6.02488,31.66686,31.66686,0,0,1,6.74154-6.34225c.66742-.47728,1.43824-1.41111,2.37495-.60051,1.02522.88719.16981,1.82093-.25832,2.62843a26.001,26.001,0,0,0-2.16819,5.204,8.95888,8.95888,0,0,0,3.39218,9.77911c1.87807,1.32062,3.5254,1.13548,5.09625-.57276,5.65123-6.1455,17.21626-6.04677,22.726.21266.56868.646.94441,1.37879,1.78667.231.18469-.25169,1.0095-.0892,1.53-.03142,5.0734.56323,9.3123-1.305,13.01374-4.56527,2.30276-2.0283,2.39415-3.09689.90585-5.69634-.31265-.54606-1.05335-1.09276-.27717-1.75566.72958-.62309,1.41267-.14,2.03928.29441,4.749,3.29249,4.65666,11.79374-.23015,15.36484a29.2808,29.2808,0,0,1-12.89025,5.16636c-1.13109.17986-1.72127.49509-1.61015,1.80522a6.06368,6.06368,0,0,1-1.16627,3.84426C237.75721,455.31224,233.0523,458.75593,227.22787,459.38465Z" transform="translate(-123.96431 -379.91416)"/><path class="cls-1" d="M167.65307,417.06769c-1.03933,1.0263-1.38506-.1235-1.84671-.6414-1.143-1.28229-2.11958-2.7526-3.98964-3.08813-3.48511.35511-4.68511,3.15636-6.11223,5.71125-1.03587,2.54135-2.51649,5.01128-1.22337,7.91186a36.35136,36.35136,0,0,1,5.979,3.87358,14.77454,14.77454,0,0,1,5.41644,9.28c.92947,2.94411,1.18753,5.85044-.48724,8.648-1.59561,4.32853-3.85894,8.15147-8.26763,10.14992a13.44527,13.44527,0,0,1-8.56781,1.21067c-.51748-.75776-1.37743-.35559-2.04412-.60445-.48949-.18272-1.10881-.39492-1.08637-.9679.03132-.8.77418-.71431,1.35119-.75832a1.94885,1.94885,0,0,1,.90149.41563c12.02542.86681,19.901-10.36359,14.97545-21.47087-1.67683-3.78135-5.10733-5.803-8.58819-7.67124-.3257-.17481-.72129-.4422-1.01067-.06242-.95716,1.2562-1.59754.71516-2.16284-.33326-.59258-1.099-1.63248-.657-2.42937-.5831-4.59459.42626-7.91228,3.10219-10.50856,6.60987-3.15191,4.25834-4.89372,8.98847-3.3353,14.39572.09484.329.18759.61278-.12517.73547a1.141,1.141,0,0,1-.842-.06979c-1.36547-.71184-1.405-2.09061-1.41731-3.32859-.07976-7.99735,3.384-14.0699,10.26978-18.0901a2.61038,2.61038,0,0,0,1.50409-3.04227c-.99787-7.29346,1.962-13.57069,5.34465-19.65308,1.70771-3.07064,4.74209-4.55614,8.14434-5.12265a6.35084,6.35084,0,0,1,6.193,2.55537,20.969,20.969,0,0,1,4.3404,12.56065C167.26921,415.94847,167.85254,416.61068,167.65307,417.06769Z" transform="translate(-123.96431 -379.91416)"/><path class="cls-2" d="M310.07435,415.61731c4.25274,1.52751,8.65086.93025,12.99718.80136,4.71126-.13971,9.32782.63726,13.98381,1.06756,1.96149.18128,3.48351,2.2359,5.51367,1.46211,2.93365-1.11816,3.64876.58149,4.24646,2.8148a32.10623,32.10623,0,0,0,5.93657,11.51149c3.24139,4.15073,7.12467,7.12447,12.61,7.6174a48.097,48.097,0,0,0-4.41051,7.308c-.13376.27894-.23737.634-.58793.49218a1.64454,1.64454,0,0,1-.82969-.6829c-.9052-1.84327.45311-3.06329,1.49609-4.08877,1.40131-1.37778.74034-1.60247-.56348-2.36086a33.39677,33.39677,0,0,0-11.8792-3.99227,11.14289,11.14289,0,0,0,2.3796,3.8224c.49445.54328,1.16511,1.1532.6698,1.9669-.47111.77392-1.05936-.18356-1.60328-.06106-1.0529.2371-2.19232-.51485-3.17512.89882-.76863,1.10559-1.85921-.52976-2.89323-.66573a1.50057,1.50057,0,0,1-1.33336-1.35195c-.01105-.40783.47472-.64736,1.042-.45583a7.09369,7.09369,0,0,0,3.497.05813c-.63214-2.18591-2.25771-3.87009-2.73549-6.07752-.21689-1.00207-.5478-2.01574.17234-2.782.81659-.8689,1.58825.18493,2.36213.42237,1.40849.43217,2.79178.94641,4.66247,1.59064-1.63557-2.587-3.32229-4.62017-4.27948-6.95238a17.01174,17.01174,0,0,0-3.81765-5.63165c-1.5833-1.5707-4.04189-1.34236-6.10318-1.01451-3.10269.49347-6.14021,1.40258-9.19888,2.16144-.83992.20839-1.81351.42727-2.20713-.45192-.3917-.87491.43722-1.51489,1.10808-2.013,1.38456-1.0279,3.06457-1.45013,5.13388-2.25313a37.54206,37.54206,0,0,0-12.91431-.65812,19.56708,19.56708,0,0,1-9.29208-1.18044A.9051.9051,0,0,1,310.07435,415.61731Z" transform="translate(-123.96431 -379.91416)"/><path class="cls-3" d="M290.13411,423.369c-.62477-.78478-1.44461-1.94371-.808-2.02805,2.28209-.30233,2.06556-2.02514,2.6253-3.45139.3801-.96855,4.60137-1.88561,5.63165-1.48254a1.58453,1.58453,0,0,1,1.05719,1.53688,2.45873,2.45873,0,0,0,2.21269,2.19008,37.10672,37.10672,0,0,0,11.88917.36105c1.39651-.20138,2.81921-.23252,4.2318-.30574a1.05154,1.05154,0,0,1,1.21611.78269c.1151.72008-.61471.77951-1.06864.91775a75.70335,75.70335,0,0,0-12.19338,4.95854,3.74986,3.74986,0,0,1-2.79124.61045,3.494,3.494,0,0,0-2.95006.22328,2.27543,2.27543,0,0,1-1.52369.28742c-1.927-.54978-3.24611.2489-4.46935,1.62925a2.06414,2.06414,0,0,1-2.68723.48659c-1.46008-1.33788-2.327-.3523-3.4335.35732a19.02033,19.02033,0,0,1-3.3657,1.81324c-1.06422.40955-2.28044.51679-3.03709-.67354a2.26185,2.26185,0,0,1,.57827-3.33207c.59378-.45627,1.218-.87293,1.81253-1.32824.25115-.19233.7789-.29978.413-.79723-1.5509-2.10867.34591-1.75309,1.36179-1.799A33.95726,33.95726,0,0,0,290.13411,423.369Z" transform="translate(-123.96431 -379.91416)"/><path class="cls-4" d="M310.07435,415.61731l-.01295,1.32158c-1.92517-.24394-2.27652-1.83315-2.33664-3.23759-.06391-1.49229,1.23245-2.37925,2.4782-2.94935a17.43782,17.43782,0,0,1,7.0611-1.26325c4.67382-.05969,7.90927-2.52606,10.92811-5.56222a15.88845,15.88845,0,0,1,8.09974-4.09042c.98676-.22342,1.91136-.05024,1.63567,1.34169-.36913,1.86361.67118,1.35825,1.68051,1.07641,1.23213-.34405,2.48427-.61726,3.73007-.91134,1.46075-.34483,2.14627.3923,1.68552,1.67565-.64755,1.80368.55219,1.72892,1.57409,1.809a10.54837,10.54837,0,0,0,3.74944-.73826c2.73816-.79988,5.46359-1.64312,8.199-2.45246.61965-.18334,1.25431-.61114,1.89526-.03355q.52533.04254,1.05078.08537c-1.10148,1.3642-2.7525,1.60443-4.283,2.09125-3.3958.89085-6.797,1.76225-10.17885,2.70317-.33188.09233-.56506.36868-.978.18286-4.79463-2.15746-10.06868-1.40186-15.04353-2.46512a2.06978,2.06978,0,0,0-2.09978.99988,13.43382,13.43382,0,0,1-10.5607,5.55463c-1.72507.09823-3.43719.427-5.1545.65614a5.9015,5.9015,0,0,0-3.42827,1.57874C308.80478,413.92926,308.613,414.902,310.07435,415.61731Z" transform="translate(-123.96431 -379.91416)"/><path class="cls-5" d="M144.0178,459.52913c-.79342.507-1.28162,1.53119-2.44378,1.41419-1.29128-.13-2.63916,1.32822-3.9196-.37225-.69358-.9211-1.591-1.43291.04492-2.2066a6.70557,6.70557,0,0,0,1.365-1.17978c-1.75041-2.02646-4.32245-3.57014-3.48489-7.321,1.34678,1.47535,1.86929,3.11355,3.04081,4.29714,1.542,1.55786,2.59426,1.60066,3.90735-.12612.86316-1.13509,1.98172-2.0743,2.86653-3.19533,1.20676-1.529,2.23226-1.54472,3.23605.14838,1.166.77924,1.18859,1.78019.58518,2.92026a13.99072,13.99072,0,0,1-2.97844,3.61367C145.16771,457.825,145.07144,459.20762,144.0178,459.52913Z" transform="translate(-123.96431 -379.91416)"/><path class="cls-6" d="M123.96431,452.96231c2.04789-.59857,2.76414.52319,3.12477,1.771.31789,1.09989.75893,1.54543,1.89471,1.27443,2.08419-.49729,2.47833.61655,2.362,2.39744-.125,1.91295-.04479,1.93309,1.69933,1.38921.56844-.17727.82066.22531,1.13224.50823a.69689.69689,0,0,1-.03845,1.15424,2.42346,2.42346,0,0,1-2.42326.877,2.66368,2.66368,0,0,1-1.92318-2.54573c-.01119-1.41525-.4058-1.94047-1.941-2.27852C125.66007,457.027,125.67941,454.35033,123.96431,452.96231Z" transform="translate(-123.96431 -379.91416)"/><path class="cls-7" d="M155.26572,418.65266a15.118,15.118,0,0,1,3.62983-5.00124c.89342-.852,1.83792-1.22833,2.92114-.31327q-2.75715,2.98261-5.51437,5.96521C155.98932,419.03471,155.04434,419.77148,155.26572,418.65266Z" transform="translate(-123.96431 -379.91416)"/><path class="cls-8" d="M165.38931,448.76289a33.81581,33.81581,0,0,0,.48724-8.648l.72848-1.60627a19.06361,19.06361,0,0,1-.15486,10.55252C165.96639,450.72162,165.84863,448.56726,165.38931,448.76289Z" transform="translate(-123.96431 -379.91416)"/><path class="cls-9" d="M155.26572,418.65266c.09608.61346,1.196-.37019,1.03638.65054-.969,2.46676-1.12687,5.12609-1.821,7.65805-.83039-.02435-1.58178-.17577-1.33719-1.27641C153.6762,423.28953,153.65642,420.72414,155.26572,418.65266Z" transform="translate(-123.96431 -379.91416)"/><path class="cls-10" d="M152.56155,441.2001c0-.11208.01036-.48535-.0024-.85784-.01981-.57827-.24278-1.32051.64377-1.37605.64273-.04025,1.03679.4338,1.27543,1.06244a7.19164,7.19164,0,0,1,.27616,3.31622c-.06538.67308.00925,1.7597-1.00118,1.66624-.75424-.06975-1.058-.951-1.08368-1.76084C152.65076,442.65366,152.60787,442.05781,152.56155,441.2001Z" transform="translate(-123.96431 -379.91416)"/><path class="cls-11" d="M145.8547,457.356c.93336-1.18058,1.85877-2.36755,2.80256-3.53975a1.98433,1.98433,0,0,0-.027-2.82835c1.84127,1.08441,2.24271,2.365,1.21779,3.94648-.71224,1.099-1.44716,2.18326-2.17194,3.27411l-.85585.01848C146.43552,458.00619,145.936,457.91259,145.8547,457.356Z" transform="translate(-123.96431 -379.91416)"/><path class="cls-12" d="M357.20931,403.77985a7.82136,7.82136,0,0,1,4.28307-2.09128l3.39295-.7903c-.5287,1.78663-.5287,1.78663-7.65185,3.36315Z" transform="translate(-123.96431 -379.91416)"/><path class="cls-13" d="M146.13463,443.30306a.64862.64862,0,0,1-.34761.90451.83388.83388,0,0,1-1.10243-.47552c-.55107-1.03574-1.06916-2.09011-1.56395-3.154-.16075-.34565-.16179-.80355.28072-.91766a1.4303,1.4303,0,0,1,1.04188.15881C145.65514,440.64,145.87011,441.991,146.13463,443.30306Z" transform="translate(-123.96431 -379.91416)"/><path class="cls-14" d="M375.90167,415.24155c-4.29229,1.45971-4.34514,1.43036-4.107-2.94386.04782-.87881.23338-1.75013.35543-2.625a10.40733,10.40733,0,0,1,.13221,1.315C372.19531,414.88338,371.76059,414.2864,375.90167,415.24155Z" transform="translate(-123.96431 -379.91416)"/><path class="cls-15" d="M403.40666,437.456c-1.83812.41844-3.355,1.79516-5.3364,1.78643-.43257-.70447-1.37088-.43027-1.88682-.97363C398.60671,438.13618,400.948,437.275,403.40666,437.456Z" transform="translate(-123.96431 -379.91416)"/><path class="cls-16" d="M145.8547,457.356l.96548.871-1.091.2322a2.32719,2.32719,0,0,0,2.22618.70235c.807-.02463.82761.37565.59848.962a11.40223,11.40223,0,0,1-4.536-.59436C144.53286,458.72265,144.84345,457.74357,145.8547,457.356Z" transform="translate(-123.96431 -379.91416)"/><path class="cls-17" d="M395.32626,397.93546q-.22748-.21126-.455-.42248a17.663,17.663,0,0,1,4.37579-3.229c.37617.0851.9196-.03048.91406.57418-.003.32574-.34156.385-.63386.38839C398.15413,396.18529,397.36411,398.03383,395.32626,397.93546Z" transform="translate(-123.96431 -379.91416)"/><path class="cls-18" d="M333.73147,409.297a.95991.95991,0,0,1,1.06694.90936.8761.8761,0,0,1-.97857.95233c-.62455.0011-1.24621-.16052-1.17839-.966A.9843.9843,0,0,1,333.73147,409.297Z" transform="translate(-123.96431 -379.91416)"/><path class="cls-19" d="M167.65307,417.06769c-.31986-.566-1.4846-.661-1.17832-1.44791.30424-.78168,1.00958.32768,1.55355.01838C168.02247,416.14592,168.1442,416.68714,167.65307,417.06769Z" transform="translate(-123.96431 -379.91416)"/><path class="cls-20" d="M366.3344,402.99189a2.35408,2.35408,0,0,0-.1551-3.29449c-.78972-.91877-1.96183-.65185-2.88785-.02582-1.64707,1.11346-2.02678-.00282-2.28691-1.24867a49.02527,49.02527,0,0,1-1.00086-5.54181,49.67184,49.67184,0,0,1-.33062-10.10843c.88349-.21663.75339.6035.939.96808a22.30883,22.30883,0,0,0,9.80582,9.97684c.75054.38788,1.12219.74739.825,1.50664-1.45071,3.70674-.95817,7.56075-.96495,11.38736-.00319,1.80272-.253,3.605-.39107,5.40749-.57679,1.01947-1.13733.58891-1.69585-.019.17252-1.54279-.50226-2.2135-2.034-1.90009-1.51173.3093-2.13615-.22419-2.10428-1.80048a18.42855,18.42855,0,0,0-.4311-3.06c.34928-.53314.95088-.65334,1.472-.9029A1.95432,1.95432,0,0,0,366.3344,402.99189Z" transform="translate(-123.96431 -379.91416)"/><path class="cls-20" d="M386.70907,428.31358a116.27047,116.27047,0,0,0,15.34481-9.028c4.83331-3.344,9.34355-7.10193,14.28949-11.03377-2.89147,6.80807-5.96333,12.97083-11.92843,17.13641-.9018.62974-1.60964,1.17769-1.338,2.51923.267,1.31861-.42878,1.46506-1.57685.93887-3.17093-1.4533-6.44491-1.24491-9.7221-.37074a8.39833,8.39833,0,0,0-5.90264,4.75319c-.23354.52951-.42373.8902-.94911,1.06432-.55963-1.16946.3948-2.64227-.86394-3.74548-.421-.369.23014-.888.75421-1.08815A4.14861,4.14861,0,0,0,386.70907,428.31358Z" transform="translate(-123.96431 -379.91416)"/><path class="cls-21" d="M440.2445,418.0187c-6.55923-1.626-12.93386-1.98823-18.7196,2.81756-1.46948-5.00206-.32442-9.8562.31047-14.69474,3.99184,1.71118,7.27711,4.40829,10.63072,7.04352,2.278,1.79,4.64116,3.617,7.76988,3.73716A.80293.80293,0,0,1,440.2445,418.0187Z" transform="translate(-123.96431 -379.91416)"/><path class="cls-22" d="M419.81905,405.72429c-.20209,3.51931-.41869,6.43845-.522,9.36159-.08257,2.33539-.16353,4.71133.79,6.91373.65651,1.51643-1.079,2.2194-.61279,3.87664-3.32794-2.0722-6.60073-2.3502-10.193-2.48936C414.031,418.30113,416.09584,411.91,419.81905,405.72429Z" transform="translate(-123.96431 -379.91416)"/><path class="cls-23" d="M439.73139,415.27655c-4.20166-1.50927-7.42558-4.51574-10.92685-7.10258-1.35795-1.00331-2.78792-1.90931-4.25471-2.907,5.44723-.3399,10.81643.39037,16.54735-.44809-1.63926,3.35475-1.41665,6.60576-.7823,9.87349C440.42993,415.19585,440.18907,415.34434,439.73139,415.27655Z" transform="translate(-123.96431 -379.91416)"/><path class="cls-23" d="M395.32626,397.93546c1.52089-.70821,2.48941-2.27815,4.20094-2.689a123.87936,123.87936,0,0,0-8.52252,15.70954c-1.85257-1.97263-4.14931-2.59047-6.8543-3.34808Z" transform="translate(-123.96431 -379.91416)"/><path class="cls-24" d="M377.04022,418.924c-2.839-.6172-5.623.60137-8.5391.10612-2.01258-.3418-3.76148-2.11524-6.03762-1.18368-.30285.12394-.69912-.47465-.76784-.96288-.06656-.47274-.057-.93347.48855-1.10751.79847-.25474,1.75641-.55889,2.37468.07468,2.08063,2.13221,4.58788,1.87836,7.15781,1.52575,1.78615-.24507,3.57044-.53529,5.36569-.67441a7.17552,7.17552,0,0,1,5.75429,2.2605,37.52191,37.52191,0,0,1-7.44059,8.51879c-1.38118-1.77289-.0038-3.51818.04981-5.27493.19885-.95481,1.04663-1.41564,1.60576-2.09867C377.36854,419.72064,377.90544,419.30907,377.04022,418.924Z" transform="translate(-123.96431 -379.91416)"/><path class="cls-23" d="M442.31481,413.21554c-1.56334-3.79695.5398-6.93414,1.518-10.194.25966-.86521,1.71554-.70974,2.61521-1.04051.89993-.33088,1.81106-.63144,3.03492-1.05531-.6186,1.87344-.90168,3.47717-.20315,5.14918a1.30436,1.30436,0,0,1-.5941,1.90308C446.02659,409.01845,444.21472,411.14269,442.31481,413.21554Z" transform="translate(-123.96431 -379.91416)"/><path class="cls-25" d="M374.46871,428.71767c-4.05929,1.45414-7.71113-.70143-11.5328-1.32393-1.01709-.16566-1.99881-.50206-3.07562.20733.66138-3.86137,1.23728-4.28381,4.53887-3.64355,2.02858.39339,4.13438.48112,5.58434,2.38547.35543.46684,1.39439.414,2.11909.6C374.47774,426.54976,374.72156,426.73262,374.46871,428.71767Z" transform="translate(-123.96431 -379.91416)"/><path class="cls-26" d="M388.94952,411.60273c1.511,1.93587-.12756,3.04455-1.22134,4.14169-1.34275,1.3468-2.95371,2.03027-4.86163.94037a4.54437,4.54437,0,0,1-2.36911-4.26951c.03234-1.21487.46723-2.554,2.144-2.66033C384.80492,410.16352,387.01846,410.40159,388.94952,411.60273Z" transform="translate(-123.96431 -379.91416)"/><path class="cls-27" d="M386.70907,428.31358c-.13,1.42039-1.57743,1.13676-2.519,1.95056,2.61733.9521.62549,2.62163.73608,4.029-1.08924-2.17127-2.4545-2.861-5.80994-1.81069-1.62592.509-2.05738-.34714-3.25659-1.10608C379.69643,430.35,383.33054,429.75584,386.70907,428.31358Z" transform="translate(-123.96431 -379.91416)"/><path class="cls-28" d="M372.21938,421.10752a2.60686,2.60686,0,0,1-.51,3.23937c-.72035.789-1.36124-.44129-2.00792-.79086a11.574,11.574,0,0,0-3.55546-1.35963c-1.26566-.21141-1.36827-.94946-1.1738-1.94736.01222-.0626.0885-.16949.11084-.16365a1.63113,1.63113,0,0,1,.29388.13431C367.623,420.78289,369.82133,421.714,372.21938,421.10752Z" transform="translate(-123.96431 -379.91416)"/><path class="cls-29" d="M374.46871,428.71767c.12944-1.81405-1.18047-1.71162-2.36612-1.77466,1.241-.89661,2.556-1.7434,2.41144-3.57372.494-.4066.32423-1.44163,1.31039-1.38232.3894,1.87289-.89568,3.6154-.42833,5.49435C375.24087,428.00872,375.75,429.03379,374.46871,428.71767Z" transform="translate(-123.96431 -379.91416)"/><path class="cls-30" d="M372.21938,421.10752c-1.58378,1.19652-5.27.71826-6.84245-.88778C367.7618,419.7147,369.92712,420.89966,372.21938,421.10752Z" transform="translate(-123.96431 -379.91416)"/><path class="cls-31" d="M388.94952,411.60273c-2.09954-.62657-4.47292-.31967-6.3081-1.84776C385.21105,408.77886,387.16038,409.9177,388.94952,411.60273Z" transform="translate(-123.96431 -379.91416)"/><path class="cls-32" d="M357.60824,406.43582c1.02093-.45458,1.96285-.86454,2.89571-1.29414.3557-.16381.691-.83134,1.07429-.231a2.63564,2.63564,0,0,1,.2725,1.51762c-.04568.644-.64538.52227-1.05793.47545C359.764,406.787,358.74233,406.607,357.60824,406.43582Z" transform="translate(-123.96431 -379.91416)"/><path class="cls-33" d="M375.82442,421.987c-.52062.3814-.59745,1.18292-1.31039,1.38227-.05191-1.27556.86938-1.99613,1.61266-2.81614.4301-.47451,1.16275-.7755.91361-1.6291.4285-.03943.95734-.21465,1.22123.18772.2827.43113-.27189.55121-.50442.79245C377.09986,420.58593,376.46694,421.29106,375.82442,421.987Z" transform="translate(-123.96431 -379.91416)"/><path class="cls-34" d="M368.191,412.00007c.56647-.09827,1.1241.59017,1.69585.019-.02583.61381.35585,1.43421-.49633,1.68437a1.82692,1.82692,0,0,1-1.42124-.38135C367.45064,412.89845,368.38231,412.50074,368.191,412.00007Z" transform="translate(-123.96431 -379.91416)"/><path class="cls-35" d="M363.64962,411.58048c-1.16713-.05577-2.14705-.3113-1.71684-2.11346A18.43436,18.43436,0,0,0,363.64962,411.58048Z" transform="translate(-123.96431 -379.91416)"/><path class="cls-36" d="M365.35943,404.74222a2.3733,2.3733,0,0,1-1.73777.49722c-.5518-1.11885-.5518-1.11885,1.29307-1.41168C365.34539,403.99543,365.5868,404.255,365.35943,404.74222Z" transform="translate(-123.96431 -379.91416)"/><path class="cls-37" d="M439.73139,415.27655q.29177-.292.58352-.58412c1.06687,1.08607.30659,2.3878.42363,3.586-.06936.00615-.15971.0428-.20392.01242a2.38132,2.38132,0,0,1-.29-.27213q-.00432-.54836-.00855-1.09658A1.93173,1.93173,0,0,0,439.73139,415.27655Z" transform="translate(-123.96431 -379.91416)"/><path class="cls-38" d="M365.35943,404.74222q-.2224-.4572-.44472-.91443l1.41964-.83587C367.01323,404.13373,366.26073,404.47935,365.35943,404.74222Z" transform="translate(-123.96431 -379.91416)"/><path class="cls-39" d="M462.09737,433.29975l4.64135,1.65328c-4.96923,3.05087-10.49229,1.77612-15.64517,2.77347,3.39578-.64289,5.06389-3.67509,7.6807-5.34262C460.07325,431.99605,460.82841,433.57877,462.09737,433.29975Z" transform="translate(-123.96431 -379.91416)"/><path class="cls-40" d="M402.57059,439.83658c4.52877-.18912,9.08215-.17114,13.24242,2.25769C411.32251,441.96323,407.06946,440.27625,402.57059,439.83658Z" transform="translate(-123.96431 -379.91416)"/><path class="cls-41" d="M441.57083,442.7816c-1.4442.52332-2.74206,1.46151-4.34638,1.53084-.66817-.02479-1.49711.62884-1.9147-.4532l5.74722-1.56976C441.52811,442.14084,441.65373,442.35249,441.57083,442.7816Z" transform="translate(-123.96431 -379.91416)"/><path class="cls-42" d="M462.09737,433.29975c-1.46347.98383-2.26312-.43761-3.32312-.91587C460.51853,430.38248,460.96175,433.09561,462.09737,433.29975Z" transform="translate(-123.96431 -379.91416)"/><path class="cls-43" d="M441.57083,442.78159l-.51383-.49213a12.31425,12.31425,0,0,1,3.83538-1.48869A7.7009,7.7009,0,0,1,441.57083,442.78159Z" transform="translate(-123.96431 -379.91416)"/><path class="cls-44" d="M435.30975,443.85924c.53925.56837,1.30108.19772,1.91459.45319a6.74562,6.74562,0,0,1-4.23771.00784Z" transform="translate(-123.96431 -379.91416)"/><path class="cls-45" d="M219.796,434.26292c8.865-4.25528,19.41568-.48628,20.51026,10.32273a8.04992,8.04992,0,0,1-.718,4.18648c-2.42845,5.3682-10.2038,9.36183-15.98427,8.22508-.59256-.11654-1.18612-.22812-1.77776-.3492a10.10415,10.10415,0,0,1-7.95953-11.52274,4.10678,4.10678,0,0,0,.75583-2.49713,10.4402,10.4402,0,0,1,2.01777-4.69211c.51715-.39515,1.72785.58654,1.71422-.86234C217.97111,435.69431,219.60145,435.34627,219.796,434.26292Z" transform="translate(-123.96431 -379.91416)"/><path class="cls-22" d="M206.151,422.48956c-.68266,2.7317-2.035,5.29339-.99579,8.14781,1.33032,3.65393,3.03851,6.92254,7.30715,7.79808.50829.10426.68029.403.477.76749-.45876.82245-.38,2.15509-1.31544,2.45358-3.33187,1.06319-9.62559-2.36593-11.02126-5.85126C198.66223,430.95967,201.08127,425.0409,206.151,422.48956Z" transform="translate(-123.96431 -379.91416)"/><path class="cls-46" d="M258.27617,429.22248a7.81142,7.81142,0,0,1-3.015,8.74668,27.76666,27.76666,0,0,1-12.0446,4.72444c-.75434.114-1.04265-.03465-1.29119-.77192-.49751-1.47583-1.14511-2.90115-1.73941-4.36873C246.92575,438.82184,255.33373,435.01346,258.27617,429.22248Z" transform="translate(-123.96431 -379.91416)"/><path class="cls-47" d="M216.64035,437.936c.45359,1.31822-.912,2.046-1.04278,3.2153-.10046.89839-.9131,1.628-.54368,2.7157.30514.89839-.62459.98465-1.18711,1.25814.31085-1.74858.52945-3.521.97133-5.236C215.06092,439.02443,215.33535,437.92967,216.64035,437.936Z" transform="translate(-123.96431 -379.91416)"/><path class="cls-48" d="M219.796,434.26292c.63717,1.50934-1.23933,1.73122-1.44148,2.81071C216.46432,434.92261,219.01086,435.0438,219.796,434.26292Z" transform="translate(-123.96431 -379.91416)"/><path class="cls-20" d="M150.77689,406.9299c1.46182-2.79164,4.09883-3.9549,6.923-4.44878,2.168-.37914,3.8085,1.00714,4.97224,2.82733a20.97923,20.97923,0,0,1,2.66215,7.3511c-.13381.01327-.2691.07173-.34506.02778-4.84278-2.80193-6.6609-2.36023-9.95144,2.16815a19.71325,19.71325,0,0,0-3.7021,9.78476c-.12022,1.183-.32151,1.748-1.71933,1.558a14.714,14.714,0,0,0-3.30815.27545,38.95,38.95,0,0,1,3.80533-16.80633A4.28882,4.28882,0,0,0,150.77689,406.9299Z" transform="translate(-123.96431 -379.91416)"/><path class="cls-49" d="M150.77689,406.9299c.5417.41651,1.18981.56515.62555,1.647a36.3453,36.3453,0,0,0-3.96537,11.63428,14.25394,14.25394,0,0,0-.18776,3.141,5.01153,5.01153,0,0,1-.94117,3.12147,14.00988,14.00988,0,0,1-.04811-9.115C147.35066,413.7311,148.48045,410.0618,150.77689,406.9299Z" transform="translate(-123.96431 -379.91416)"/><path class="cls-50" d="M349.95249,435.87535c-.98875.64859-3.66878-1.72929-3.18489,1.801-.17082-.0556-.34644-.05863-.387-.13413-.55244-1.02824-1.49429-2.311-.64805-3.20693.61111-.647,1.76858.60422,2.74074.85075A7.99773,7.99773,0,0,1,349.95249,435.87535Z" transform="translate(-123.96431 -379.91416)"/><path class="cls-23" d="M293.805,418.90943c1.732-.7223,3.09368-1.3979,4.08064.92536a3.83,3.83,0,0,0,3.59066,2.00432c2.48875.028,4.88572.95021,7.77821.50117-2.00864,1.58374-4.26063,3.244-5.891,3.00509-2.71318-.3975-5.19585,1.97428-7.873.1913-.88932-.59227-1.5449.59123-2.12758,1.24188-.94414,1.05428-1.58712,2.70767-3.42457.84949-.67563-.68329-1.82883.05818-2.67166.62289-1.59177,1.06652-3.13053,2.271-5.27052,2.57666.00648-1.10336.78492-1.37536,1.28329-1.85266a16.623,16.623,0,0,1,9.70664-4.47218c1.09163-.14123,3.3348.03667,1.66968-2.523C294.315,421.456,294.95305,419.852,293.805,418.90943Z" transform="translate(-123.96431 -379.91416)"/><path class="cls-51" d="M333.323,402.8212a2.25609,2.25609,0,0,1,2.45714-.67729.656.656,0,0,1,.0453.58512C335.04606,403.58677,334.142,402.77832,333.323,402.8212Z" transform="translate(-123.96431 -379.91416)"/><path class="cls-52" d="M146.89816,451.83432c-.82893,3.16826-3.05,5.24549-5.06535,7.461a1.20227,1.20227,0,0,1-1.807.16125c-.79189-.76463.06318-1.18326.49411-1.597C142.62945,455.834,144.76913,453.83967,146.89816,451.83432Z" transform="translate(-123.96431 -379.91416)"/><path class="cls-53" d="M383.5294,412.43342a.90113.90113,0,0,1-1.126.61463,1.092,1.092,0,0,1-1.00745-.97622c.00773-.67231.65745-.66763,1.15027-.5961C383.1279,411.56016,383.27093,412.1,383.5294,412.43342Z" transform="translate(-123.96431 -379.91416)"/><path class="cls-4" d="M222.01624,439.63054c.60551.05512,1.49443-.24274,2.19561.32225.967.7792,2.35511,1.39475,2.32835,2.81407-.02771,1.47053-1.412,1.89878-2.55523,2.472a8.55,8.55,0,0,1-5.9163.38567,3.00338,3.00338,0,0,1-2.27072-2.24446c-.38815-1.2068.48744-1.96165,1.30921-2.62344C218.48483,439.64724,220.155,439.63131,222.01624,439.63054Z" transform="translate(-123.96431 -379.91416)"/><path class="cls-54" d="M236.83,443.232c-1.20587-.47622-2.0042-1.71162-3.47354-1.20206-.70005.24278-1.07207.59036-1.06143,1.21122.01664.9715.84714.53838,1.31536.55127a3.58639,3.58639,0,0,0,1.2479-.39973c.63335-.24205.99909.07555,1.24817.59563a1.066,1.066,0,0,1-.51391,1.51432c-1.36506.79176-5.2385.13465-6.37961-1.0333-1.28154-1.31168-.98591-2.46439.43985-3.31925a7.97142,7.97142,0,0,1,5.41482-1.03812C236.75587,440.37686,237.15462,441.54,236.83,443.232Z" transform="translate(-123.96431 -379.91416)"/><path class="cls-55" d="M225.08835,452.45055c-.7724.13042-1.4596-.07731-1.60828-.86287-.18935-1.00044.71115-.92687,1.34008-1.05572,1.03188-.21139,2.08005-.36284,3.09207-.6446a.95777.95777,0,0,1,1.283.564.97793.97793,0,0,1-.77205,1.37527C227.32724,452.09789,226.20152,452.24893,225.08835,452.45055Z" transform="translate(-123.96431 -379.91416)"/><path class="cls-56" d="M220.28589,441.61848a6.38666,6.38666,0,0,1,1.3287-.11461c.95322.12022,2.40188-.61814,2.66106.857.20178,1.14848-1.24569,1.01936-1.96387,1.408-1.47683.7992-1.45463-.67915-1.905-1.39264A2.34826,2.34826,0,0,1,220.28589,441.61848Z" transform="translate(-123.96431 -379.91416)"/></svg>