<svg id="图层_1" data-name="图层 1" xmlns="http://www.w3.org/2000/svg" viewBox="0 0 239.19348 138.67661"><defs><style>.cls-1{fill:#fff;}.cls-2{fill:#fefeff;}.cls-3{fill:#fefefe;}.cls-4{fill:#050202;}.cls-5{fill:#fcfdfd;}.cls-6{fill:#fdfdfd;}.cls-7{fill:#0d0d0d;}.cls-8{fill:#fafbfb;}.cls-9{fill:#f9fafa;}.cls-10{fill:#f8f8f8;}.cls-11{fill:#e3e2e2;}.cls-12{fill:#f1f0f0;}.cls-13{fill:#f3f3f3;}.cls-14{fill:#f1f1f1;}.cls-15{fill:#1c1e1d;}.cls-16{fill:#181818;}.cls-17{fill:#cdcdcd;}.cls-18{fill:#141514;}.cls-19{fill:#e8e7e7;}.cls-20{fill:#191919;}.cls-21{fill:#3f3e3d;}.cls-22{fill:#efeeee;}.cls-23{fill:#989898;}.cls-24{fill:#e7e6e6;}.cls-25{fill:#8c8b8a;}.cls-26{fill:#c8c7c7;}.cls-27{fill:#bab9b9;}.cls-28{fill:#e8e8e8;}.cls-29{fill:#e5e5e5;}.cls-30{fill:#babab9;}.cls-31{fill:#dcdbda;}.cls-32{fill:#dcdcdc;}.cls-33{fill:#a09e9e;}.cls-34{fill:#e9e9e9;}.cls-35{fill:#f5f5f6;}.cls-36{fill:#e1e0e0;}.cls-37{fill:#dad8d7;}.cls-38{fill:#ececec;}.cls-39{fill:#c1c1c0;}.cls-40{fill:#dfdfdf;}.cls-41{fill:#e0dfdf;}.cls-42{fill:#7c7c7d;}.cls-43{fill:#dbdada;}.cls-44{fill:#2b2b2a;}.cls-45{fill:#bdbaba;}.cls-46{fill:#9f9e9d;}.cls-47{fill:#161716;}.cls-48{fill:#b3b3b3;}.cls-49{fill:#5e5e5e;}.cls-50{fill:#cbc9c8;}.cls-51{fill:#ccc;}.cls-52{fill:#c7c8c7;}.cls-53{fill:#d5d5d5;}.cls-54{fill:#a3a2a2;}.cls-55{fill:#252726;}.cls-56{fill:#4f4e4e;}.cls-57{fill:#cacaca;}.cls-58{fill:#ececeb;}.cls-59{fill:#eeeeed;}.cls-60{fill:#040000;}.cls-61{fill:#171818;}.cls-62{fill:#727070;}.cls-63{fill:#303030;}.cls-64{fill:#323333;}.cls-65{fill:#575555;}.cls-66{fill:#323232;}.cls-67{fill:#4e4d4d;}.cls-68{fill:#5d5d5d;}.cls-69{fill:#505050;}.cls-70{fill:#686565;}.cls-71{fill:#dbdbdb;}.cls-72{fill:#949393;}.cls-73{fill:#e5e5e4;}.cls-74{fill:#9b9a9a;}.cls-75{fill:#c3c3c2;}.cls-76{fill:#797a79;}.cls-77{fill:#858383;}.cls-78{fill:#7b7b7c;}.cls-79{fill:#626262;}.cls-80{fill:#262727;}.cls-81{fill:#2d2c2c;}.cls-82{fill:#d4d2d1;}.cls-83{fill:#313131;}.cls-84{fill:#3d3d3d;}.cls-85{fill:#333434;}.cls-86{fill:#747372;}.cls-87{fill:#464646;}.cls-88{fill:#504f4e;}.cls-89{fill:#b5b4b4;}.cls-90{fill:#787776;}.cls-91{fill:#494949;}.cls-92{fill:#0f0f0f;}.cls-93{fill:#4a4949;}.cls-94{fill:#f7f7f7;}.cls-95{fill:#060303;}.cls-96{fill:#817e7d;}.cls-97{fill:#898989;}.cls-98{fill:#666565;}.cls-99{fill:#bababa;}.cls-100{fill:#f6f6f6;}.cls-101{fill:#050101;}.cls-102{fill:#050303;}.cls-103{fill:#0b0c0c;}.cls-104{fill:#313232;}.cls-105{fill:#2d2d2d;}.cls-106{fill:#454545;}.cls-107{fill:#484747;}.cls-108{fill:#0a0909;}.cls-109{fill:#212221;}.cls-110{fill:#4d4b4b;}.cls-111{fill:#3a3a3a;}.cls-112{fill:#3b3b3b;}.cls-113{fill:#333;}.cls-114{fill:#dfdede;}.cls-115{fill:#0e0d0c;}.cls-116{fill:#181514;}.cls-117{fill:#0e0f0f;}.cls-118{fill:#e0e0e0;}.cls-119{fill:#e8e8e7;}.cls-120{fill:#f0f0f0;}.cls-121{fill:#e6e5e5;}.cls-122{fill:#060505;}.cls-123{fill:#838384;}.cls-124{fill:#696a6a;}.cls-125{fill:#7e7d7d;}.cls-126{fill:#b4b4b4;}.cls-127{fill:#ebeaea;}.cls-128{fill:#999899;}.cls-129{fill:#a5a4a4;}.cls-130{fill:#e4e4e4;}.cls-131{fill:#848282;}.cls-132{fill:#d6d4d4;}.cls-133{fill:#d7d6d6;}.cls-134{fill:#9f9c9c;}.cls-135{fill:#313231;}.cls-136{fill:#e6e5e4;}.cls-137{fill:#161717;}.cls-138{fill:#1b1c1b;}</style></defs><path class="cls-1" d="M385.68043,496.3312c.908,1.79533,2.19536,2.27709,4.206,1.6902a11.508,11.508,0,0,1,8.73418.99466c1.06109.55808,2.7058,1.37082,1.66985,3.02445-.998,1.593-2.09491.40067-3.13343-.28795a8.42806,8.42806,0,0,0-9.73239,1.05277c-1.01252.98664-1.88144,2.12034-2.818,3.18511a1.609,1.609,0,0,1-2.21532.47869,1.2506,1.2506,0,0,1-.44074-1.93349c.78838-1.09454-.03516-1.41672-.71436-1.90645a20.64788,20.64788,0,0,1-4.099-3.23384c-.31863-1.39459-1.129-3.06352,1.55471-2.78945a3.57666,3.57666,0,0,1,.67191.25657c1.32017.814,2.51539,1.80119,3.83242,2.68061a8.93929,8.93929,0,0,1-2.47854-3.73847c-.23108-.801-.64569-1.5305-.91422-2.31829a3.489,3.489,0,0,1-.04609-1.81425c.68662-1.63745,1.84045-1.7821,3.16671-.857a1.44429,1.44429,0,0,0,2.15722-.12936,11.70131,11.70131,0,0,1,6.84826-3.12016,5.038,5.038,0,0,0,2.17623-.87353,9.13844,9.13844,0,0,1,1.20577-.684,27.00053,27.00053,0,0,0,4.97269-3.41931,49.44359,49.44359,0,0,1-9.06878,2.44935,12.25243,12.25243,0,0,1-8.41432-1.45508c-.8047-2.21588-.38238-3.11323,1.73169-3.56505,1.37326-.29347,2.81248-.08048,4.17038-.50407a8.56025,8.56025,0,0,0,3.43529-1.28312,16.14561,16.14561,0,0,0,2.96129-1.52483c-1.209-.44273-2.3472.07095-3.47988.246a24.71049,24.71049,0,0,1-7.38713.06916c-1.81755-1.20548-1.71617-2.45187-.08241-3.73152.44012-.22268.94126-.29489,1.37463-.537.42362-.18874.89759-.23257,1.31584-.44066.24-.16868.56986-.17752.841-.47a9.75069,9.75069,0,0,1-1.06661.48309c-.55055.242-1.15054.34519-1.68767.624-2.0891.94221-4.27223.77053-6.45972.56126-1.77772-.15861-2.37717-1.30015-2.43656-2.90729a60.36469,60.36469,0,0,1,1.17634-11.4302,2.93488,2.93488,0,0,1,1.89106-2.18351,11.75976,11.75976,0,0,0,3.17116-1.84742,126.105,126.105,0,0,1-13.688-2.01676c-1.71124-.26683-3.12516-1.42313-4.8517-1.61966-.21488,1.34358-.22087,1.35377,1.83274,2.55973,1.48959.87476,2.65637,1.83973,1.32257,3.71245a2.99127,2.99127,0,0,1-1.94558.80313,7.98759,7.98759,0,0,0-2.02264.24062,3.3014,3.3014,0,0,1-.66679.13907c-.45583-.024-.93806.15456-1.07605.05.22645.13581.80129-.07042,1.34746-.02356a11.25345,11.25345,0,0,1,2.6541-.14488q4.19063,1.24209,1.38406,4.448a8.19343,8.19343,0,0,1-1.882,1.62677,5.26917,5.26917,0,0,1-1.86478.67749,8.972,8.972,0,0,1-1.13693.09846c-.87193-.03658-1.701.37029-2.58265.26739-1.44477-.47327-2.88129-.95491-1.474-2.88464a.26487.26487,0,0,1,.3578-.12737c.54022-.25037.80372-.77492.31577-1.1-1.01054-.67324-1.60422-1.80664-2.72289-2.32818-.827-.769-1.491-1.66764-.95977-2.8159.53-1.14554,1.66394-.85949,2.65541-.82467.41574.0146.8337-.05492,1.25093-.059,1.42162-.01394,2.14386-.26483,1.39439-2.01488a17.13861,17.13861,0,0,1-1.37871-6.31446c-.04638-1.73091.92688-2.17442,2.27317-2.74878,1.54509-.65917,1.656.52312,2.18619,1.25256,1.85812,2.5564,4.59414,3.4842,7.5244,3.92634,4.32682.65288,8.66553,2.10832,13.01995.10441,3.0208,1.65264,4.99953-.92789,7.38763-1.82933.734-.27707,1.46382-.53223,2.06707.14246.60282.67424.28232,1.34375-.0961,2.059-2.17809,4.11688-5.99568,6.43046-9.76061,8.72518-1.57653.96089-2.55322,1.95784-2.51446,3.85275.01324.6478-.34678,1.29966-.35589,1.95218-.02295,1.645-.94306,4.1828.14024,4.72042,1.45134.72025,3.67592-.06276,5.34846-1.10647a12.5419,12.5419,0,0,1,5.7122-2.93063,45.6881,45.6881,0,0,0,11.27936-8.88577,4.95192,4.95192,0,0,0,1.4711-2.54843c.19257-1.00265,1.006-1.268,1.89317-1.22628.9438.04439,1.13684.81057,1.307,1.55785a9.05156,9.05156,0,0,1-1.01526,6.01165c-.63616,1.34034-1.39154,2.62413-2.0937,3.93317a2.2711,2.2711,0,0,1-1.03665,1.52511l.01094-.01317a6.85943,6.85943,0,0,1-.80009,1.49611c-.20249.25073-.47567.4321-.68586.66939-.09967.11252-.45845.15161-.227.44717a1.82916,1.82916,0,0,1,.5755-.43814,7.59241,7.59241,0,0,1,2.2866-.55519,15.05349,15.05349,0,0,0,4.04213-2.79278,1.82,1.82,0,0,1,2.67683-.34142c.93082.85434.22031,1.67418-.30893,2.40863-2.376,3.2973-4.58644,6.73209-7.77957,9.61376,1.15216.2112,1.939-.57651,2.81136-.93351a25.55034,25.55034,0,0,0,2.64379-1.39115c.88354-.48967,1.85358-1.07953,2.72757-.24145,1.09911,1.05393.09956,1.97865-.48342,2.83929-5.28368,7.80031-12.2921,13.20153-21.5313,15.5646a3.24844,3.24844,0,0,0-2.46343,1.86319C386.44975,494.91612,385.36127,495.2701,385.68043,496.3312Z" transform="translate(-172.5427 -368.61169)"/><path class="cls-1" d="M361.6301,465.02991l1.05134.00744c1.434.36812,2.73444-.3024,4.09131-.53474.31973-.09867.64494-.17085.96835-.25017,3.18152-.78035,4.42326.22314,4.01332,3.47257-.43717,3.46526-.69648,6.95909-1.38925,10.38687-.51568,2.55151-1.79357,3.05994-3.81991,1.38569-1.57069-1.29776-3.44245-1.07337-5.17923-1.52046-2.74624-1.05179-5.42711-2.26669-8.1313-3.42513-.37791-.29012-.81556-.49112-1.19707-.778a2.27224,2.27224,0,0,1-.35059-.60659c-1.01023-1.70135-3.18446-2.04781-4.274-3.66359-.18222-.27023-.44214-.36952-.19724-.14126.02359.022.001.09345.01988.15831a6.49368,6.49368,0,0,0,1.583,1.50976,10.07219,10.07219,0,0,1,1.48743,1.21268q.76416.77106,1.51982,1.55314c.33589.27456.77672.37087,1.10874.65357,1.08674.68013,2.24345,1.23736,3.32074,1.93721a9.12625,9.12625,0,0,0,3.02963,1.63515,1.78845,1.78845,0,0,1,1.65978,1.86383c-.038.99169-.81384,1.38256-1.60527,1.68021a12.01758,12.01758,0,0,1-2.89267.7,27.82126,27.82126,0,0,1-7.00367-.52906,5.70313,5.70313,0,0,1-3.381-1.46512.43472.43472,0,0,1-.17814-.389c-.136.11106-.10886.22418.09262.35166,1.98342,1.52219,3.70585,3.44528,6.3571,3.83656a23.23866,23.23866,0,0,0,7.58867.4438c2.84419-.27,3.74538,1.21012,2.5269,3.7191-1.42464.94568-3.09691.78439-4.67578,1.09741a5.55738,5.55738,0,0,1,2.2831-.09608,3.23411,3.23411,0,0,0,2.84273.256,20.61954,20.61954,0,0,1,3.39587-.75676c1.93407-.14952,2.976,1.01561,2.6033,2.91761a13.83937,13.83937,0,0,1-1.14157,3.27857c-.25552.54994-.628,1.03674-.89439,1.58376a1.05991,1.05991,0,0,0,.14932.10437c-.00567-.33475.3553.16065.19553-.14714a47.58425,47.58425,0,0,0,3.61156-3.84223c1.356-1.69588,3.03979-2.26175,5.08163-1.20774a30.503,30.503,0,0,1,2.81468,5.74668c-2.37255-.56558-.8512,1.62666-1.57813,2.22657-1.75855-.53646-2.42984-2.17633-3.578-3.539a36.17778,36.17778,0,0,1-9.71682,7.40782c-.93191.45481-.35288.9286-.18977,1.39573.35284,1.0104.59389,2.07893-.66132,2.5166-1.10718.386-1.77947-.2662-2.27128-1.35716-1.92992-4.28092-5.38376-5.5169-9.97049-3.70786a1.626,1.626,0,0,1-1.85932-.30191c-.6704-.67828-.14427-1.17193.27145-1.71509a4.60051,4.60051,0,0,1,4.12075-1.90963c2.11459.12,4.22536.30732,6.33778.46558a1.34558,1.34558,0,0,1,1.17489-.909c1.53952-.71243,1.94082-2.3447,2.87078-3.54973.19684-.38941.0649-.70138-.35377-.6359-4.31807.67525-8.45741-1.02771-12.72845-.93021-5.29019-.7762-10.29541-2.16491-13.95722-6.46051-.32376-.3798-.706-.70957-1.03366-1.08636-.598-.68759-.93411-1.33886-.045-2.12943.853-.75852,1.45218-.451,2.14179.19694A13.0746,13.0746,0,0,0,348.1625,487.07c-5.38712-4.17066-8.8336-9.17506-10.25755-15.505-.23662-1.05191-.62035-1.91043.67831-2.47351,1.3923-.60366,1.65715.41873,2.12667,1.31975a12.3285,12.3285,0,0,0,1.31466,1.73311c1.20031.381,1.64254,1.72059,2.77675,2.186a3.74606,3.74606,0,0,1,.81369.81326c.15016.19744.20686.25085.12492.19458-.276-.18962.38545-.124.051-.14184s-.03864-.498-.15642-.19128c-1.27072-1.74957-3.18135-3.04442-3.62412-5.33412-1.72157-3.975-3.27544-8.00177-2.86786-12.45051.14881-1.62429-.52556-3.99541,1.87764-4.28877,2.05444-.25077,1.96164,2.07732,2.534,3.3954,1.85335,4.268,3.52442,8.60769,7.25293,11.73293a19.25633,19.25633,0,0,0,5.23339,3.19654c2.2.19315,3.99613,1.50623,6.02676,2.17874,3.88952,1.28814,4.1435,1.16895,4.63144-2.79063.29943-1.01142.418-1.88874-1.1249-1.67366-1.3219.18427-2.64763.32328-3.96516.5599-1.6565.29749-3.17783.02718-4.16762-1.559a3.14349,3.14349,0,0,1-.27179-.62444c-.00564-.94489-.69236-1.60619-1.01612-2.419.13466-.89781.39046-1.69982,1.46662-1.853-.67332,1.55606.441,2.00042,1.531,2.45991A2.25171,2.25171,0,0,0,361.6301,465.02991Z" transform="translate(-172.5427 -368.61169)"/><path class="cls-1" d="M194.33463,502.18454a4.1673,4.1673,0,0,1-2.45182,1.06916c-3.40428.35055-6.8125.77366-10.12562-.55066-5.27516-3.12557-6.63-9.2628-.557-14.40128-1.99965-1.87563-4.85829-2.82426-6.03845-5.54732a29.30789,29.30789,0,0,0-1.52606-3.1118c-1.72195-3.87238-1.55847-7.467,1.56641-10.62539,1.311.09993.92014.97939.58172,1.56558a21.63165,21.63165,0,0,0-1.01819,2.51877c-.66311,11.69483,13.25046,17.85984,22.07744,13.74943,2.16023-1.00595,4.57059-2.15019,5.378-4.93152.4782-1.64731,1.08512-3.1017-1.40332-3.49836-.35932-.05728-.65988-.483-.98763-.73822a.70062.70062,0,0,1-.4679-.60561c2.13712-1.8185,4.81516-1.36212,5.7904,1.16877a6.51308,6.51308,0,0,0,5.22579,4.36769,11.46887,11.46887,0,0,1,1.68441.456c.747.2664,1.40639.72366,1.28617,1.61253-.13644,1.0087-1.0057,1.00216-1.75974.94452a11.632,11.632,0,0,1-5.26719-1.43484c-.99615-.60552-1.67434-1.03737-2.12819.55287-.34327,1.20277-1.42388,1.96281-2.29186,2.82451.68376,1.15716.24446,1.91462-.86317,2.43615-2.40687-.07417-4.64189.84565-6.972,1.22234a7.5425,7.5425,0,0,1-2.92281-.08375c-1.74161-1.174-4.02774-.39962-5.80354-1.615-.38746-.26519-.52389.75361-1.008.93731-3.28153,2.03231-4.70174,4.84719-3.72065,7.38316,1.00873,2.6074,4.26028,3.83527,7.99211,2.88549a49.32681,49.32681,0,0,0,9.22413-3.88486c1.73069-.84026,3.45715-1.68383,5.25894-2.3549,2.853-1.06258,5.67935-1.44821,8.36715.4977a3.14636,3.14636,0,0,0,1.14581.496c.40189.0914.86077.21908,1.10424-.24581.22232-.4245-.02731-.8096-.29425-1.13767-.95018-1.16776-2.28835-1.21561-3.64436-1.29824-2.4815-.1512-5.03257-.12382-6.98475-2.0798-.10092-.66352.34116-.88159.85277-1.0447a2.77942,2.77942,0,0,1,1.09253.01424c.64428.1796,1.29965.331,1.9392.50472.1886-.08624.58967.57749.59628-.18838a.73359.73359,0,0,1,.2368-.50165,2.05153,2.05153,0,0,1,1.5391.05878,9.72937,9.72937,0,0,0,5.04293-1.07082c.75817-.4628,2.30724-.63272,1.57765-2.27612-.07637-.172.23778-.71413.4732-.79834,4.02616-1.44016,3.50123-5.14559,3.9043-8.21067.34671-2.63646-.37676-5.30415-1.03086-7.88673-.62366-2.46242-2.26735-3.93311-4.873-3.7581-1.84186.12372-3.8891-1.03333-5.53815.79246-.38811.42969-.93556-.16685-1.34207-.37086-.6013-.30176-.26949-.79858-.1031-1.28046a16.7083,16.7083,0,0,0,.92037-8.8314c-.63415-3.249-3.79-6.11091-7.16965-5.93482a8.69129,8.69129,0,0,0-6.89632,3.60846c-1.05758-.45612-1.08375-.53738-.68937-2.14083,4.68524-5.67927,12.07112-4.488,15.90246-.04878,2.23847,2.59365,2.21436,6.22887,1.58162,9.55965-.31043,1.63411-.00983,1.92457,1.582,1.92611,7.47727.00721,8.93856,1.99185,10.2679,9.16488a22.41838,22.41838,0,0,1-2.03683,14.59053c-.58457,1.20109.7182,1.35237,1.27509,1.74743,4.02031,2.85193,4.8781,6.82822,3.97112,11.31811-.75,3.71262-4.27,6.34687-8.34444,6.56849-1.49918-.20986-1.06908-1.27264-.97351-2.187.60609-1.1642,1.92743-1.23086,2.891-1.85132a5.95475,5.95475,0,0,0,2.75057-6.2558,5.57743,5.57743,0,0,0-4.47227-4.954c-.44077.76726.23492,1.24691.52036,1.77864,1.04465,1.946.57123,3.7638-.49209,5.45748-1.09613,1.74594-2.84558,2.21228-4.81389,2.02478a4.21218,4.21218,0,0,1-2.16432-.57663c-3.48286-2.68831-6.77786-1.14269-10.09219.33672a7.21859,7.21859,0,0,1-2.40992.61812q-1.4455.53472-2.891,1.06947C195.06915,501.96164,194.31188,501.24566,194.33463,502.18454Z" transform="translate(-172.5427 -368.61169)"/><path class="cls-1" d="M294.8136,409.27854c-.39015.12076-.85872.44606-1.15856.3312-3.72037-1.42522-7.61782-.48925-11.407-.91556-2.00993-1.26412-4.01186.716-6.02235.01895-1.12186-.45967-1.4765-1.53871-1.96531-2.48936-1.66494-3.238-3.21943-6.53279-5.02809-9.76573-2.37024,3.15669-4.52086,6.431-6.73412,9.66283-1.02554,1.49754-1.91709,3.16472-3.70161,3.98028a3.02449,3.02449,0,0,1-1.10379.20341,1.91681,1.91681,0,0,1-1.083-.359.43392.43392,0,0,1,.02582-.669l2.631-3.46223a17.16207,17.16207,0,0,0,2.87753-4.60739c1.93751-2.81545,3.9281-5.59623,5.79768-8.45606,1.88943-2.8902,2.02871-2.93069,4.13109.08708,2.54832-4.0892,4.736-8.29861,7.63777-12.05256,1.63-2.10869,3.08129-4.36077,4.5263-6.60412.52465-.8145.99875-1.6342,2.05641-1.549,1.02072.08221,1.21232,1.09141,1.46952,1.83187,2.07608,5.97708,4.32218,11.87844,6.95664,17.6414.82489,1.80447,1.33182,2.17834,2.85223.735a29.54956,29.54956,0,0,1,3.83366-2.7841c1.61875-1.10116,2.47133-.73959,2.7646,1.35339.26616,1.89943.13809,3.8557.42644,5.75a48.86536,48.86536,0,0,0,2.62144,9.87874c.93122,2.47238-.11365,3.7105-2.72739,3.44215-1.32524-.13606-2.66814-.1-4.00307-.14178-2.86886.77062-1.85236-1.38051-2.00942-2.65333-.36442-.80189-.87279-1.52738-1.23211-2.32849-.398-.88724-1.00817-.51-1.60048-.29312-1.9594.57778-3.98252,1.78379-5.6424-.56778a1.8075,1.8075,0,0,1,.43341-1.84616,3.68676,3.68676,0,0,1,1.6523-.882,16.56657,16.56657,0,0,0,2.30907-.95338c4.68716-1.76918,4.68923-1.77019,6.89248,2.75525a23.11419,23.11419,0,0,0,1.5491,2.4998c.49277-.05424.04468-.29637.02383-.3539-.1134-.3128.07049.09848-.08394-.21167-1.04538-3.52808-2.40676-6.98537-2.21877-10.6387-2.03793,1.9037-3.84259,4.35748-6.6122,5.69252-.48968.31711-.96828.6531-1.46541.95994a9.91974,9.91974,0,0,0-1.528.6557c-.60709.36545-1.28645.67931-1.16236,1.58544.1263,1.24547.68681,2.05027,2.06,2.04032a6.34756,6.34756,0,0,1,2.593.79369C295.40282,407.31479,296.37515,408.15759,294.8136,409.27854Z" transform="translate(-172.5427 -368.61169)"/><path class="cls-1" d="M295.65957,490.72283c-1.25668-1.3038-.96079-2.745-.28288-4.15183,1.01065-2.09734,2.06075-4.17809,3.17222-6.22346.553-1.01768.26575-1.2066-.77926-1.37654-1.528-.24846-2.75525.42966-4.07072.91237-6.14247,2.25394-12.4195,4.0616-19.02147,3.627-4.8852-.3216-9.86067-.746-13.88565-4.16747-1.612-1.37028-3.11428-2.78345-3.7018-4.91634-.10876-.39482-.24762-.93545-.54433-1.10076-3.15473-1.75766-1.08948-3.257.30383-4.56876,4.60921-4.33948,10.3253-6.32711,16.4473-7.16213,11.221-1.53051,20.93248,1.848,29.19472,9.47564,4.02735,3.718,4.30417,5.26076,2.32074,10.529-.63575.99878-1.8376,1.12673-2.709,1.76341a1.7445,1.7445,0,0,1-.61752.00675c-1.64752,1.37644-2.153,3.472-3.26572,5.18488C297.568,489.51511,297.3868,491.03565,295.65957,490.72283Z" transform="translate(-172.5427 -368.61169)"/><path class="cls-1" d="M179.78027,386.24481c3.57562.02087,7.1628-.11992,10.72168.1347a3.98,3.98,0,0,0,3.66337-1.47389c2.72472-3.0336,5.52554-5.99964,8.33018-8.96027a11.28727,11.28727,0,0,1,2.42888-2.1251c1.4984-.85775,2.994.10716,2.59673,1.73109-.2256.92217.50743,1.35714.42144,2.07592-.51082,1.60436-2.23375.37519-3.03182,1.30682-2.13192,2.21116-4.53237,4.14934-6.55807,6.50651,3.2357.48243,6.35231-.43415,9.51174-.43007.803.001,1.25445-.36442,1.25945-1.20083.85008-1.23533,2.06269-.65884,3.16686-.63019,1.12291,2.64588,3.45916,2.11414,5.56429,2.06945a34.17441,34.17441,0,0,0,4.48606-.377c1.06958-.16537,1.49988.4392,1.97605,1.15764.52062.7855-.03818,1.22028-.48494,1.7141-1.39948,1.5469-3.55868,2.91824-3.97833,4.69809-.43289,1.836,2.05761,3.313,2.98228,5.12935a82.80672,82.80672,0,0,1,4.22475,8.771c.554,1.5008.21647,2.11587-1.46359,2.24407-4.62276.35275-9.12969-.66656-13.67056-1.1286-2.20045-.2239-3.622-.049-4.67606,2.02206a35.80437,35.80437,0,0,1-2.65565,3.91552c-1.5173.16174-1.72066-1.03874-2.12016-2.03568a1.87609,1.87609,0,0,1,.02975-.73131c.99685-3.16127.99848-3.13691-2.27624-3.17357a34.6458,34.6458,0,0,1-5.91189-.18131c-1.208-.71229-2.48187-1.37122-2.631-3.01234a1.616,1.616,0,0,1,.5863-.44123c4.24955-.077,8.4681-.96174,12.73168-.56445a2.6354,2.6354,0,0,0,2.75608-1.25948c1.72926-2.666,3.61055-5.22925,5.38919-7.86106,1.48455-2.19667-.118-5.41765-2.71716-5.11479-5.14854.59991-10.34681.544-15.46862,1.30807-3.20013.4774-4.80353,3.18561-6.61946,5.39794-1.00722,1.22708.96592,2.35216.86119,3.70147-.3919,1.4322-1.64665,1.38434-2.75146,1.59816-1.32406-.44588-1.64328-1.81095-2.48092-2.70437a3.03558,3.03558,0,0,1-.41-.54221,1.18866,1.18866,0,0,1-.038-.989c-.39782-2.79278-2.6318-4.76354-3.326-7.42365C180.26439,388.29842,178.96991,387.41242,179.78027,386.24481Z" transform="translate(-172.5427 -368.61169)"/><path class="cls-2" d="M373.79906,388.64622c2.25736,4.18139,1.89881,5.54513-2.34735,8.92806,2.49673,3.3219,2.41646,5.70476-.85161,9.31789-1.1516,1.27318-1.01937,1.96559-.00471,2.94872,1.441,1.39621,1.73207,3.38234,2.56935,5.08368a3.4613,3.4613,0,0,1-.62724,3.53419,8.9423,8.9423,0,0,1-10.68715,3.07588c-4.63716-1.96848-5.69017-9.23253-1.69545-12.5701,1.30816-1.09295,1.48114-1.55658.30231-2.94561-2.09146-2.46441-1.8787-5.56492.53251-8.18518,1.0839-1.17787.93242-1.922.38074-3.17553a9.13939,9.13939,0,0,1,4.138-11.58907c1.83067-.98848-1.00021-1.12847-.39966-1.92838.88665-.67378,1.75761-.12917,2.62373.04938,3.99333.82324,5.79639-.97782,4.869-4.88728a5.43027,5.43027,0,0,1-.30911-1.9623c.23691-.78578.65736-1.20644,1.5114-.759,3.24766,3.57685,3.21718,8.18856-.78329,10.443-1.99929,1.12669.67549,1.98709.23191,3.04575C373.51092,387.56917,372.98414,388.3402,373.79906,388.64622Z" transform="translate(-172.5427 -368.61169)"/><path class="cls-3" d="M282.58522,447.70488c6.48116-.01952,12.33925,2.48677,18.01753,5.57838a1.54325,1.54325,0,0,1,.43524.23961c.94023,1.06895,3.32438,1.75043,1.75915,3.64716-1.51606,1.83712-2.43645-.31772-3.59539-1.06456-4.58-2.95143-9.44315-5.27151-14.98989-5.62217-7.92594-.50106-15.48751.56964-22.036,5.56593-.496.37842-1.15212.28319-1.599.52762a1.2399,1.2399,0,0,1-1.71655-.21947c-.61233-.79033.30128-1.20771.72732-1.55951a28.32349,28.32349,0,0,1,13.37823-6.32438A40.85206,40.85206,0,0,1,282.58522,447.70488Z" transform="translate(-172.5427 -368.61169)"/><path class="cls-4" d="M372.68384,374.64948c.033.07666.06544.15355.099.22994.88775,2.01932,1.87,4.23659.02869,6.03768-1.84711,1.80681-4.24171,1.57323-6.52993.53534a7.10742,7.10742,0,0,0-1.17281-.31168q-.73419-.62154-1.46832-1.24311c-.16227-.35076-.57242-.4681-.75647-.79894-.40716-.85647-.02079-1.67813.10712-2.51052.802-1.60849-.30146-2.3524-1.41107-3.09812a6.0835,6.0835,0,0,1,6.11665-3.34781C370.32437,370.27309,371.93638,372.12847,372.68384,374.64948Z" transform="translate(-172.5427 -368.61169)"/><path class="cls-5" d="M186.42292,400.74l2.44412-1.118a4.67628,4.67628,0,0,1,3.07731,4.51665l-.13461.16477c-.55322.75451-.05925,1.20348.47473,1.64871a2.1203,2.1203,0,0,1,.63518,2.87061,2.01222,2.01222,0,0,1-.45052.53181c-.68151.27087-1.05881-.252-1.51066-.58148a3.90864,3.90864,0,0,1-1.20581-2.80345c-1.18076.08808-1.82079,1.73179-3.3106,1.08305a1.89419,1.89419,0,0,0-1.64263.14858,61.38368,61.38368,0,0,1-8.90173.44914c-1.30571.02933-2.65538-.04588-3.09649-1.39983-.42729-1.31158,1.16332-1.33733,1.82232-1.95816a9.91111,9.91111,0,0,1,1.62428-1.03844c.70916.64046,1.29281-.44921,1.97734-.14548.41051.2381.69717.71227,1.26507.65608a30.86031,30.86031,0,0,1,5.40021-.151c1.597.06423,2.45651-.21656,1.42515-1.979A.70179.70179,0,0,1,186.42292,400.74Z" transform="translate(-172.5427 -368.61169)"/><path class="cls-6" d="M257.71105,409.76567l.89023.0176c5.58506-.1355,11.13666-1.2277,16.74278-.59262a3.03669,3.03669,0,0,1,.64919.30688.96917.96917,0,0,1,.41777.553c.11059-.38382-.2301-.53244-.40484-.77388a1.017,1.017,0,0,1,.06038-.93809c1.1925-.19152,2.40157.12154,3.55084-.8024,1.2389-.996,1.4919,1.30268,2.63068,1.158H279.7324c.75444,3.117-.69159,4.63661-3.636,3.93629-2.4099-.5732-4.80426-.13741-7.20939-.06146-3.78467.11952-7.61545.90331-11.30122-.672C257.2519,411.16449,257.02508,410.43829,257.71105,409.76567Z" transform="translate(-172.5427 -368.61169)"/><path class="cls-7" d="M367.21169,470.679c.02571,5.05345.01233,5.04289-4.69067,3.50135a22.8598,22.8598,0,0,1-6.48052-2.92373,1.61673,1.61673,0,0,0,.07169-1.70938.805.805,0,0,1,1.15929-.845c2.84573,1.46262,5.66728.33392,8.49247.04985C367.36788,468.5908,367.67741,469.325,367.21169,470.679Z" transform="translate(-172.5427 -368.61169)"/><path class="cls-8" d="M199.36224,477.07732l.46786.6056c.06628.86951.24039,1.6156-.83943,2.23034-4.3732,2.48964-10.8561.29826-12.57772-4.37424-.29993-.814-.4527-1.54695.55552-2.12927.94505-.54583,1.33944-.09023,1.79858.59268,3.47847,5.17381,4.19578,5.391,10.09788,3.12655A1.91675,1.91675,0,0,1,199.36224,477.07732Z" transform="translate(-172.5427 -368.61169)"/><path class="cls-9" d="M193.35736,454.48856c-1.05906,4.32552-1.13576,8.48041,2.09846,12.05911a.94934.94934,0,0,1,.17283,1.32766c-.51453.64613-1.1588.41174-1.78152.1612a16.19279,16.19279,0,0,1-1.93214-1.64291c-1.3228-3.622-3.06354-7.19178-1.28855-11.17653a5.99558,5.99558,0,0,1,1.60524-2.45225C193.06991,453.03728,193.22678,453.75434,193.35736,454.48856Z" transform="translate(-172.5427 -368.61169)"/><path class="cls-10" d="M372.68385,374.64948a2.73007,2.73007,0,0,1-.53726-.44894c-3.1752-4.4764-5.309-4.99239-10.54191-.54662q-.15037.06266-.30063.12585c-.47677-.403-1.5228.6772-1.65213-.63271,2.04688-2.8893,4.7208-4.61642,8.37934-4.53244,1.77587.04076,3.21307.5568,3.652,2.52377a6.24378,6.24378,0,0,0,1.90595,1.50379l.2146.93936A1.04318,1.04318,0,0,0,372.68385,374.64948Z" transform="translate(-172.5427 -368.61169)"/><path class="cls-11" d="M174.76567,473.1016c-.83978-1.46667,1.77436-2.5645.43648-4.08435,3.32458-3.17682,7.56169-3.94114,11.88031-4.46639,1.66921-.203,2.12352,1.33838,3.18293,2.18476a2.644,2.644,0,0,1-1.94513.25271,2.69629,2.69629,0,0,0-1.32049-.618c-.58274-.13656-1.16847-.31866-1.66651.21133l.007.00118a19.41854,19.41854,0,0,1-2.27094.3628,3.62589,3.62589,0,0,1-1.22932.3505,3.46246,3.46246,0,0,1-.78888-.17083.44094.44094,0,0,0,.30549.33237.37638.37638,0,0,1-.08539.49C178.62585,469.06419,175.86437,470.03425,174.76567,473.1016Z" transform="translate(-172.5427 -368.61169)"/><path class="cls-12" d="M204.41389,378.20169c.99344-1.31353,2.53712.7507,3.52867-.57441q2.17406,2.77606,4.34814,5.55221a4.73755,4.73755,0,0,1-2.89812.5409C206.74763,382.76913,205.81281,380.27622,204.41389,378.20169Z" transform="translate(-172.5427 -368.61169)"/><path class="cls-13" d="M202.80915,411.14649a6.74357,6.74357,0,0,0,1.78583,2.24877c-1.08344,1.94743-1.93657,4.0474-3.68217,5.55638a2.28506,2.28506,0,0,1-2.252-2.1143C199.88808,414.82884,200.37546,412.27835,202.80915,411.14649Z" transform="translate(-172.5427 -368.61169)"/><path class="cls-14" d="M216.95514,503.78418c.1163.83393-.34981,1.8.55728,2.45449-.42.82087-1.15058.55844-1.81682.52038a8.17852,8.17852,0,0,1-3.87951-.01022,4.18446,4.18446,0,0,1-3.40363-1.06713c-.14663-.43585.1131-.64438.45175-.81034a2.038,2.038,0,0,1,1.04595-.02655c.54606.18062,1.07.42114,1.60521.63443a2.64,2.64,0,0,0,.64.20089c.33016.05628-.10125-.06371.22393.01648-.02212-.05473-.07349-.01485-.1293-.03447a2.19581,2.19581,0,0,1-1.45864-.91247c-.01135-.13207-.02053-.26148-.02988-.39422a1.08585,1.08585,0,0,1,.54826-.56393A11.08156,11.08156,0,0,1,216.95514,503.78418Z" transform="translate(-172.5427 -368.61169)"/><path class="cls-15" d="M295.85632,404.40439c.67393-.57772,1.31594-1.11427,1.84017.17864a5.309,5.309,0,0,0,1.621,2.69745c-.65358,1.59868-2.73894,1.1748-3.5688,2.52448l-.93506-.52642c.63637-1.27892.10352-2.01844-1.13293-2.40589-.78032-.24451-1.57266-.45067-2.35962-.674.48109-1.4218,1.63015-.48183,2.44336-.62756C294.64914,405.41252,295.60992,405.62646,295.85632,404.40439Z" transform="translate(-172.5427 -368.61169)"/><path class="cls-16" d="M391.46491,465.61113a14.48115,14.48115,0,0,1-5.7122,2.93062c-1.07641-1.30444-2.65888,1.03081-3.85209-.6972,2.77307-.82259,5.548-1.44174,7.95064-3.00826C390.66018,464.30886,390.8571,465.48349,391.46491,465.61113Z" transform="translate(-172.5427 -368.61169)"/><path class="cls-17" d="M199.39607,419.88964c-2.65278-.40262-3.62886-2.45554-4.5216-4.59048a1.97946,1.97946,0,0,1,1.54713-1.4382,2.132,2.132,0,0,1,1.10329.10985,2.56382,2.56382,0,0,1,1.187,2.17651,1.593,1.593,0,0,0,.47122,1.78206A1.2799,1.2799,0,0,1,199.39607,419.88964Z" transform="translate(-172.5427 -368.61169)"/><path class="cls-18" d="M367.21169,470.679c-.05837-.86265-.13839-1.8147-1.35-1.55861-3.06327.64744-6.105,1.27967-9.173.02324-.11733-.04806-.381.261-.57649.4036l-.25105.00028-.251-.00017c-1.03535-2.37529,1.25744-1.48954,2.04158-2.082a3.05791,3.05791,0,0,0,3.439,1.42854c2.14237-.28024,4.27922-.60278,6.43764-.9101A3.50761,3.50761,0,0,1,367.21169,470.679Z" transform="translate(-172.5427 -368.61169)"/><path class="cls-19" d="M361.60468,373.65392c2.86955-.12778,3.06627.16591,1.95713,2.92185a6.55552,6.55552,0,0,1-1.547,1.5954,1.176,1.176,0,0,1-.6208.13545c-.817-.31194-.28133-1.17974-.68289-1.66323-.31283-.96.57423-1.6525.56764-2.54423a.50316.50316,0,0,1,.3277-.48339Z" transform="translate(-172.5427 -368.61169)"/><path class="cls-20" d="M350.5837,492.62552a32.87821,32.87821,0,0,1,8.65728.65372,8.76879,8.76879,0,0,0,3.94514-.22137c1.426-.26847,1.02855.45033.47981,1.13376-1.93476.6097-3.76183-.03495-5.58459-.52707C355.62128,493.0004,352.98763,493.6477,350.5837,492.62552Z" transform="translate(-172.5427 -368.61169)"/><path class="cls-13" d="M295.74866,409.805c-.254-1.56035.56421-2.05111,1.96763-2.01414.57638.01519,1.33532.48872,1.60117-.51034.401.29809.4109.58967.08342.98761-1.24787,1.51639-.28759,1.90968,1.08645,2.07085A5.69737,5.69737,0,0,1,295.74866,409.805Z" transform="translate(-172.5427 -368.61169)"/><path class="cls-7" d="M357.65168,467.46528c-.07775.63119-.33361,1.17163-1.06465.9851-1.139-.29062-.94073.478-.97693,1.09692-1.747.21934-2.233-.81883-1.92848-2.2206.3148-1.449,1.24009-.81807,2.07958-.396.17476.08787.55365-.22986.83845-.36066.56308-.34634.73437.1371.98027.46249A.36426.36426,0,0,1,357.65168,467.46528Z" transform="translate(-172.5427 -368.61169)"/><path class="cls-21" d="M342.01041,469.671l4.27636,5.32558c-.79176.58082-1.29966-.38555-1.9887-.36459a4.734,4.734,0,0,1-2.27346-2.48756Q342.01749,470.90769,342.01041,469.671Z" transform="translate(-172.5427 -368.61169)"/><path class="cls-22" d="M209.06834,505.123l-.65588.55866c-2.23848-.86221-4.61-1.43038-6.54677-2.95944-.43482-1.494.41987-1.34941,1.3734-1.085a7.09353,7.09353,0,0,1,.86842.57536,19.53947,19.53947,0,0,0,2.32684,1.09574,4.0147,4.0147,0,0,0,2.05524.60518,1.168,1.168,0,0,1,.57382.28135A.87857.87857,0,0,1,209.06834,505.123Z" transform="translate(-172.5427 -368.61169)"/><path class="cls-23" d="M303.97474,489.27192c-.77461,1.81872-2.3452,2.27659-4.1101,2.40222a1.18423,1.18423,0,0,1-.39243-.58028,1.66293,1.66293,0,0,1,.148-1.04566,2.64344,2.64344,0,0,1,1.07559-.9017c.9126-.2124,1.33647-1.36931,2.41844-1.26189C303.74944,488.13148,304.15943,488.518,303.97474,489.27192Z" transform="translate(-172.5427 -368.61169)"/><path class="cls-24" d="M203.33456,502.20767c-.68255-.37877-1.34167-.69069-1.46887.51459-1.20146-.09485-2.79174.581-2.98793-1.50638a2.126,2.126,0,0,1,1.99854-1.35414,4.9504,4.9504,0,0,1,3.0506,1.19025C204.14743,501.65073,203.89071,502.00607,203.33456,502.20767Z" transform="translate(-172.5427 -368.61169)"/><path class="cls-25" d="M181.75719,502.703c3.33092.9962,6.77561-.09781,10.12553.55067A11.46249,11.46249,0,0,1,181.75719,502.703Z" transform="translate(-172.5427 -368.61169)"/><path class="cls-26" d="M183.52418,396.79011c.459.11473.44336.55524.60175.87629-.28308.865-1.128,1.38816-1.378,2.27485a2.28778,2.28778,0,0,1-1.27986,1.15617,1.82734,1.82734,0,0,1-1.06709-.04711,1.10007,1.10007,0,0,1-.64467-.81484C180.81064,398.86665,181.34141,396.92575,183.52418,396.79011Z" transform="translate(-172.5427 -368.61169)"/><path class="cls-16" d="M360.79514,497.74136a1.79122,1.79122,0,0,1-1.17489.909c-.121-.91952-2.81633-1.00161-.86422-2.57064.69159-.55587,1.71123-1.23275,2.42319-.66678.83.65976-.50423,1.12118-.65861,1.75506C360.48179,497.32742,360.69679,497.54859,360.79514,497.74136Z" transform="translate(-172.5427 -368.61169)"/><path class="cls-14" d="M192.32627,409.27829q.00023-.24975.00505-.49945c.90473-.646,1.33436.10715,1.78844.64615a17.96088,17.96088,0,0,0,1.72525,2.06649,1.31638,1.31638,0,0,1,.238.6555,2.20368,2.20368,0,0,1-.561,1.27284,1.49339,1.49339,0,0,1-1.60437.36267l-1.16938-1.95083C193.04358,410.90854,192.20077,410.17335,192.32627,409.27829Z" transform="translate(-172.5427 -368.61169)"/><path class="cls-27" d="M301.44688,483.07124a2.07617,2.07617,0,0,1,.37.07043c.89877-.18478,1.92093-1.05336,2.51451.45335l-.0016,1.52342c-.3484.51033-.52852,1.17547-1.243,1.35241a1.671,1.671,0,0,1-1.15333-.17343C301.07775,485.32666,300.39109,484.32947,301.44688,483.07124Z" transform="translate(-172.5427 -368.61169)"/><path class="cls-19" d="M179.78027,386.24481c.21887,1.02987.74494,2.01865.41794,3.1216a4.84276,4.84276,0,0,0-.56792-.7216c-1.26989.68164-2.244-.01893-2.24747-1.06132C177.37868,386.33035,178.57838,386.0008,179.78027,386.24481Z" transform="translate(-172.5427 -368.61169)"/><path class="cls-19" d="M258.20681,479.45678c.02112.8137-.12538,1.5666-.95363,1.51183-.68436-.04526-1.51177-.3376-1.56235-1.2842a1.36619,1.36619,0,0,1,1.2456-1.57126C257.93748,478.00008,258.09291,478.80469,258.20681,479.45678Z" transform="translate(-172.5427 -368.61169)"/><path class="cls-28" d="M203.94126,490.10736l-1.04611.44234a1.403,1.403,0,0,1-2.16774-.83676,1.95821,1.95821,0,0,0,1.17462-2.14357l2.98187,1.15078a.43537.43537,0,0,1-.05166.58442C204.67127,489.7241,203.46,488.97581,203.94126,490.10736Z" transform="translate(-172.5427 -368.61169)"/><path class="cls-29" d="M299.69768,491.10059l.167.57351c-1.65319.79393-2.92393-.10152-4.20505-.95124,1.30232-.38505,1.436-1.685,2.0462-2.61189.50874.21924.60493.69419.72467,1.15473C298.40042,490.18784,299.16151,490.56713,299.69768,491.10059Z" transform="translate(-172.5427 -368.61169)"/><path class="cls-30" d="M262.14414,401.20692a4.82044,4.82044,0,0,1-2.87751,4.60733C259.51452,403.83463,261.04455,402.65509,262.14414,401.20692Z" transform="translate(-172.5427 -368.61169)"/><path class="cls-31" d="M261.73187,483.07005a1.46225,1.46225,0,0,1,1.50831,1.30691c.09606.57307-.44611,1.07241-.85807.96779-.72647-.18449-1.79355-.19126-1.871-1.271C260.46128,483.37843,261.10485,483.1742,261.73187,483.07005Z" transform="translate(-172.5427 -368.61169)"/><path class="cls-32" d="M355.57041,459.51992c1.44043.08181,2.27726,1.25706,3.22852,2.036,1.38571,1.13471.21506,1.35464-.82131,1.39215C357.71572,461.42611,355.87226,461.01383,355.57041,459.51992Z" transform="translate(-172.5427 -368.61169)"/><path class="cls-33" d="M199.39607,419.88964c.51228-1.4441-1.92-2.15289-.9288-3.71659.33009.07927.596.2.40033.619.28493,1.09528,1.49515,1.31507,2.04509,2.15964C201.00843,420.23573,200.57022,420.65724,199.39607,419.88964Z" transform="translate(-172.5427 -368.61169)"/><path class="cls-19" d="M276.47241,485.69422a1.52743,1.52743,0,0,1,1.5277-1.12038,1.07,1.07,0,0,1,1.25946,1.17563c-.01211.72224-.56081.99319-1.22048.82679C277.44629,486.42672,276.76277,486.35057,276.47241,485.69422Z" transform="translate(-172.5427 -368.61169)"/><path class="cls-34" d="M200.57373,460.478c.71251.00838,1.28243.24047,1.23458.945-.05183.76331-.65668,1.05677-1.39351,1.0755-.643.01633-1.22748-.15946-1.16384-.8952C199.31554,460.85665,199.93682,460.55908,200.57373,460.478Z" transform="translate(-172.5427 -368.61169)"/><path class="cls-35" d="M184.79943,407.20122a1.4949,1.4949,0,0,1,1.34823-.42791c1.606.16644,2.95458.003,3.1-2.12967l.505,1.32594C188.52912,408.09827,186.49109,406.95377,184.79943,407.20122Z" transform="translate(-172.5427 -368.61169)"/><path class="cls-36" d="M271.1947,485.84651a1.19575,1.19575,0,0,1,1.2369-1.00255,1.28448,1.28448,0,0,1,1.24788,1.28675c.02381.58651-.42075.88306-.99779.6907C272.11341,486.632,271.27042,486.80248,271.1947,485.84651Z" transform="translate(-172.5427 -368.61169)"/><path class="cls-37" d="M266.5108,486.90276c-.45623-.36191-1.43225-.01332-1.36865-1.08781.05551-.938.68717-.75887,1.246-.72288.71868.04629,1.35678.32352,1.26738,1.15112C267.59668,486.78852,267.07812,486.99693,266.5108,486.90276Z" transform="translate(-172.5427 -368.61169)"/><path class="cls-38" d="M304.33139,483.595c-.6904-.03514-1.41306-1.07167-2.09739.14466-.12566.22337-.3534-.3212-.41689-.5983a4.14966,4.14966,0,0,1,2.99515-1.54185Z" transform="translate(-172.5427 -368.61169)"/><path class="cls-26" d="M257.71105,409.76567q-.06265,1.0656-.12526,2.13125c-.65758-.81765-1.44342.2587-2.259-.30268a3.36727,3.36727,0,0,1,.802-1.8153.43216.43216,0,0,1,.50789-.10514Z" transform="translate(-172.5427 -368.61169)"/><path class="cls-35" d="M192.32627,409.27829c.601.77512,1.60153,1.48425.42193,2.55337l-1.78973-3.05861Z" transform="translate(-172.5427 -368.61169)"/><path class="cls-28" d="M179.75635,400.23547l.48222.51948a2.10207,2.10207,0,0,1-.96972,1.38433c-.79156.32458-1.43732,1.26537-2.46995.60091C177.54553,401.62308,178.2734,400.48382,179.75635,400.23547Z" transform="translate(-172.5427 -368.61169)"/><path class="cls-12" d="M193.35736,454.48856q-.56282-.8619-1.12565-1.72376a2.22856,2.22856,0,0,1,1.08182-1.35255c.25479.70557.00948,1.572.68934,2.14084Z" transform="translate(-172.5427 -368.61169)"/><path class="cls-39" d="M176.7989,402.74019l2.46239-.972a.735.735,0,0,1,.10044.65726,1.37382,1.37382,0,0,1-1.09433.78967c-.67421-.04288-1.30833,1.99577-2.0195.03887Q176.5233,402.997,176.7989,402.74019Z" transform="translate(-172.5427 -368.61169)"/><path class="cls-40" d="M360.71112,376.64339l.88407,1.478a1.99138,1.99138,0,0,1,.78794,2.00154c-.08347.40267-.23763.7078-.73865.52891A5.82557,5.82557,0,0,1,360.71112,376.64339Z" transform="translate(-172.5427 -368.61169)"/><path class="cls-41" d="M193.91757,413.78249l1.43094-.48153q1.235-.23763,1.00236.99785-.73819.50019-1.47639,1.00036Z" transform="translate(-172.5427 -368.61169)"/><path class="cls-42" d="M303.97474,489.27192a2.11563,2.11563,0,0,0-1.08009-1.166,1.1161,1.1161,0,0,1-.81976-1.05349.93807.93807,0,0,1,.34287-.59976,4.48641,4.48641,0,0,1,1.06483-.07843c1.03746.2067.35649,1.26527.86125,1.73628A1.19685,1.19685,0,0,1,303.97474,489.27192Z" transform="translate(-172.5427 -368.61169)"/><path class="cls-43" d="M204.90412,489.06816a1.5578,1.5578,0,0,1-.02021-.348q2.07674.42518,4.15361.85033c-.5123.26053-1.21674-.058-1.61843.53635a3.618,3.618,0,0,1-2.57524-.3627A.46527.46527,0,0,1,204.90412,489.06816Z" transform="translate(-172.5427 -368.61169)"/><path class="cls-44" d="M402.32888,467.02159l.95206-1.05636a1.80574,1.80574,0,0,0,1.14908,1.61939,2.52511,2.52511,0,0,1-2.09852.96776A2.6092,2.6092,0,0,1,402.32888,467.02159Z" transform="translate(-172.5427 -368.61169)"/><path class="cls-45" d="M361.60646,373.61577c.08039.28969-.01585.45963-.32779.48333-.76638-.089-1.40528,1.02751-2.11053.40315-.38748-.343-.08019-1.03394.48375-1.35513C360.27066,373.43991,361.09612,372.87127,361.60646,373.61577Z" transform="translate(-172.5427 -368.61169)"/><path class="cls-46" d="M182.71013,466.53684c.89038-.76469,1.75693-.1697,2.63013.04606a1.29025,1.29025,0,0,1-1.58548.88667C183.4278,467.13489,182.5191,467.45124,182.71013,466.53684Z" transform="translate(-172.5427 -368.61169)"/><path class="cls-47" d="M385.68043,496.3312c-1.78192-1.796.64659-1.47675,1.08464-2.15746A1.7625,1.7625,0,0,1,385.68043,496.3312Z" transform="translate(-172.5427 -368.61169)"/><path class="cls-48" d="M304.34384,488.11053l-.97951-1.48955q-.27152-.16488-.18277-.33255c.059-.11209.11845-.16832.17892-.16832l.96931-1.00167A4.63084,4.63084,0,0,1,304.34384,488.11053Z" transform="translate(-172.5427 -368.61169)"/><path class="cls-49" d="M362.12876,380.17419a2.34215,2.34215,0,0,1-.53357-2.05282l.11294.08239c.94452-.39105,1.01776.59862,1.49742.94423.35516.12794.65876.28579.43493.74957q-.52727.13435-1.05453.26852C362.43751,380.3911,362.28531,380.40537,362.12876,380.17419Z" transform="translate(-172.5427 -368.61169)"/><path class="cls-19" d="M373.58923,372.64218c-1.4808.56952-1.64259-.53142-1.90593-1.50379C372.91556,370.8836,373.12176,371.92835,373.58923,372.64218Z" transform="translate(-172.5427 -368.61169)"/><path class="cls-50" d="M173.63573,479.64264a3.625,3.625,0,0,1,1.526,3.1117A5.33376,5.33376,0,0,1,173.63573,479.64264Z" transform="translate(-172.5427 -368.61169)"/><path class="cls-51" d="M194.33463,502.18454c-.09837-.42862-1.20372-.6126-.355-1.25748.97231-.73873,1.05861.26712,1.38552.77207A1.00977,1.00977,0,0,1,194.33463,502.18454Z" transform="translate(-172.5427 -368.61169)"/><path class="cls-44" d="M403.27,465.97843a2.39628,2.39628,0,0,1,1.03661-1.52511c.1613.52643.79085,1.03148.346,1.58385C404.29216,466.48473,403.74306,465.945,403.27,465.97843Z" transform="translate(-172.5427 -368.61169)"/><path class="cls-52" d="M187.24606,466.02684a.95614.95614,0,0,1,1.07419.96148l-1.99811-.02728C185.89009,465.91832,186.24683,465.65512,187.24606,466.02684Z" transform="translate(-172.5427 -368.61169)"/><path class="cls-53" d="M182.71013,466.53684l1.04464.93273-2.48352.47813a.95361.95361,0,0,1-.00311-.271c-.02377-.34415.19031-.51258.46848-.63366Z" transform="translate(-172.5427 -368.61169)"/><path class="cls-22" d="M211.81609,506.74883q1.93857.00557,3.87833.01068A4.76707,4.76707,0,0,1,211.81609,506.74883Z" transform="translate(-172.5427 -368.61169)"/><path class="cls-54" d="M187.24606,466.02684c-.56787.05457-.93826.30428-.92391.93421l-.98887-.37934C185.62753,465.21408,186.34042,465.28847,187.24606,466.02684Z" transform="translate(-172.5427 -368.61169)"/><path class="cls-55" d="M200.86786,500.19505c-.95955-.23669-1.32722.6796-1.99009,1.02083l-.62157-.58622a2.64078,2.64078,0,0,1,1.87666-1.02031C200.7375,499.35362,200.95188,499.58723,200.86786,500.19505Z" transform="translate(-172.5427 -368.61169)"/><path class="cls-18" d="M357.57992,467.03256q-.49-.23157-.98016-.46281c-.558-.4357-.50338-1.03822-.44667-1.64128C356.60554,465.64555,357.59182,466.00087,357.57992,467.03256Z" transform="translate(-172.5427 -368.61169)"/><path class="cls-56" d="M191.915,466.39362c1.32356-.25091,1.49234.8552,1.93211,1.64291A1.99745,1.99745,0,0,1,191.915,466.39362Z" transform="translate(-172.5427 -368.61169)"/><path class="cls-57" d="M362.12876,380.17419a.67233.67233,0,0,0,.45719-.00819c-.13332.635.44871.98965.77995,1.52358-1.07219.20675-1.31393-.539-1.72142-1.03775Z" transform="translate(-172.5427 -368.61169)"/><path class="cls-58" d="M201.57591,459.15693c-.75266.46254-1.32184.90568-1.70941.36914-.286-.39591.23188-.65211.68569-.60791A10.16756,10.16756,0,0,1,201.57591,459.15693Z" transform="translate(-172.5427 -368.61169)"/><path class="cls-59" d="M373.79906,388.64622c-1.52711-.05917-.79879-.9-.54659-1.57591C373.8281,387.45923,373.78392,388.063,373.79906,388.64622Z" transform="translate(-172.5427 -368.61169)"/><path class="cls-1" d="M256.63671,409.6738q-.25392.05265-.50787.10522c-.10848-.44721.2157-.45819.50682-.50249Q256.63575,409.47518,256.63671,409.6738Z" transform="translate(-172.5427 -368.61169)"/><path class="cls-60" d="M356.61828,481.60958c.95755-.21329,1.93269-.3704,2.86574-.662.51687-.16157,1.16227-.42818,1.0623-1.15811-.07968-.58169-.42576-1.25776-1.06323-1.14424-1.86694.33245-2.64041-1.28294-3.90761-2.00606.01349-1.09959.68021-.82192,1.31923-.63326,1.48155.4374,2.88174,1.10873,4.37423,1.51372,2.11234.25731,4.615-.75155,5.97527,1.95815a1.24612,1.24612,0,0,0,1.55956.48679,1.72517,1.72517,0,0,0,.94633-1.60812c.44179-3.64512.9662-7.28027,1.40359-10.92587.36069-3.00655-.07541-3.34088-2.99684-2.53609a11.62574,11.62574,0,0,1-1.48676.21592c-.85438.01041-1.87754.76685-2.43174-.5497.6221-.52526,1.25962-1.03347,1.86345-1.57895,1.80531-1.631,1.52994-2.68022-.91539-3.543-.37359-1.24943,1.44227-1.04411,1.3852-2.08322.87789-1.40427.17525-2.151-1.116-2.61474a5.37677,5.37677,0,0,1-3.22126-2.96481c-.18373-.41183-.47879-.99488.12877-1.31389.58048-.30482.79738.46448,1.26189.57232,1.46557.63241,2.7324,1.90392,4.5473,1.4131,5.21985.69338,10.36937,1.92592,15.87534,2.08961-1.56059,1.33216-2.7769,2.84833-4.92709,3.12682a1.55366,1.55366,0,0,0-1.42824,1.49463c-.19243,3.90428-.98673,7.75288-1.04038,11.67911-.02106,1.54165.58058,2.13025,1.99393,2.1628,1.77758.22649,3.54955.70261,5.32486-.09288.39177-.17555.818-.00533.73436.5988-1.30641.85851-1.98069,1.81651-.49068,3.11515a3.859,3.859,0,0,0,.52667.36342,5.49194,5.49194,0,0,0,1.89808.22882,2.16135,2.16135,0,0,1,.97051.10808,1.04279,1.04279,0,0,1,.43336.45586c.16748.46811.21556,1.00356.7164,1.29189.30277.2676.734.47295.504,1.00431a10.73437,10.73437,0,0,1-4.294.5946c-2.28947.06317-2.64011.66272-1.67683,2.81579a9.10236,9.10236,0,0,0,6.83066,1.37011c1.82416-.38682,3.437.23357,5.11521.55256.88635.16848.78416.71341.063,1.14006l-.96191.59513a7.80884,7.80884,0,0,0-2.053.93509c-3.18638.65217-6.1565,1.69127-8.09808,4.77364-1.29791-.86181-2.06723-3.6364-4.06829-1.19459-.21829.88932-.64777,1.777-1.6067.9-.91354-.83544-1.92644-.69014-2.93305-.85527-1.89837-.48745-3.36338-.24371-4.56262,1.66032a25.3451,25.3451,0,0,1-3.7272,3.87324c-1.54849-.60754.23152-1.51078-.19716-2.2178a30.76736,30.76736,0,0,0,1.04108-2.99723c.19569-.80361.85682-1.68969-.15593-2.47789-.78563-.61145-1.47037-.336-2.28706-.04442-1.15242.41146-2.39017.577-3.5705.91979-.88232.25622-1.61748.28978-2.03742-.70114-.17914-1.53453,1.70184-.72981,1.98132-1.74358.47615-.70079.98118-1.43384.44412-2.28789-.61564-.979-1.58979-.71817-2.49847-.56424a16.0401,16.0401,0,0,1-8.40647-.55331c.08163-1.52017,2.34584-.51492,2.39725-2.07411C354.75581,481.845,355.89046,482.33218,356.61828,481.60958Z" transform="translate(-172.5427 -368.61169)"/><path class="cls-18" d="M395.30149,486.54706l.18512-.46c-2.0494.25425-3.726-1.64955-6.04769-.70381-1.88874.76937-3.87984-1.04149-5.967-.77554-.01182.00151-.11747-.73274-.17931-1.1234a17.14787,17.14787,0,0,0,9.77084.56688c3.03555-.72025,5.94534-1.8996,9.03787-2.53732C400.10646,483.676,398.1123,485.68107,395.30149,486.54706Z" transform="translate(-172.5427 -368.61169)"/><path class="cls-61" d="M375.58045,491.70109c.91263-1.163,1.98189-1.0967,2.77536-.03348.73941.99079,1.18127.75879,1.76439-.01128l.18224,1.82218c.07722.38307.37241.89907-.09347,1.1003-.88218.381-1.28459-.39439-1.77863-.93356.31944,1.1524,1.65451,1.8146,1.52158,3.17074-.16667.34375-.37292.60538-.80827.38969a2.58413,2.58413,0,0,0-.42828-.0369C376.78026,495.8562,376.50825,493.59078,375.58045,491.70109Z" transform="translate(-172.5427 -368.61169)"/><path class="cls-62" d="M387.74651,477.61186l-1.00692.12982a13.12811,13.12811,0,0,1-2.472-.73681,3.58523,3.58523,0,0,1-.0532-.3833c3.78857.38671,7.47354-.40963,11.18487-.94552.656-.09473,1.80543-.5863,1.87553.42914.0657.95176-1.03844,1.09271-1.92535.98784A17.15177,17.15177,0,0,1,387.74651,477.61186Z" transform="translate(-172.5427 -368.61169)"/><path class="cls-63" d="M379.14365,497.20568l.59335-.538c.621-.14071-.34756-2.562,1.45229-1.01154a10.13884,10.13884,0,0,0,2.98856,3.87735c.456.30173.78608.64532.29061,1.17846-.40062.43106-.78386.128-1.08665-.10866C381.95532,499.48835,380.554,498.34129,379.14365,497.20568Z" transform="translate(-172.5427 -368.61169)"/><path class="cls-64" d="M381.18929,495.65615c-.37276-.084-1.0623-.56053-.73271.404.35431,1.03689-.0943.86438-.71974.60753-.922-1.247-2.033-2.3836-2.39364-4.19493a4.43889,4.43889,0,0,1,2.13007,1.52928c.71326.73092.641-.19234.8292-.52342A3.54968,3.54968,0,0,1,381.18929,495.65615Z" transform="translate(-172.5427 -368.61169)"/><path class="cls-65" d="M387.74651,477.61186c2.4776-1.00366,5.07027-.32244,7.603-.51884-.9169.663-1.64318,1.70292-2.99186,1.51244-1.10016.8113-1.88617-.74531-2.92965-.38119a2.97517,2.97517,0,0,1-1.71412-.471Z" transform="translate(-172.5427 -368.61169)"/><path class="cls-66" d="M389.75381,477.6175c1.19443-.53055,1.45232,1.40541,2.60381.988-.93057.70176-1.773,1.58908-3.09416,1.46849a1.00092,1.00092,0,0,0-.9801-.49264C387.92735,478.29359,389.22965,478.24666,389.75381,477.6175Z" transform="translate(-172.5427 -368.61169)"/><path class="cls-67" d="M368.17228,452.44752c-2.06352,1.29037-3.395.2269-4.54727-1.4131C365.39517,450.68736,366.64177,452.02386,368.17228,452.44752Z" transform="translate(-172.5427 -368.61169)"/><path class="cls-68" d="M384.70506,473.50641c-2.00588-.33383-4.13246.77661-6.05914-.506,2.15514-.22581,4.35189.08518,6.47924-.50094.52261-.253.6483.00535.61093.47383Z" transform="translate(-172.5427 -368.61169)"/><path class="cls-69" d="M366.57161,457.35554c.29436,1.1968-1.12422,1.25543-1.38522,2.08322l-3.00992.02158c-.341-.5586.21247-.69281.46131-.97155l-.00065.00029c.66846-.22606,1.4184-.05332,2.05808-.4202Z" transform="translate(-172.5427 -368.61169)"/><path class="cls-70" d="M402.32888,467.0216c.41154.50957.14856,1.02026.00257,1.53078-.65162.69488-1.25145,1.543-2.45984.77345C400.704,468.54526,401.51646,467.78342,402.32888,467.0216Z" transform="translate(-172.5427 -368.61169)"/><path class="cls-71" d="M364.23835,464.56068c.61942,1.02821,1.661.19023,2.43174.5497a3.82427,3.82427,0,0,1-3.98906-.07312Q363.4601,464.79906,364.23835,464.56068Z" transform="translate(-172.5427 -368.61169)"/><path class="cls-72" d="M362.63778,458.48879l-.46131.97155c-.78315.17982-1.428-.07412-2.47176-.97155Z" transform="translate(-172.5427 -368.61169)"/><path class="cls-73" d="M361.6301,465.02991c-.17907,1.247-.703,1.35374-2.47971.50542Q360.39055,465.28267,361.6301,465.02991Z" transform="translate(-172.5427 -368.61169)"/><path class="cls-74" d="M386.7532,472.01423c.57588-.68665,1.33217-.655,2.76344-.88712a4.22743,4.22743,0,0,1-2.73342,1.46518.3533.3533,0,0,1-.1571-.37826Q386.6856,472.01426,386.7532,472.01423Z" transform="translate(-172.5427 -368.61169)"/><path class="cls-75" d="M400.90726,473.25178c-.18831.70659-.44125,1.36042-1.36471,1.00191C399.624,473.38993,400.30406,473.36789,400.90726,473.25178Z" transform="translate(-172.5427 -368.61169)"/><path class="cls-76" d="M392.2828,469.99517c-.59.338-1.053.97809-2.05254.78878.3834-1.02,1.23966-1.13549,2.02413-1.34909q.22623.1758.16345.36622Q392.354,469.99514,392.2828,469.99517Z" transform="translate(-172.5427 -368.61169)"/><path class="cls-77" d="M393.8107,468.61189a1.51257,1.51257,0,0,1,1.35866-.917c.06723-.001.22278.28744.19412.40741-.19569.81935-.98978.72513-1.55928.9766q-.23385-.159-.15306-.31358Q393.731,468.612,393.8107,468.61189Z" transform="translate(-172.5427 -368.61169)"/><path class="cls-72" d="M364.69521,458.06887a1.49654,1.49654,0,0,1-2.05808.42021C363.1998,457.74527,363.975,458.04138,364.69521,458.06887Z" transform="translate(-172.5427 -368.61169)"/><path class="cls-78" d="M393.8107,468.61189a2.44362,2.44362,0,0,0-.00652.467,2.27338,2.27338,0,0,1-1.52138.91634l-.02836-.56014A2.06427,2.06427,0,0,1,393.8107,468.61189Z" transform="translate(-172.5427 -368.61169)"/><path class="cls-79" d="M386.7532,472.01423l.03.57805q-.52357.19056-1.04715.38108l-.61083-.47378Q385.93913,472.25684,386.7532,472.01423Z" transform="translate(-172.5427 -368.61169)"/><path class="cls-18" d="M392.28657,488.07728a1.79977,1.79977,0,0,1,2.053-.93509A3.249,3.249,0,0,1,392.28657,488.07728Z" transform="translate(-172.5427 -368.61169)"/><path class="cls-80" d="M354.11158,482.60942c.11318.77734.44827,1.66884-.96056,1.51766a1.51836,1.51836,0,0,0-1.5469.43986c-2.7253-.50651-4.42929-2.42021-6.079-4.40875-.1975-.45962-.02252-.6117.437-.52887.76293,1.07481,2.21726.674,3.116,1.4589C350.59848,482.116,352.58172,481.61317,354.11158,482.60942Z" transform="translate(-172.5427 -368.61169)"/><path class="cls-81" d="M361.26894,477.5196c-1.28551.22576-2.33463-.55472-3.505-.79617-.6937-.1431-1.43455-1.05053-2.18847-.08429a11.15964,11.15964,0,0,1-3.08678-2.01284.76523.76523,0,0,1,.63072-.61662A40.73135,40.73135,0,0,1,361.26894,477.5196Z" transform="translate(-172.5427 -368.61169)"/><path class="cls-82" d="M346.622,469.62949c-.16077-.594-1.30732-.9714-.73264-1.59764.672-.73229,1.13321.271,1.5325.67153a12.27759,12.27759,0,0,0,4.10856,3.097c.64393.251.94425.6244.54307,1.30111-.91466.58765-1.43323-.33919-2.13686-.55846l-1.37309-.9943A4.904,4.904,0,0,0,346.622,469.62949Z" transform="translate(-172.5427 -368.61169)"/><path class="cls-83" d="M354.11158,482.60942c-1.73844-.30655-3.76124.327-5.03341-1.52119,2.51028.21786,4.99252.84151,7.54008.52135C356.109,482.76024,355.06741,482.57743,354.11158,482.60942Z" transform="translate(-172.5427 -368.61169)"/><path class="cls-84" d="M362.065,487.97238c-.05063,1.27368-1.47816.9838-1.98135,1.74356q-1.58714,0-3.1743,0l-.0789-.45265Z" transform="translate(-172.5427 -368.61169)"/><path class="cls-44" d="M367.09347,495.01685c.86583.66822-.542,1.53836.19713,2.21782-.30151.50869-.76874,1.08546-1.31195.81944-.75271-.36865-.15164-.957.10688-1.41223C366.40008,496.088,366.75564,495.55748,367.09347,495.01685Z" transform="translate(-172.5427 -368.61169)"/><path class="cls-85" d="M344.29807,474.632l1.98868.3646c.46215.398,1.30953.43806,1.24394,1.50727A4.8042,4.8042,0,0,1,344.29807,474.632Z" transform="translate(-172.5427 -368.61169)"/><path class="cls-86" d="M350.04349,478.03369c-.58583-.34018-1.45236-.20647-1.8562-1.16423.94538-.47023,1.45129.12118,1.97473.64965q.21506.23012.09072.38214A.29041.29041,0,0,1,350.04349,478.03369Z" transform="translate(-172.5427 -368.61169)"/><path class="cls-87" d="M346.622,469.62949c1.18839.09264,1.96251.604,1.94154,1.9192A3.95845,3.95845,0,0,1,346.622,469.62949Z" transform="translate(-172.5427 -368.61169)"/><path class="cls-88" d="M344.64713,466.90841c-.85974-.37489-.69366-1.17875-1.12061-1.6958.84007-.44991.97578.12862,1.19186.50523C344.90285,466.03935,345.22628,466.37941,344.64713,466.90841Z" transform="translate(-172.5427 -368.61169)"/><path class="cls-89" d="M350.04349,478.03369l.11852-.51457a2.43542,2.43542,0,0,1,2.04067.83432C351.36125,478.723,350.73125,478.085,350.04349,478.03369Z" transform="translate(-172.5427 -368.61169)"/><path class="cls-90" d="M342.80782,463.21079c.91825-.00962,1.1211.53429,1.17269,1.21231C342.69627,464.86316,343.25329,463.54339,342.80782,463.21079Z" transform="translate(-172.5427 -368.61169)"/><path class="cls-91" d="M349.93666,472.543l2.13685.55845a.83238.83238,0,0,1,.09306.41992.65147.65147,0,0,1-.56887.53865C350.73336,473.89423,350.36325,473.18771,349.93666,472.543Z" transform="translate(-172.5427 -368.61169)"/><path class="cls-92" d="M351.5977,474.06q.28437-.26936.5688-.53868l.95295.48837-.63074.61661Z" transform="translate(-172.5427 -368.61169)"/><path class="cls-93" d="M345.96214,479.62933l-.437.52885-1.56175-1.37853C345.11211,478.42447,345.53684,479.02748,345.96214,479.62933Z" transform="translate(-172.5427 -368.61169)"/><path class="cls-94" d="M359.87672,499.69908c.1736.12568.45122.22194.51276.395a.3134.3134,0,0,1-.41.40876c-.19436-.06095-.32815-.31489-.48892-.48285Z" transform="translate(-172.5427 -368.61169)"/><path class="cls-60" d="M200.72741,489.71294l2.16772.83676a15.82422,15.82422,0,0,0,8.22249,1.68556,2.6608,2.6608,0,0,1,1.87991.40376c1.207.83908,2.55351,1.8972,1.68313,3.4043-.85918,1.48769-2.524.42974-3.26508-.23247-3.24888-2.90331-6.43314-1.36925-9.58241-.104-4.15663,1.67-7.95564,4.14563-12.25891,5.51423a10.8853,10.8853,0,0,1-4.19866.45076c-3.179-.24217-5.49078-2.03006-5.8126-4.51607a6.9534,6.9534,0,0,1,4.65513-7.1072,13.67269,13.67269,0,0,1,6.62556.57972,12.00941,12.00941,0,0,0,6.36616-.868A4.12009,4.12009,0,0,1,200.72741,489.71294Z" transform="translate(-172.5427 -368.61169)"/><path class="cls-95" d="M200.86786,500.19505l-.735-.58569a27.38309,27.38309,0,0,1,5.98766-2.28192,2.57094,2.57094,0,0,1,2.54634.57422,8.28032,8.28032,0,0,0,3.3482,1.60039c1.931.42515,3.914.44067,5.15415-1.44094,1.21878-1.84917,1.52474-3.84007.0298-5.77109-.35631-.46023-.70649-.92518-1.06284-1.39236,1.03475-.99889,1.88486-1.37,3.35688-.33947a7.5752,7.5752,0,0,1,3.37682,8.01318c-.53535,3.14318-2.94013,4.60689-5.91472,5.21281-1.9679.73322-3.98719.45056-5.99964.30329-1.13356.51062-2.072-.42519-3.137-.419a2.71151,2.71151,0,0,1-.58515-.24361,9.42956,9.42956,0,0,0-1.5963-.93406c-.65594-.30044-1.40908-.45764-1.779-1.18516C202.9967,500.57111,201.60871,501.25363,200.86786,500.19505Z" transform="translate(-172.5427 -368.61169)"/><path class="cls-96" d="M190.84369,490.62832c-2.251.29249-4.38475-.75379-6.62546-.57973.61509-.44281.25044-1.17438.56762-2.02359a3.4644,3.4644,0,0,0,3.57565,1.74461A2.873,2.873,0,0,1,190.84369,490.62832Z" transform="translate(-172.5427 -368.61169)"/><path class="cls-97" d="M204.94737,489.57641q1.23584.26526,2.47169.53047a3.31682,3.31682,0,0,0,.36142.14663c.08819.93908-.52461.53654-.94864.49529-.68828-.14371-1.53978.12306-1.93118-.7673q-.15625-.15481-.08343-.28327Q204.88614,489.57647,204.94737,489.57641Z" transform="translate(-172.5427 -368.61169)"/><path class="cls-98" d="M204.94737,489.57641a.38641.38641,0,0,0-.04669.40515q-.47975.06285-.95944.12581a6.28289,6.28289,0,0,1-.73492-.75207c.45235-.60124,1.14023-.06012,1.69781-.2871Z" transform="translate(-172.5427 -368.61169)"/><path class="cls-99" d="M206.83184,490.7488l.94889-.49542c.43291.02056.98933.32535.73265.62825C208.059,491.41783,207.36874,491.199,206.83184,490.7488Z" transform="translate(-172.5427 -368.61169)"/><path class="cls-100" d="M199.56628,487.53734c-.22924-.34011-.47943-.55909-.51973-.81155-.04534-.284.253-.3299.471-.223.19707.09664.44.236.50506.41412C200.06126,487.02288,199.79556,487.24,199.56628,487.53734Z" transform="translate(-172.5427 -368.61169)"/><path class="cls-4" d="M274.20112,395.17782a73.48661,73.48661,0,0,1,11.29566-17.67316c2.34148,5.77893,4.56784,11.46259,6.96814,17.07187.64177,1.49974.33045,2.295-.95124,3.03565-1.21343.70125-2.38156,1.48082-3.67049,2.28921-1.68337-3.404-2.41722-7.07842-3.532-10.62149-.32257-1.0252-.45837-2.40093-1.55493-2.66692-1.32263-.32081-1.891,1.1165-2.5754,1.97732-1.86126,2.34112-3.6303,4.75549-5.43589,7.14084C274.2588,395.84609,274.00863,395.72932,274.20112,395.17782Z" transform="translate(-172.5427 -368.61169)"/><path class="cls-101" d="M276.06656,408.33856l.25222.85571a.33765.33765,0,0,1-.09118.51513c-5.04354-.317-10.0404.75641-15.078.50455-.84892-.04244-1.8178.38734-2.54836-.43068a9.83308,9.83308,0,0,0,2.57493-2.87556c2.65356-3.901,5.3458-7.77563,8.14519-11.83688Z" transform="translate(-172.5427 -368.61169)"/><path class="cls-102" d="M282.19448,393.72028l4.759,12.41327c-3.025,0-5.81376.00061-8.60253-.00158a1.18575,1.18575,0,0,1-.47567-.0424c-1.14018-.52764-2.59765-5.03751-2.0556-6.326.68913-.11507.71592-.68945.83342-1.20093.27422-1.26713,1.48149-1.83561,2.1204-2.82967.85145-.22855,1.35926-.95339,2.04352-1.423C281.24893,394.05195,281.56392,393.51278,282.19448,393.72028Z" transform="translate(-172.5427 -368.61169)"/><path class="cls-103" d="M302.73258,406.854a9.65341,9.65341,0,0,1-2.70229-4.60585c-.71108-2.11832-1.76631-2.78191-3.78089-1.5001a6.89417,6.89417,0,0,1-1.86452.542c-.84129.21458-1.09725-.20047-1.03318-.95976,2.7635-1.60537,4.7712-4.11243,7.5005-6.46251.41122,4.27878,1.61589,8.03088,2.53444,11.85266C303.70476,406.40738,303.66993,406.89086,302.73258,406.854Z" transform="translate(-172.5427 -368.61169)"/><path class="cls-104" d="M295.85632,404.40439c.88511,1.49234.23437,1.98645-1.24162,1.8152-1.10347-.128-2.18661-.92812-3.29365-.021-1.77837.099-1.69345-1.27277-1.90449-2.41093.44373-.14123.64994.12.80193.473C292.04387,406.42155,293.96946,404.65385,295.85632,404.40439Z" transform="translate(-172.5427 -368.61169)"/><path class="cls-105" d="M281.245,394.71494c-.88063.20151-1.19388,1.77959-2.47151,1.018q1.22706-1.79751,2.45418-3.59506A2.33194,2.33194,0,0,1,281.245,394.71494Z" transform="translate(-172.5427 -368.61169)"/><path class="cls-106" d="M290.21849,404.2607q-.401-.23656-.80194-.47306c-1.72406-2.23993.88728-1.2958,1.3944-1.89711a.59363.59363,0,0,1,.00528.90417Z" transform="translate(-172.5427 -368.61169)"/><path class="cls-107" d="M293.3517,400.33026l1.03318.95976a2.07941,2.07941,0,0,1-2.07728.96061.991.991,0,0,1-.06641-1.23073Z" transform="translate(-172.5427 -368.61169)"/><path class="cls-108" d="M281.245,394.71494l-.01734-2.57709c1.09305.05691.9474.87.9668,1.58243Z" transform="translate(-172.5427 -368.61169)"/><path class="cls-109" d="M276.65309,398.56259c.18.58434.90628,1.18489.37409,1.741-.35194.36775-.76671-.39816-1.2075-.54008A1.73411,1.73411,0,0,1,276.65309,398.56259Z" transform="translate(-172.5427 -368.61169)"/><path class="cls-110" d="M302.73258,406.854c.53913-.19268.53079-.701.65406-1.13354.53517.55171.97,1.41725.50977,1.89818C303.393,408.14471,303.06019,407.24856,302.73258,406.854Z" transform="translate(-172.5427 -368.61169)"/><path class="cls-111" d="M292.24119,401.0199l.06643,1.23073-1.49142.54408-.00526-.90418Z" transform="translate(-172.5427 -368.61169)"/><path class="cls-112" d="M274.20112,395.17782l.5438.55334c-.284.47279-.45647,1.4554-1.16349.90457C273.06823,396.2359,273.68812,395.55718,274.20112,395.17782Z" transform="translate(-172.5427 -368.61169)"/><path class="cls-60" d="M287.21083,465.89906a21.414,21.414,0,0,1,11.18988,5.87455c1.37173,1.28683.04659,2.61479-1.3269,3.31681a55.49643,55.49643,0,0,1-11.63388,4.38918,35.17209,35.17209,0,0,1-18.0584.19285c-4.39676-1.17439-7.24582-3.78084-8.29173-8.30578a1.18014,1.18014,0,0,1,.55088-1.41214,24.56028,24.56028,0,0,1,9.7773-4.77741c1.33484-.35533,1.30456.34362,1.31881,1.28311.06733,4.43971,2.51878,7.94942,5.924,8.55379a10.0879,10.0879,0,0,0,11.34772-5.81142C288.35611,468.37466,288.35611,468.37466,287.21083,465.89906Z" transform="translate(-172.5427 -368.61169)"/><path class="cls-18" d="M302.36626,486.64088a3.441,3.441,0,0,0-.03111.40828c-.41869.9628-.547,2.13292-1.79106,2.50635-.35634-.056-.47239.17561-.54713.45669-.797.19025-1.59222.37366-2.11412-.53082l-.177-1.37039c1.00479-1.80209,1.94322-3.64562,3.03577-5.39285.84387-1.34956.49432.169.7053.35311a4.09607,4.09607,0,0,0,.90516,3.06947q.27247.15912.18805.32841C302.48328,486.58353,302.42554,486.64088,302.36626,486.64088Z" transform="translate(-172.5427 -368.61169)"/><path class="cls-113" d="M302.45711,478.60411c-1.48983.48068-1.04651-1.10372-1.63275-1.60746-.38186-.32813.34677-1.09786.573-1.09912,1.02808-.00568,1.437.70934,1.449,1.68133A7.48766,7.48766,0,0,1,302.45711,478.60411Z" transform="translate(-172.5427 -368.61169)"/><path class="cls-57" d="M302.45711,478.60411a.782.782,0,0,1,.38929-1.02524l1.04253.4822c.11293.46318-.00939.68933-.52428.52C303.04808,478.03584,302.75717,478.5,302.45711,478.60411Z" transform="translate(-172.5427 -368.61169)"/><path class="cls-114" d="M303.36465,478.58105q.2619-.25982.524-.51981c.3976.089.99413.20533.68245.70788C304.24087,479.3016,303.71009,479.05931,303.36465,478.58105Z" transform="translate(-172.5427 -368.61169)"/><path class="cls-60" d="M191.94435,404.13862,188.867,399.622c-2.10121-3.516-1.986-3.41294.844-6.5749a10.27375,10.27375,0,0,1,8.42543-3.83427,71.77214,71.77214,0,0,0,11.97552-.96185c2.92265-.44358,3.3475,1.93567,4.60754,3.36165,1.16528,1.31876-.431,2.06145-.97262,2.8991-1.8556,2.87-3.8572,5.64572-5.80311,8.4574-.47614.688-.875,1.27924-1.97009,1.15553C201.30332,403.597,196.62268,404.30682,191.94435,404.13862Z" transform="translate(-172.5427 -368.61169)"/><path class="cls-4" d="M210.71325,404.38443c2.15066-3.009,4.02685-5.63437,5.90355-8.25938.45753-.64.805-1.30092,1.57815-.17621a46.70817,46.70817,0,0,1,5.26978,9.81157Z" transform="translate(-172.5427 -368.61169)"/><path class="cls-115" d="M198.8676,416.79207l-.40032-.619-1.16424-1.85951c-.6217-.57393-1.34268-1.0848-1.31585-2.07057l-.27142-.4532a10.7134,10.7134,0,0,1-2.45558-3.9023c-.16868-.49451-.472-1.20189.57829-1.14855h11.019c-.24042,1.88636-1.63048,2.9227-2.04837,4.40753C201.22846,412.84219,200.73521,415.29654,198.8676,416.79207Z" transform="translate(-172.5427 -368.61169)"/><path class="cls-116" d="M204.41389,378.20169c1.6126-.23374,1.20514,1.4245,1.90335,2.07431a45.77492,45.77492,0,0,1,3.07533,3.44439c.93867,1.2677.912,1.91673-.95808,1.94866-3.82825.06535-7.623.82013-11.69809.591C199.06113,383.25164,202.28637,381.23057,204.41389,378.20169Z" transform="translate(-172.5427 -368.61169)"/><path class="cls-7" d="M181.37214,400.77108a1.54784,1.54784,0,0,0,.91962-1.00535,16.1073,16.1073,0,0,1,2.10239-1.98937l2.02876,2.96362,1.80544,3.21189c-3.16487.66008-6.32834-.00032-9.34543.76391-.825-.94593.12622-1.441.52514-2.07609A8.02709,8.02709,0,0,1,181.37214,400.77108Z" transform="translate(-172.5427 -368.61169)"/><path class="cls-117" d="M183.49167,388.77375c1.86511.65534,3.86684.10478,6.0822.59337l-3.31443,3.74633c-.59592.72663-1.12057.22615-1.65846-.09206a5.67133,5.67133,0,0,1-1.36073-2.25777C183.13312,390.07776,182.57478,389.33026,183.49167,388.77375Z" transform="translate(-172.5427 -368.61169)"/><path class="cls-35" d="M193.83848,406.73894c-1.15353.96084.08184,1.548.39011,2.2412.42957.966.9854,1.87581,1.48719,2.80966-1.8268-.21894-1.59467-2.75047-3.38446-3.011a1.48962,1.48962,0,0,0-.46737-2.42585c-1.43375-.73953-.785-1.35048-.05428-2.04973Q192.82415,405.52122,193.83848,406.73894Z" transform="translate(-172.5427 -368.61169)"/><path class="cls-118" d="M184.87572,392.68018c.41128.30384.74578.85269,1.38371.43328-.22089.73786-.81291,1.6248-1.40843,1.32932a3.636,3.636,0,0,1-2.0629-2.73824C183.99937,390.92775,184.05291,392.62638,184.87572,392.68018Z" transform="translate(-172.5427 -368.61169)"/><path class="cls-93" d="M218.42424,388.3059c-.374.75-.40187,1.89424-1.56812,1.323-.30436-.14907-.69427-.74635-.60784-.96559C216.69878,387.52074,217.682,388.63566,218.42424,388.3059Z" transform="translate(-172.5427 -368.61169)"/><path class="cls-119" d="M183.49167,388.77375c-.66936.7412.49251,1.24334.252,1.92856a1.02713,1.02713,0,0,1-1.4693.0048C181.51555,389.70691,181.54964,389.65276,183.49167,388.77375Z" transform="translate(-172.5427 -368.61169)"/><path class="cls-120" d="M182.27433,390.70711l1.4693-.00481,1.13211,1.9779c-.92036.15468-1.20445-1.051-2.08766-.97567A1.05708,1.05708,0,0,1,182.27433,390.70711Z" transform="translate(-172.5427 -368.61169)"/><path class="cls-121" d="M184.39415,397.77636a2.23238,2.23238,0,0,1-2.10241,1.98938,2.45486,2.45486,0,0,1,1.83029-2.09919A.41256.41256,0,0,1,184.39415,397.77636Z" transform="translate(-172.5427 -368.61169)"/><path class="cls-102" d="M363.48446,391.65a6.61266,6.61266,0,0,1,1.60128-4.34341c2.46388-3.09678,4.16155-2.902,5.587.66081.3062.76536.57946,1.54427.89915,2.3038a3.82867,3.82867,0,0,1-4.09915,5.27884C364.08,395.17674,363.48474,394.595,363.48446,391.65Z" transform="translate(-172.5427 -368.61169)"/><path class="cls-4" d="M365.414,419.09362c-3.2331.04408-4.5485-.9339-4.63348-3.35282-.1134-3.2267,1.98807-5.865,4.72895-5.93709,1.50284-.03951,4.61508,3.15539,4.78066,5.29983.16609,2.15112-1.41053,3.16872-3.27633,3.71794A12.35384,12.35384,0,0,1,365.414,419.09362Z" transform="translate(-172.5427 -368.61169)"/><path class="cls-122" d="M366.08953,398.632c1.93015.16158,3.75379.82192,4.05989,2.88414.30277,2.03962-2.94331,5.22455-4.69916,5.03348a4.09476,4.09476,0,0,1-3.33526-4.05112A4.02681,4.02681,0,0,1,366.08953,398.632Z" transform="translate(-172.5427 -368.61169)"/><path class="cls-123" d="M363.20555,379.148l-1.49742-.94424c.17757-1.04363.97829-1.37822,1.85367-1.62794C363.59686,377.45447,362.77875,378.21508,363.20555,379.148Z" transform="translate(-172.5427 -368.61169)"/><path class="cls-11" d="M179.78892,402.79469c-.11106.73035-1.54419.83765-.906,1.92109-.901-.21468-.58379-.92894-.61556-1.50039q.46943-.50528.93875-1.00992C179.70015,402.10556,179.93046,402.26635,179.78892,402.79469Z" transform="translate(-172.5427 -368.61169)"/><path class="cls-124" d="M276.2276,409.7094l.09121-.515c.11111.20113.36107.45482.30836.5941-.18687.49389.80861,1.09636-.13977,1.47569a1.44581,1.44581,0,0,1-.48511.01476Z" transform="translate(-172.5427 -368.61169)"/><path class="cls-125" d="M181.73662,467.04306q-.23424.31659-.46848.63342-.55876-.11971-1.11752-.23991A1.15177,1.15177,0,0,1,181.73662,467.04306Z" transform="translate(-172.5427 -368.61169)"/><path class="cls-126" d="M212.38609,505.27168a2.50677,2.50677,0,0,1,2.256.79222c-1.25068.15063-2.279.41848-3.26612-.3306C211.58973,505.31067,212.11458,505.56813,212.38609,505.27168Z" transform="translate(-172.5427 -368.61169)"/><path class="cls-127" d="M207.44167,503.12773a7.44858,7.44858,0,0,1,3.51381.95973l-.02966.60412c-.79531.62-1.30556-.01238-1.866-.42441l-.56041-.05839C207.93117,504.05932,207.13345,504.13418,207.44167,503.12773Z" transform="translate(-172.5427 -368.61169)"/><path class="cls-128" d="M209.05986,504.26717q.933.21223,1.866.42443l-.09031.11917c.00919.84247-.40452.69131-.88748.37744q-.44033-.03233-.88016-.06492Q209.06433,504.695,209.05986,504.26717Z" transform="translate(-172.5427 -368.61169)"/><path class="cls-129" d="M209.948,505.18821q.444-.18888.88771-.37761.77515.2305,1.55057.46086-.50522.231-1.0102.46172C210.87905,505.60634,210.27042,505.77189,209.948,505.18821Z" transform="translate(-172.5427 -368.61169)"/><path class="cls-130" d="M195.98719,412.243a4.34633,4.34633,0,0,1,1.31587,2.0706q-.4761-.00736-.95218-.01472-.50123-.499-1.0024-.99794A1.03037,1.03037,0,0,1,195.98719,412.243Z" transform="translate(-172.5427 -368.61169)"/><path class="cls-131" d="M206.39973,503.81184c-.813-.4435-1.84437-.39244-2.53288-1.11776-.16925-.79347.3653-.74073.8702-.7239a8.71485,8.71485,0,0,1,2.2544,1.19913C207.0476,503.61654,206.8816,503.85959,206.39973,503.81184Z" transform="translate(-172.5427 -368.61169)"/><path class="cls-132" d="M206.39973,503.81184l.45875-.58495q.2631-.40055.59673-.05646l-.01351-.04264q.528.54039,1.05688,1.08093C207.61911,505.03026,207.04408,504.2378,206.39973,503.81184Z" transform="translate(-172.5427 -368.61169)"/><path class="cls-133" d="M204.65169,502.21024l-.78479.48384q-.26565-.24337-.53176-.48658.26086-.45076.52288-.90188c.6726.32977,1.53912.1995,2.06775.87088A1.099,1.099,0,0,1,204.65169,502.21024Z" transform="translate(-172.5427 -368.61169)"/><path class="cls-1" d="M297.88284,489.48138c.65216.38621,1.56754-.27455,2.11416.531q-.1496.544-.29921,1.08824C298.46032,491.26915,297.64508,490.96493,297.88284,489.48138Z" transform="translate(-172.5427 -368.61169)"/><path class="cls-134" d="M300.54409,489.55551c.82751-.67086.59082-2.10166,1.79107-2.50634q.27941.52862.55917,1.057C302.16889,488.6827,301.826,489.87984,300.54409,489.55551Z" transform="translate(-172.5427 -368.61169)"/><path class="cls-36" d="M179.78892,402.79469q-.29092-.29422-.58234-.58883a1.41635,1.41635,0,0,0,.05481-.43791q.48888-.50647.97756-1.01316.56621.00831,1.13319.0163C181.26567,401.775,180.51321,402.27381,179.78892,402.79469Z" transform="translate(-172.5427 -368.61169)"/><path class="cls-135" d="M302.36626,486.64088a4.75851,4.75851,0,0,1-.01419-.50023q.50418-.0102,1.00841-.02054.01334.25036.00383.50089Z" transform="translate(-172.5427 -368.61169)"/><path class="cls-136" d="M374.219,458.4782c-.11134.818-.5401,1.43029-1.37349,1.43426a1.54728,1.54728,0,0,1-1.54412-1.3341c-.12513-.88337.66017-1.33079,1.38628-1.42168C373.53258,457.0509,373.93261,457.75049,374.219,458.4782Z" transform="translate(-172.5427 -368.61169)"/><path class="cls-137" d="M385.0979,490.06217a1.16733,1.16733,0,0,1-.82012,1.15707c-.69944.20617-.7821-.52036-.86257-.93247a.79917.79917,0,0,1,.8438-.98544C384.7311,489.28988,384.98657,489.62951,385.0979,490.06217Z" transform="translate(-172.5427 -368.61169)"/><path class="cls-138" d="M389.75381,477.6175c.04907,1.05831-1.26829,1.094-1.47067,1.96388-1.13545-.31545-.59975-1.15062-.56912-1.82842Q388.73375,477.68558,389.75381,477.6175Z" transform="translate(-172.5427 -368.61169)"/><path class="cls-18" d="M391.58532,486.697c-.36565.81141-.79718,1.39482-1.21266,1.19436-.88942-.42914-.0689-.69018.26412-.91579A4.19739,4.19739,0,0,1,391.58532,486.697Z" transform="translate(-172.5427 -368.61169)"/><path class="cls-138" d="M384.26763,477.00487a3.95576,3.95576,0,0,1,2.472.73678A2.16538,2.16538,0,0,1,384.26763,477.00487Z" transform="translate(-172.5427 -368.61169)"/><path class="cls-2" d="M204.65169,502.21026l1.27406-.03376a1.50286,1.50286,0,0,1,1.52943.99394l-.59668.05642Q205.75507,502.71859,204.65169,502.21026Z" transform="translate(-172.5427 -368.61169)"/></svg>